<?xml version="1.0" encoding="UTF-8"?>
<svg id="Camada_2" data-name="Camada 2" xmlns="http://www.w3.org/2000/svg" viewBox="0 0 3048 2721.54">
  <defs>
    <style>
      .cls-1 {
        opacity: .7;
      }

      .cls-2 {
        fill: #fff;
      }

      .cls-3 {
        fill: #a6e828;
      }

      .cls-4 {
        fill: #94db23;
      }

      .cls-5 {
        fill: #ffc20f;
      }

      .cls-6 {
        fill: #53bc0f;
      }

      .cls-7 {
        fill: #52ad9c;
      }

      .cls-8 {
        opacity: .23;
      }

      .cls-9 {
        opacity: .3;
      }

      .cls-10 {
        opacity: .32;
      }

      .cls-11 {
        fill: #1b3d07;
      }

      .cls-12 {
        opacity: .21;
      }
    </style>
  </defs>
  <g id="Layer_1" data-name="Layer 1">
    <g>
      <g>
        <g>
          <path class="cls-6" d="M929.83,1506.51s-30.29-34.88-91.61-21.46c-61.32,13.42-203.39-5.54-203.39-5.54l-93.45,122.15,10.2,76.98c145.61,12.06,330.46-7.85,384.25-99.57"/>
          <g class="cls-12">
            <path class="cls-11" d="M935.83,1547.5s-99.55,92.27-320.9,64.23l-14.59,22.97,22.45,26.04c154.1,0,300.2-40.16,313.04-113.24Z"/>
          </g>
          <path class="cls-11" d="M928.13,1507.98c-20.1-12.91-43.86-16.92-67.07-14.19-12.09,1.38-24.01,5.31-36.19,7.06-38.48,5.65-77.43,4.42-116.01,1.82-25.46-1.96-50.61-4.72-75.91-9.11l13.13-5.44c-26.43,35.92-64.84,87.11-92.27,123.05,0,0,3.09-11.57,3.09-11.57,3.46,25.66,6.7,51.34,8.8,77.16,.02,0-13-12.35-12.93-12.32,111.65,7.36,305.48,7.99,381.13-86.5,1.41-2.19,5.1-.08,3.87,2.27-23.09,49.54-76.79,75.68-126.6,91.01-84.3,25.05-173.6,28.87-260.76,21.62-7-.14-12.3-5.68-12.95-12.33-2.39-12.74-4.36-25.53-6.33-38.33-1.77-12.82-3.68-25.62-5.27-38.47-.58-4.25,.65-8.41,3.09-11.57,28.03-35.86,66.41-86.42,94.62-121.25,3.28-4.17,8.21-5.76,13.13-5.44,43.73,3.5,105.39,9.18,148.59,9.6,15.25,.14,30.15,.14,44.91-1.99,9.62-1.18,20.14-2.87,29.88-2.64,27.58,.33,56.22,11.99,71.44,34.61,1.36,2.23-1.35,4.6-3.38,2.94h0Z"/>
        </g>
        <g>
          <path class="cls-4" d="M429.33,1324.86s69.41-55.95,74.78-83.38c5.37-27.43-14.94-41.57-73.67-39.69-58.73,1.88-99.8-64.55-126.51-59.8-26.71,4.75-32.09,23.22-24.78,66.98,0,0-13.4,17.17-65.36,11.83-51.95-5.34-46.97,28.76-37.7,50.66,9.27,21.9,93.31,48.4,107.83,86.48s-5.9,153.98-56.36,195.31c-50.46,41.33-259.48,193.13-201.9,434.75,57.58,241.63,372.6,230.5,521.94,172.76,149.35-57.74,277.45-339.03,42.86-521.41-234.59-182.38-161.15-314.49-161.15-314.49Z"/>
          <g class="cls-12">
            <path class="cls-11" d="M326.56,1155.28s34.06,26.16,24.44,66.18-26.76,92.58-3.44,103.22c23.31,10.64,36.22-104,72.9-113.24,36.69-9.23-43.71-28.71-43.71-28.71"/>
          </g>
          <path class="cls-11" d="M349.78,2210.97c-71.93,0-144.55-12.97-203.41-43.91-71.43-37.55-117.18-96.57-135.97-175.42-56.88-238.71,135.13-392.68,198.23-443.28,3.38-2.71,6.4-5.13,8.99-7.26,45.3-37.1,64-145.18,51.65-177.57-6.33-16.61-35.78-33.65-59.43-47.35-23.56-13.64-42.18-24.42-48.18-38.61-9.61-22.71-9.45-42.6,.46-56.01,9.96-13.48,27.92-18.98,53.3-16.38,25.75,2.65,39.84-.8,46.67-3.65-3.98-27.46-5.32-67.1,39.11-75,18.16-3.23,34.85,9.7,54.19,24.66,21.71,16.79,46.24,35.74,74.56,34.91,42.18-1.35,68.07,5.26,81.29,20.81,5.81,6.83,11.95,18.89,8.28,37.59-5.71,29.17-57.62,74.02-77.56,90.33-3.51,8.12-13.14,35.79-4.06,78.59,10.13,47.76,46.49,123.57,162.22,213.54,102.11,79.38,148.97,186.85,131.95,302.58-16.22,110.34-89.74,211.44-178.79,245.86-56.69,21.92-129.73,35.57-203.5,35.57Zm-146.2-975.03c-9.47,0-14.56,2.03-16.23,4.28-2.35,3.18-2.28,12.18,3.2,25.12,2.78,5.02,22.17,16.25,35,23.68,29.4,17.03,62.73,36.32,73.04,63.33,17.4,45.62-6.22,168.11-61.08,213.05-2.67,2.18-5.77,4.67-9.24,7.46-59.26,47.52-239.61,192.15-187.33,411.52,16.59,69.64,56.98,121.76,120.04,154.9,110.92,58.32,275.62,47.58,380.98,6.86,77.74-30.06,144.63-123.06,159.05-221.15,15.3-104.06-27.38-201.09-120.17-273.23-242.43-188.48-168.5-328.64-165.23-334.51,.98-1.76,2.29-3.33,3.87-4.59,31.25-25.21,66.6-60.73,69.23-74.18,1.53-7.78-.59-10.28-1.39-11.22-2.88-3.38-14.14-11.14-56.37-9.77-39.7,1.18-71.46-23.42-94.77-41.46-9.85-7.62-24.81-19.06-29.51-18.58-10.52,1.88-19.62,3.49-12.03,48.95,.72,4.34-.41,8.78-3.11,12.25-3.13,4.01-21.63,23.68-79.34,17.78-3.2-.33-6.06-.48-8.61-.48Z"/>
          <g>
            <path class="cls-2" d="M355.97,1370.51s-10.35-17.36-41.62-21c-31.26-3.64-58.81-8.7-67.07,16.94-8.26,25.65,7.48,47.05,7.48,47.05,0,0-26.36,7.52-21.47,38.69s17.81,33.37,17.81,33.37c0,0-21.97,12.89-12.18,39.12,9.8,26.23,65.98,17.78,79.13,14.87,23-5.09,32.42-39.33,7.23-53.75,0,0,26.59-6.92,30.61-28.83,5.3-28.89-14.1-39.15-14.1-39.15,0,0,35.77-24.68,14.18-47.31Z"/>
            <path class="cls-11" d="M283.48,1558.99c-23.48,0-50.54-5.47-59.26-28.81-6.96-18.62-2.67-33.65,4.36-44.07-4.47-6.88-8.51-16.9-10.8-31.48-3.65-23.25,5.61-38.48,16.29-47.32-4.28-11.24-7.55-27.57-1.73-45.66,11.72-36.37,48.54-31.95,78.13-28.4l5.7,.68c33.13,3.86,47.95,20.94,52.13,26.8,9.7,10.77,10.87,21.82,10.1,29.29-1.18,11.46-7.62,21.31-14.01,28.47,6.17,9.53,10.26,23.25,6.94,41.32-2.54,13.82-10.98,23.86-20.31,30.67,4.25,8.07,5.88,17.38,4.41,27-2.82,18.5-16.48,33.54-34,37.41-3.64,.8-19.72,4.11-37.96,4.11Zm4.17-76.66l-28.6,16.77c-2.97,1.9-9.93,7.98-5.42,20.09,3.54,9.48,36.29,10.5,61.04,5.03,5.68-1.25,9.03-6.84,9.74-11.49,.6-3.93-.12-9.42-6.92-13.32l-29.83-17.08Zm-31.58-11.85l39.76,6.76,25.5-6.64c.06-.02,17.02-5,19.13-16.47,2.94-16-4.81-21.68-6.4-22.66l-25.37-11.43,24.19-15.14c5.61-3.94,13.75-12.46,14.3-18.12,.08-.81,.25-2.49-2.56-5.43l-1.54-1.61-.51-1.03c-1.19-1.6-9.16-11.18-30.03-13.61l-5.81-.69c-33.49-4.01-41.39-2.8-44.51,6.86-5.6,17.38,4.82,32.42,5.27,33.05l12.78,18.09-21.21,6.19c-3.69,1.23-12.67,5.9-10.27,21.16,2.2,14.03,5.88,19.21,7.27,20.73Z"/>
            <path class="cls-11" d="M236.31,1405.77c35.25,14.5,73.2,10.38,106.88-6.21,0,0-2.8,36.51-2.8,36.51-21.24-16.9-49.89-18.35-74.49-9.53-7.99,3.16-16.24,7.6-22.6,15.17l-6.98-35.95h0Z"/>
            <path class="cls-11" d="M242.38,1467.78c29.57,13.25,61.59,14.68,91.46-.04,0,0-7.67,35.81-7.67,35.81-16.36-24.33-52.67-22.65-72.68-4.48-1.38,1.35-2.95,2.86-3.79,4.6l-7.32-35.88h0Z"/>
            <path class="cls-2" d="M427.16,1405.17l.05-.05s0,.05-.05,.16c-.3,3.67-5.38,65.66,53.37,108.74l74.87,85.33,35.1,40.02c47.11-62.23,103.53-217.46,.85-205.43-4.23,.45-8.75,1.22-13.59,2.32,0,0-4.26-7.09-11.38-16.91-7.5-10.39-18.19-23.81-30.5-35.35-23.96-22.53-45.6-68.89-90.47-67.45-44.87,1.44-70.81,41.21-99.47,55.11-15.69,36.31,50.23,69.69,81.22,33.52Z"/>
            <g class="cls-12">
              <path class="cls-11" d="M480.53,1514.02l74.87,85.33c-.58-34.43,15.34-65.3,15.34-65.3,21.56-22.99,22.26-99.18,22.26-99.18l-1.65-.94-24.97-14.59-9.87-5.76c13.38,128.39-89.74,69.77-129.3-8.47l-.05,.05q0,.05,0,.1c-.3,3.67-5.38,65.66,53.37,108.74Z"/>
            </g>
            <path class="cls-11" d="M590.48,1655.04c-4.32,0-8.46-1.78-11.43-4.94l-108.68-115.51c-41.23-30.83-53.98-73.18-57.69-101.3-19.72,6.57-41.82,2.51-58.35-7.8-22.97-14.32-32.13-38.46-22.78-60.07,1.49-3.45,4.17-6.25,7.55-7.89,8.13-3.95,16.93-11.17,26.25-18.82,19.94-16.36,44.75-36.73,79.57-37.85,40.83-1.22,65.11,28.31,84.5,52.12,6.05,7.43,11.77,14.44,17.23,19.56,17.08,16.02,31.05,35.19,38.57,46.36,39.76-5.94,59.17,9.32,68.57,23.89,32.22,49.99-15.2,159.03-50.8,206.04-2.79,3.68-7.06,5.95-11.67,6.2-.28,.01-.56,.02-.83,.02Zm-147.62-248.46c-.25,2.87-5.01,65.28,47.26,103.57,.77,.57,1.49,1.21,2.15,1.9l96.36,102.42c32.68-51.33,56.24-127.59,38.77-154.68-6.96-10.81-22.51-13.57-46.19-8.21-6.64,1.5-13.45-1.43-16.93-7.24-.17-.27-17.08-28.24-39.11-48.9-7-6.56-13.35-14.37-20.09-22.64-17-20.86-33.07-40.59-57.67-40.59-.49,0-.99,0-1.49,.02-24.16,.77-42.71,16.01-60.65,30.73-8.71,7.15-17.03,13.98-25.95,19.28-.37,8.36,8.51,14.66,11.62,16.6,10.76,6.71,31.45,11.2,44.36-3.91,4.45-5.21,11.76-6.93,18.07-4.26,6.29,2.67,10.13,9.1,9.5,15.9Z"/>
            <path class="cls-11" d="M592.61,1431.26c4.94,31.02-3.31,63.62-20.28,89.63-1.32,2.2-4.9,.54-4.07-1.88,3.66-13.45,5.24-27.34,4.14-41.08-.87-11.49-3.35-22.67-7.77-33.16-.55-1.3-1.33-2.97-1.76-3.48-5.91-6.96-5.06-17.4,1.9-23.32,9.02-8.07,24.34-2.92,26.82,8.82,0,0,1.03,4.48,1.03,4.48h0Z"/>
          </g>
          <path class="cls-11" d="M294.34,1204.97l13.96,105.87c.4,2.54-3.45,3.56-4.34,1.14,0,0-39.98-99.02-39.98-99.02-3.27-8.1,.64-17.32,8.75-20.59,9.4-3.95,20.41,2.51,21.61,12.6h0Z"/>
          <path class="cls-11" d="M381.88,1458.76c28.34,68.31,51.33,141.13,77.2,210.46,.56,1.49-1.57,2.77-2.59,1.49-12.59-14.48-23.05-30.67-31.99-47.53-17.81-33.7-30.51-69.93-38.42-107.14-1.18-3.83-12.36-66.57-4.2-57.27h0Z"/>
          <path class="cls-11" d="M345.4,1485.86c-1.28,45.49-13.22,89.53-29.77,131.62-5.84,13.91-12.2,27.7-20.69,40.59-.47,.71-1.42,.91-2.13,.44-.49-.32-.73-.89-.68-1.44,1.48-15.29,4.26-29.97,7.29-44.6,3.16-14.59,6.74-29.04,10.84-43.36,8.43-28.89,17.88-57.19,32.24-83.99,.7-1.37,2.96-.82,2.9,.74h0Z"/>
          <path class="cls-11" d="M394.04,1253.19c-8.56,41.61-29.26,80.25-46.6,118.59-.53,1.37-2.71,1.18-2.98-.27-4.6-22.34,1.72-45.06,10.02-65.5,8.78-20.36,20.21-39.29,36.98-54.33,1.07-.99,2.93,.09,2.58,1.51h0Z"/>
          <path class="cls-6" d="M535.03,1899.26c2.96,92.23-52.38,160.79-144.61,163.75-92.23,2.96-169.39-69.41-172.34-161.64-2.96-92.23,69.41-169.39,161.64-172.34,92.23-2.96,152.35,78,155.31,170.23Z"/>
          <path class="cls-11" d="M402.55,2024.91c-2.93-2.85-5.11-7.64-6.55-14.38-.97-3.88-3.52-5.8-7.66-5.77-14.16,.81-26.38-.17-36.65-2.95-10.27-2.77-18.37-7-24.27-12.68-5.91-5.68-9.49-12.39-10.78-20.15-.93-5.62-.57-11.19,1.08-16.71,1.65-5.51,4.63-10.23,8.95-14.16,4.31-3.93,9.87-6.46,16.67-7.58,5.94-.98,10.95-1.05,15.02-.2,4.07,.86,7.77,2.81,11.11,5.86,3.34,3.05,6.92,7.53,10.74,13.45,4.13,6.51,8.6,10.93,13.4,13.25,4.8,2.32,10.86,2.87,18.19,1.66,8.18-1.36,13.95-4.57,17.31-9.65,3.36-5.09,4.48-11.02,3.35-17.82-.9-5.42-3.46-9.9-7.71-13.46s-9.22-6.41-14.92-8.58c-5.7-2.17-14.07-4.91-25.09-8.21-15-4.28-27.38-8.52-37.11-12.69-9.75-4.17-18.54-10.33-26.37-18.47-7.84-8.14-12.84-18.75-14.99-31.81-2.65-16.03,.24-29.71,8.68-41.03,8.44-11.32,20.47-19.86,36.11-25.61,3.83-1.28,5.42-3.84,4.79-7.66-.96-5.84-.45-10.48,1.55-13.92,1.99-3.44,5.75-5.61,11.28-6.53,8.92-1.47,15.02,3.42,18.3,14.65,.57,2.09,1.44,3.61,2.64,4.55,1.19,.95,2.82,1.42,4.89,1.4,11.56-.05,21.46,1.61,29.71,4.99,8.25,3.39,14.63,7.79,19.12,13.21,4.5,5.42,7.23,11.1,8.22,17.05,1.05,6.37,.54,12.05-1.53,17.02-2.07,4.98-5.25,9-9.54,12.06-4.3,3.06-9.26,5.04-14.89,5.97-8.71,1.44-15.55,.47-20.53-2.91-4.98-3.37-9.25-8.97-12.84-16.77-2.29-5.95-5.2-10.02-8.73-12.22-3.53-2.2-8.53-2.77-15.01-1.7-6.8,1.12-12.05,3.83-15.77,8.09-3.71,4.27-5.08,9.38-4.09,15.32,1.05,6.37,3.99,11.67,8.84,15.88,4.85,4.22,10.56,7.62,17.15,10.18,6.59,2.57,15.61,5.52,27.07,8.86,14.98,4.18,27.35,8.36,37.09,12.52,9.75,4.18,18.48,10.29,26.19,18.34,7.71,8.05,12.66,18.67,14.83,31.83,2.67,16.14-.11,30.18-8.34,42.12-8.23,11.95-21.39,20.94-39.48,26.98-3.94,1.31-5.55,4.03-4.87,8.17,1.24,7.54,1.01,13.03-.71,16.48-1.72,3.44-5.61,5.67-11.66,6.67-5.2,.86-9.27-.14-12.19-2.97Z"/>
          <g class="cls-1">
            <path class="cls-2" d="M110.88,2089.91c-142.44-227.56,6.57-408.24,121.12-505.17-36.23,125.04-208.87,204.66-121.12,505.17Z"/>
          </g>
          <g class="cls-12">
            <path class="cls-11" d="M482.2,1591.84s115.27,97.93,144.17,125.03c28.9,27.11,119.97,211.39-31.15,372.52,0,0-108.4,105.41-302.64,65.29,311.59,5.78,408.85-331.65,189.62-562.85Z"/>
          </g>
        </g>
        <g>
          <path class="cls-6" d="M1659.47,2401.36s-37.91-47.66-43.61-242.23c-5.7-194.58,210.48-8.65,210.48-8.65,0,0-4.16,134.21,30.05,237.47,34.21,103.25-169,70.05-169,70.05"/>
          <g class="cls-10">
            <path class="cls-11" d="M1627.26,2201.94s112.75-15.18,129.86,57.59c17.11,72.77,17.37,150.21,17.37,150.21,0,0,60.17,1.99,51.85-6.33-8.31-8.32-32.67-125.98-28.01-222.49h-182.59"/>
          </g>
          <path class="cls-11" d="M1753.58,2478.92c-33.48,0-62.39-4.4-68.71-5.43-8.55-1.4-14.35-9.46-12.95-18.01,1.4-8.55,9.49-14.35,18.01-12.96,45.83,7.45,126.78,9.61,148.92-16.36,2.44-2.86,9.86-11.56,2.67-33.27-30.38-91.69-31.34-204.79-30.99-235.22-44.65-36.9-121.81-84.8-156.38-68.32-20.07,9.58-23.36,42.99-22.59,69.33,5.38,183.54,40.04,232.69,40.39,233.16,5.4,6.78,4.18,16.53-2.6,21.93-6.79,5.4-16.74,4.15-22.13-2.63-4.21-5.29-41.33-57.35-47.02-251.54-1.52-51.88,12.09-85.05,40.46-98.58,66.11-31.5,182.84,66.32,195.93,77.58,3.59,3.09,5.6,7.64,5.45,12.38-.04,1.31-3.65,132.72,29.26,232.05,10.54,31.83,1.15,52.11-8.59,63.52-22.23,26.05-68.96,32.38-109.12,32.38Z"/>
          <path class="cls-6" d="M1458.27,2150.48s17.63,105.67,54.95,201.66,.52,121.42-6.22,121.42-166.78-21.42-171.71-26.35c-4.92-4.93-36.69-69.12-36.69-69.12,0,0-49.25-135.94-59.1-235.57-9.85-99.62,218.76,7.96,218.76,7.96Z"/>
          <g class="cls-10">
            <path class="cls-11" d="M1260.24,2223.73s74.65-24.13,118.19,0c43.55,24.13,72.32,164.22,72.32,164.22,0,0,56.63,.86,47.99-7.79-8.64-8.64-44.49-108.18-61.21-199.24l-188.7-6.04"/>
          </g>
          <path class="cls-11" d="M1507,2489.25c-5.99,0-60.14-7.36-88.77-11.48-87.13-12.55-89.59-15-94.04-19.46-1.85-1.85-6.74-6.75-39.65-73.26-.26-.53-.49-1.06-.69-1.62-2.04-5.62-50.03-138.94-59.96-239.37-2.65-26.81,8.94-41.01,19.12-48.2,51.78-36.54,193.96,27.26,221.93,40.42,4.66,2.19,7.94,6.53,8.79,11.61,.18,1.04,17.83,105.27,54.1,198.56,27.28,70.16,17.85,107.04,5.13,125.63-7.24,10.58-17.2,17.16-25.98,17.16Zm-161.68-55.18c23.78,5.66,136.09,21.14,158.92,23.52,4.91-4.78,22.22-28.1-5.64-99.77-31.9-82.04-49.39-169.59-54.35-196.54-62.95-28.54-156.98-58.27-183.14-39.79-2.02,1.43-7.4,5.23-6,19.48,9.16,92.57,53.91,219.63,57.95,230.96,12.06,24.35,26.49,52.38,32.25,62.13Z"/>
          <g>
            <path class="cls-2" d="M1894.76,2445.55c125.38-58.95,253.78,49.79,212.02,184.35-5.67,18.27-22.94,30.47-42.05,30.47h-357.15c-22.1,0-41.64-14.87-46.99-36.33-20.87-83.72-20.87-234.52-20.87-234.52,68.43,50.85,212.88,32.57,222.91-24.91,0,0,32.14-10.51,32.14,80.94Z"/>
            <g class="cls-10">
              <path class="cls-11" d="M1856.4,2387.95s12.7,42.81,5.7,66.41c-7,23.61-52.37,57.59-52.37,51.37s19.19-68.49-21.24-80.42"/>
            </g>
            <path class="cls-11" d="M2064.72,2676.05h-357.15c-29.56,0-55.14-19.83-62.22-48.23-21.09-84.61-21.33-232.08-21.33-238.31s3.34-11.35,8.64-14.02c5.3-2.66,11.65-2.11,16.4,1.43,42.2,31.36,119.02,33.1,164.29,15.04,19.79-7.9,31.8-18.57,33.81-30.05,1-5.72,5.06-10.42,10.58-12.22,2.25-.74,14.04-3.93,26.57,5.16,14.62,10.6,22.99,32.9,25.4,67.87,58.23-19.21,119.61-8.05,164.62,31.12,50.27,43.75,68.44,112.99,47.43,180.71-7.71,24.83-30.63,41.51-57.04,41.51Zm-408.92-258.98c1.09,47.04,5.12,143.49,20,203.17,3.58,14.39,16.65,24.44,31.77,24.44h357.15c12.39,0,23.52-7.99,27.08-19.43,17.53-56.51,3.31-111.74-38.06-147.74-41.13-35.79-99.49-42.58-152.31-17.75-4.85,2.29-10.55,1.93-15.08-.95-4.54-2.88-7.28-7.88-7.28-13.25,0-34.31-4.74-50.96-8.56-58.8-8.82,14.08-24.39,25.93-45.53,34.37-46.11,18.39-116.58,20.21-169.17-4.04Zm254.64,28.48h0Z"/>
            <path class="cls-11" d="M1900.05,2460.31c-39.36,12.42-76,36.76-101.43,69.54-9.05,11.05-15.73,23.76-22.02,36.8-.99,2.57-5.08,1.27-4.24-1.47,11.82-44.06,40.69-82.24,76.9-109.67,12.79-9.51,25.56-17.97,40.24-24.76,20.83-8.36,32.03,22.81,10.54,29.56h0Z"/>
            <g class="cls-10">
              <path class="cls-11" d="M2003.62,2458s81.26,32.56,81.26,107.92-27.99,66.03-27.99,66.03c0,0-356.01,.53-350.83,.37,273.71-8.28,444.99-56.71,297.56-174.32Z"/>
            </g>
          </g>
          <g>
            <path class="cls-2" d="M1202.7,2660.36c-105.41-83.82-59.1-205.47,88.13-205.47,0,0-7-18.16-12.96-50.85-5.96-32.69,20.74-25.94,20.74-25.94,14.18,51.39,208.91,45.14,214.62-25.94,0,0,22.29-8.17,41.73,57.59,19.44,65.77,55.21,209.62,14.26,250.61h-366.51Z"/>
            <g class="cls-10">
              <path class="cls-11" d="M1507,2387.95s31.36,56.04,46.79,164.22c0,0,9.46,65.64-13.61,74.46h-291.34c166.35-6.81,244.68-46.18,216.65-119.34,0,0,41.51-67.45-4.11-92.88"/>
            </g>
            <path class="cls-11" d="M1569.2,2676.05h-366.5c-3.55,0-6.99-1.2-9.77-3.41-53.32-42.4-74.78-97.42-57.41-147.18,16.85-48.28,67.4-79.96,134.3-85.42-2.3-8.57-4.94-19.72-7.4-33.19-2.97-16.29-.04-28.7,8.7-36.88,12.26-11.47,29.39-7.57,31.31-7.08,5.47,1.38,9.78,5.6,11.28,11.04,3.34,12.1,43.17,26.38,97.99,21.16,48.84-4.63,84.15-22.8,85.86-44.18,.49-6.1,4.49-11.37,10.24-13.48,2.37-.87,10.97-3.28,21.92,2.24,16.48,8.29,29.65,29.76,40.25,65.64,28.77,97.32,53.92,222.5,10.31,266.15-2.94,2.94-6.93,4.6-11.1,4.6Zm-360.91-31.38h353.51c19.48-29.73,11.26-118.29-21.9-230.48-6.36-21.52-12.6-33.22-17.23-39.53-16.81,31.72-64.11,47.49-107.99,51.65-46.55,4.42-99.36-2.85-121.73-27.27,.09,.66,.2,1.39,.35,2.17,5.57,30.56,12.11,47.88,12.17,48.05,1.84,4.82,1.2,10.25-1.73,14.5-2.93,4.25-7.75,6.8-12.92,6.8-63.47,0-111.63,25-125.67,65.23-12.35,35.37,3.76,75.76,43.14,108.87Z"/>
            <path class="cls-11" d="M1289.9,2439.22c62.73,2.14,125.64,22.69,175.3,61.26,16.63,12.26,30.48,27.67,43.49,43.22,1.75,2.04-1.28,5.01-3.26,3.06-41.59-42.58-98.1-67.64-156.72-74.76-18.5-2.08-38.89-3.27-57.26-1.42-21.82,1.51-23.54-30.65-1.55-31.35h0Z"/>
          </g>
        </g>
      </g>
      <g>
        <path class="cls-6" d="M2310.52,2075.09l-315.43,73.67-31.71,1.73-159.26,8.63-766.32-84.02c-153.35-599.31,5.91-1363.8,270.8-1970.65,0,0,363.2-39.66,816.49,37.88,135.72,23.18,279.54,56.92,424.1,105.32,0,0,22.6,187.56,107.41,319.09-236.59,378.27-493.63,803.41-346.09,1508.36Z"/>
        <g class="cls-10">
          <path class="cls-11" d="M2310.52,2075.09l-315.43,73.67-31.71,1.73c2.41-86.43-3.24-299.42-3.24-299.42,46.62-849.3,414.37-1382.48,523.3-1569.47l-377.01-107.46s6.59-12.5,18.68-31.81c135.72,23.18,279.54,56.92,424.1,105.32,0,0,22.6,187.56,107.41,319.09-236.59,378.27-493.63,803.41-346.09,1508.36Z"/>
        </g>
        <path class="cls-11" d="M1804.13,2174.83c-.57,0-1.14-.03-1.71-.09l-766.3-84.06c-6.49-.71-11.87-5.38-13.49-11.71-72.85-284.64-80.18-617.33-21.76-988.82,51.43-327.09,152.88-670.12,293.36-992.01,2.25-5.16,7.09-8.72,12.68-9.32,6.17-.68,623.93-64.9,1247.3,143.93,5.75,1.92,9.87,6.99,10.6,13,.22,1.84,23.19,185.61,105.01,312.48,3.3,5.11,3.34,11.67,.12,16.83-230.85,369.07-492.51,787.39-344.03,1496.8,1.75,8.35-3.49,16.56-11.79,18.5l-315.47,73.68c-.89,.21-1.8,.34-2.72,.39l-190.94,10.38c-.28,.01-.57,.02-.85,.02Zm-753.75-114.17l754.18,82.73,188.28-10.23,299.24-69.89c-63.21-312.4-52.56-596.99,32.46-869.55,76.94-246.65,207.29-457.05,313.55-626.96-71.54-116.2-97.29-267.16-103.12-307.33C1962.36,70.09,1396.97,112.19,1319.32,119.16c-299.75,690.79-399.98,1414.82-268.94,1941.5Z"/>
        <path class="cls-11" d="M2106.92,172.34c87.75,21.98,196.4,51.86,284.41,74.9,0,0,94.63,25.57,94.63,25.57,5.73,1.48,8.51,8.37,5.4,13.41-17.25,30.54-35.33,60.32-52.92,90.38-272.86,451.55-435.88,948.06-476.41,1474.58-.07,1.04-.99,1.82-2.02,1.73-1-.09-1.75-.95-1.71-1.94,1.4-30.86,2.62-74.47,5.19-104.59,28.93-454.36,172.06-899.02,403.14-1290.66,35.22-60.39,72.79-119.46,108.92-178.72l5.4,13.41c-83.73-24.81-197.91-59.89-281.43-85.38-31.28-9.46-62.42-19.38-93.63-29.1-.98-.31-1.54-1.36-1.23-2.34,.3-.96,1.29-1.5,2.25-1.25h0Z"/>
        <path class="cls-11" d="M2580.95,359.45c-48.69,73.5-94.63,149.04-139.04,225.27-1.08,1.92-4.37,.46-3.31-1.74,18.91-39.99,38.33-79.77,58.25-119.32,20.06-39.65,40.33-78.87,61.79-117.89,9.17-15.48,31.97-1.63,22.3,13.68h0Z"/>
        <path class="cls-11" d="M2595.26,435.59c-42.2,59.61-83.92,119.84-122.62,181.85-1.14,1.94-4.34,.3-3.28-1.8,16.07-32.97,33.15-65.47,50.53-97.78,17.44-32.3,35.16-64.38,53.33-96.38,3.57-6.29,11.57-8.49,17.86-4.92,6.74,3.77,8.71,12.78,4.17,19.03h0Z"/>
        <path class="cls-11" d="M2117.49,2113.3c-5.2-93.17-5.21-186.36-1.69-279.5,.04-1.03,.91-1.83,1.94-1.79,.98,.04,1.75,.83,1.8,1.79,1.92,46.39,4.85,92.69,8.81,138.87,3.98,46.01,8.8,92.38,15.18,137.99,1.99,17.78-24.38,20.57-26.03,2.63h0Z"/>
        <path class="cls-11" d="M2066.83,2120.49c1.12-43.31,3.03-86.36,5.58-129.47,2.63-43.07,5.95-86.13,11.09-128.96,.12-1.03,1.05-1.76,2.08-1.63,.97,.12,1.67,.97,1.65,1.93-1.4,42.98-.97,85.96,.13,128.92,1.19,42.96,3.02,86,5.64,128.76,.56,17.94-26.06,18.52-26.16,.46h0Z"/>
        <path class="cls-11" d="M2320.07,898.11c-59.54,204.17-109.93,410.96-134.06,622.43-1.96,21.21-4.16,44.78-6.8,65.92-.1,1.27-1.25,2.23-2.52,2.06-1.08-.13-1.88-1.02-1.96-2.06-1.12-14.75-1.89-29.55-2.6-44.38-5.52-163.27,25.85-326.51,76.33-481.25,18.94-56.17,40.4-111.55,67.48-164.43,.57-1.11,1.92-1.54,3.03-.98,1,.51,1.45,1.66,1.12,2.69h0Z"/>
        <g>
          <path class="cls-6" d="M1268.14,15.69s534.69,1.56,1014.9,73.16c0,0,5.39,94.99,78.85,194.69,23.62,32.05,24.81,75.36,2.24,108.17-277.87,403.91-437.71,1175.02-402.27,1771.58-421.71,21.24-820.4,14.33-1189.24-29.06C672.86,1507.04,837.74,349.29,1268.14,15.69Z"/>
          <g class="cls-1">
            <path class="cls-2" d="M1311.35,43.38c122.1,2.07,562.88,12.93,848.47,64.15l-835.37-41.65c-24.86-1.24-48.83,9.31-64.88,28.34-209.13,248.06-269.89,454.26-372.28,718.97,55.17-300.85,228.98-610.97,365.93-746.44,15.46-15.29,36.38-23.74,58.12-23.37Z"/>
          </g>
          <path class="cls-4" d="M2283.05,346.21c-291.21,452.45-423.52,992.86-433.25,1601.22-84.34-61.47-171.5,35.05-117.77,99.62-319.88,8.58-734.72-59.12-734.72-59.12,8.53-180.61-145.81-142.2-145.81-142.2-95.12-414.79,115.42-1326.18,374.45-1645.22,64.46,53.63,207.44,19.67,200.85-81.93,189.81,6.02,577.65,24.38,784.11,77.17l72.15,150.47Z"/>
          <path class="cls-11" d="M1515.19,2190.72c-266.06,0-512.14-13.58-744.41-40.91-6.98-.82-12.56-6.18-13.67-13.12-51.08-321.16-32.28-771.36,49.07-1174.93C899.83,497.18,1060.47,156.79,1258.52,3.29c2.76-2.14,6.14-3.34,9.66-3.29,5.36,.01,541.34,2.37,1017.17,73.33,7.36,1.09,12.93,7.21,13.35,14.63,.05,.88,6.28,91.89,75.82,186.26,27.68,37.56,28.7,88.34,2.53,126.37-264.59,384.6-436.35,1141.99-399.53,1761.75,.25,4.18-1.19,8.29-3.98,11.41-2.79,3.12-6.72,4.99-10.9,5.2-155.55,7.84-304.4,11.76-447.46,11.76Zm-728.9-70.7c343.38,39.58,733.15,49.11,1159.01,28.37-15.62-292.36,14.41-627.74,84.88-946.53,74.03-334.87,188.04-625.75,321.02-819.05,18.58-27.01,17.8-63.16-1.95-89.96-60.29-81.84-76.38-160.12-80.52-190.24C1823.92,37.49,1330.53,31.86,1273.51,31.42c-419.8,332.21-581.33,1469.82-487.22,2088.59Z"/>
          <path class="cls-11" d="M1674.68,2063.49c-308.05,0-675.98-59.43-679.89-60.06-7.87-1.29-13.53-8.27-13.15-16.24,2.45-51.95-8.96-88.73-33.94-109.32-36.46-30.07-91.89-17.04-92.45-16.9-4.08,1.01-8.41,.31-11.98-1.89-3.57-2.21-6.13-5.75-7.07-9.84-45.02-196.31-24.67-519.87,54.41-865.53,78.82-344.47,199.62-640.96,323.14-793.1,2.65-3.26,6.48-5.32,10.66-5.73,4.19-.41,8.34,.87,11.57,3.55,31.02,25.8,86.23,29.06,128.43,7.57,18.69-9.51,49.6-32.08,46.72-76.42-.28-4.41,1.3-8.75,4.38-11.93,3.08-3.18,7.43-4.91,11.78-4.78,206.25,6.54,582.82,25.32,787.49,77.65,4.5,1.15,8.26,4.23,10.27,8.42l72.14,150.47c2.36,4.92,2,10.7-.95,15.28-279.66,434.51-420.56,955.58-430.76,1592.97-.09,5.86-3.44,11.18-8.69,13.8-5.24,2.62-11.5,2.09-16.25-1.36-39.27-28.62-74.66-15.9-93.04,3.7-16.97,18.1-24.61,47.74-3.42,73.2,3.84,4.62,4.71,11.03,2.24,16.51-2.48,5.48-7.87,9.06-13.88,9.22-18.95,.51-38.24,.75-57.77,.75Zm-661.33-88.93c71.61,11.03,413.52,61.06,691.83,57.33-11.3-29.9-4.65-63.86,19.44-89.56,24.7-26.34,66.25-40.74,109.99-21.72,6.64-300.97,43.98-582.17,111.09-836.27,71.4-270.38,178.86-519.05,319.42-739.24l-65.18-135.94c-198.08-48.94-552.17-67.52-757.62-74.38-3.23,37.98-25.76,69.91-63.66,89.2-48.19,24.53-108.39,23.11-149.64-2.07-117.48,151.82-231.95,437.35-307.79,768.8-76.16,332.85-97.39,643.88-57.55,837.08,23.59-2.73,68.68-3.12,103.8,25.69,30.61,25.11,46.02,65.81,45.88,121.08Z"/>
          <ellipse class="cls-6" cx="1602.03" cy="445.31" rx="165.78" ry="132.31"/>
          <ellipse class="cls-6" cx="1308.61" cy="1718.76" rx="165.78" ry="132.31"/>
          <path class="cls-11" d="M1712.56,481.71c-3.31,1.24-7.85,1.17-13.64-.2-3.39-.67-5.83,.61-7.33,3.85-4.59,11.35-9.87,20.52-15.83,27.52-5.96,7-12.24,11.75-18.85,14.26-6.61,2.51-13.18,2.83-19.71,.97-4.73-1.35-8.95-3.69-12.64-7.01-3.69-3.32-6.28-7.39-7.75-12.21-1.48-4.82-1.4-10.09,.23-15.81,1.43-5,3.22-8.94,5.39-11.8,2.17-2.86,5.06-5.03,8.67-6.51s8.43-2.62,14.46-3.42c6.61-.82,11.71-2.67,15.29-5.57,3.58-2.89,6.25-7.42,8.01-13.59,1.96-6.88,1.59-12.57-1.14-17.07-2.73-4.5-6.95-7.56-12.67-9.2-4.56-1.3-9.01-.95-13.35,1.05-4.34,2-8.41,4.83-12.2,8.48-3.8,3.65-9.02,9.17-15.67,16.55-8.88,10.13-16.75,18.22-23.6,24.29-6.85,6.07-14.91,10.66-24.15,13.76-9.25,3.11-19.37,3.1-30.36-.04-13.49-3.85-23.1-11.16-28.82-21.92-5.72-10.77-7.94-23.31-6.66-37.63,.41-3.46-.99-5.65-4.21-6.57-4.91-1.4-8.34-3.52-10.29-6.34s-2.26-6.56-.93-11.21c2.15-7.51,8.21-10.46,18.19-8.87,1.84,.33,3.35,.21,4.53-.38,1.18-.58,2.15-1.68,2.9-3.3,4.22-9.04,9.18-16.15,14.86-21.35,5.69-5.19,11.48-8.54,17.37-10.05,5.89-1.51,11.34-1.55,16.35-.12,5.36,1.53,9.6,4.03,12.72,7.48,3.12,3.45,5.09,7.42,5.89,11.9,.8,4.48,.52,9.09-.84,13.82-2.09,7.33-5.37,12.31-9.85,14.95-4.47,2.64-10.41,3.91-17.83,3.83-5.49-.41-9.74,.36-12.76,2.3-3.02,1.94-5.31,5.64-6.87,11.09-1.63,5.72-1.46,10.82,.49,15.29,1.96,4.47,5.45,7.42,10.45,8.85,5.36,1.53,10.58,1.19,15.66-1.03,5.08-2.22,9.84-5.43,14.28-9.63,4.44-4.19,10.07-10.15,16.91-17.86,8.79-10.15,16.62-18.26,23.46-24.33,6.86-6.06,14.85-10.62,23.98-13.67,9.13-3.05,19.24-2.99,30.32,.17,13.58,3.88,23.52,11.23,29.8,22.06,6.29,10.83,8.45,24.42,6.49,40.77-.43,3.55,1.1,5.82,4.58,6.82,6.35,1.81,10.54,4.02,12.6,6.64,2.05,2.62,2.35,6.47,.9,11.56-1.25,4.38-3.53,7.18-6.82,8.42Z"/>
          <path class="cls-11" d="M1791.88,669.48c-29.35-9.67-54.82,25.06-27.55,49.09,5.58,4.92,12.52,8.11,19.73,9.94,22.93,5.8,33.58,13.29,43,27.41,2.77,4.16,9.35,2.54,9.72-2.45,1.93-25.96-7.82-51.18-31.71-75.51-3.7-3.76-8.18-6.83-13.19-8.48Z"/>
          <path class="cls-11" d="M1231.5,589.62c29.34,9.7,29.14,52.77-7.07,55.85-7.42,.63-14.89-.93-21.77-3.76-21.88-8.98-34.9-9.31-50.87-3.57-4.71,1.69-9.02-3.52-6.35-7.75,13.89-22.01,36.74-36.47,70.42-41.81,5.21-.83,10.64-.62,15.65,1.04Z"/>
          <circle class="cls-6" cx="1446.67" cy="1031.67" r="341.97"/>
          <g>
            <path class="cls-2" d="M1075.64,1406.77s21.66,92.75,62.52,113.37c40.86,20.62,137.03-86.05,137.03-86.05l135.4,14.63s47.45,108.39,99.21,113.06c51.76,4.67,137.76-88.73,137.76-88.73,0,0-394.73-129.07-571.92-66.29Z"/>
            <path class="cls-11" d="M1513.39,1577.64c-1.68,0-3.35-.07-5-.22-51.95-4.68-94.97-85.95-108.34-114.04l-118.64-12.81c-29.62,31.88-105.53,106.2-150.31,83.6-46.07-23.26-68.35-113.59-70.74-123.82-1.82-7.78,2.5-15.69,10.04-18.36,180.19-63.84,565.72,60.82,582.05,66.16,5.08,1.66,8.96,5.79,10.31,10.95,1.35,5.17-.02,10.67-3.64,14.59-9.08,9.85-88.21,93.95-145.72,93.95Zm-238.2-159.24c.56,0,1.12,.03,1.68,.09l135.4,14.62c5.59,.61,10.43,4.16,12.69,9.31,16.95,38.62,55.35,100.94,86.25,103.73,26.73,2.28,74.01-33.92,107.09-65.71-85.41-25.59-373.73-105.27-523.66-63.22,9.74,33.25,28.91,77.97,50.6,88.91,17.76,8.97,76.6-36.3,118.3-82.54,2.99-3.32,7.24-5.19,11.66-5.19Z"/>
            <path class="cls-7" d="M1370.47,1493.94l75.64,448.3-133.87,132.83-149.43-121.41s70.57-316.87,141.65-477.54l66.01,17.82Z"/>
            <path class="cls-11" d="M1312.24,2090.77c-3.49,0-7-1.16-9.89-3.52l-149.43-121.42c-4.61-3.75-6.71-9.79-5.42-15.6,2.9-13,71.72-320.23,142.62-480.48,3.14-7.08,10.98-10.83,18.45-8.8l66.01,17.82c5.92,1.6,10.37,6.49,11.39,12.54l75.64,448.3c.85,5.03-.8,10.16-4.42,13.75l-133.87,132.83c-3.04,3.02-7.05,4.56-11.06,4.56Zm-131.96-143.14l130.92,106.37,118.08-117.17-72.62-430.36-43.18-11.66c-61.03,144.69-121.22,400.59-133.21,452.81Z"/>
            <path class="cls-7" d="M1275.19,1434.1s-14.42,49.99,23.04,72.95c34.18,20.95,85.53,17.74,112.36-58.32l-135.4-14.63Z"/>
            <path class="cls-11" d="M1335.79,1533.8c-15.5,0-31.34-4.53-45.76-13.37-47.11-28.88-30.64-88.17-29.92-90.68,2.12-7.33,9.21-12.07,16.77-11.25l135.4,14.62c4.77,.52,9.04,3.18,11.6,7.24,2.55,4.06,3.12,9.06,1.52,13.58-17.58,49.87-44.53,68.58-64.04,75.5-8.2,2.92-16.83,4.35-25.56,4.35Zm-47.54-82.5c-.88,12.79,1.11,31.9,18.19,42.36,8.48,5.2,25.52,12.91,44.41,6.2,14.57-5.17,27.2-18.1,37.11-37.79l-99.72-10.77Z"/>
          </g>
          <g>
            <path class="cls-2" d="M2377.07,1159.35c-2.67,9.36-5.28,19.1-7.85,28.98-21.82,83.92-40.55,183.17-51.22,243.96-1.78,10.15-3.35,19.2-4.66,26.94-2.93,17.27-17.47,30.19-34.95,31.08l-313.29,16.53c-7.32,.37-14.7,.16-22.03-.63l-1204.18-130.07c0-18.57,.52-37.57,1.41-56.77,8.06-165.43,47.92-348.76,69.74-439.06,8.63-35.58,14.44-56.77,14.44-56.77,604.76,0,1134.96,106.73,1248.02,131.06,14.49,3.09,28.41,8.58,41.18,16.17l246.48,146.07c14.6,8.68,21.56,26.11,16.9,42.48Z"/>
            <path class="cls-7" d="M2318,1432.3c-1.78,10.15-3.35,19.2-4.66,26.94-2.93,17.27-17.47,30.19-34.95,31.08l-313.29,16.53c-7.32,.37-14.7,.16-22.03-.63l-1204.18-130.07c0-18.57,.52-37.57,1.41-56.77h13.92l1204.18,130.07c7.32,.78,14.7,.99,22.03,.63l337.56-17.79Z"/>
            <path class="cls-7" d="M2377.07,1159.35c-2.67,9.36-5.28,19.1-7.85,28.98-2.15,.16-3.3,.21-3.3,.21l-271.59-160.99c-12.77-7.59-26.63-13.03-41.18-16.17-112.7-24.28-640.39-130.48-1243.1-131.06,8.63-35.58,14.44-56.77,14.44-56.77,604.76,0,1134.96,106.73,1248.02,131.06,14.49,3.09,28.41,8.58,41.18,16.17l246.48,146.07c14.6,8.68,21.56,26.11,16.9,42.48Z"/>
            <circle class="cls-6" cx="1132.21" cy="1097.8" r="113.12"/>
            <path class="cls-11" d="M1957.9,1522.74c-5.52,0-11.05-.29-16.5-.88l-1204.18-130.08c-7.97-.86-14.01-7.59-14.01-15.61,0-240.61,85.31-553.62,86.18-556.75,1.87-6.82,8.07-11.54,15.13-11.54,610.08,0,1149.38,109.46,1251.3,131.4,16.16,3.47,31.6,9.53,45.88,18l246.46,146.12c20.7,12.27,30.59,37.03,24.03,60.21-28.96,102.52-53.97,242.72-63.38,298.24-4.18,24.69-24.58,42.86-49.61,44.17l-313.24,16.51c-2.68,.14-5.37,.21-8.06,.21Zm-1203.21-160.65l1190.08,128.56c6.46,.7,13.03,.88,19.55,.54l313.24-16.51c10.25-.54,18.6-7.97,20.32-18.07,9.49-56.02,34.74-197.54,64.12-301.53,2.68-9.5-1.36-19.65-9.83-24.67l-246.47-146.12c-11.36-6.74-23.63-11.55-36.47-14.31-100.7-21.68-630.71-129.25-1232.63-130.68-14.9,57.12-79.05,314.68-81.89,522.8Z"/>
            <path class="cls-11" d="M1107.36,1230.23c-2.13-3.49-3.06-8.67-2.79-15.56,.02-4-1.98-6.49-6-7.49-13.92-2.72-25.51-6.69-34.78-11.93-9.27-5.23-16.06-11.32-20.37-18.29-4.32-6.96-6.13-14.36-5.45-22.19,.49-5.68,2.22-10.99,5.19-15.92,2.96-4.93,7.02-8.77,12.18-11.5,5.15-2.74,11.16-3.81,18.02-3.22,6,.52,10.87,1.69,14.6,3.53,3.73,1.84,6.83,4.64,9.32,8.43,2.48,3.78,4.84,9.01,7.07,15.69,2.39,7.33,5.62,12.72,9.7,16.15,4.08,3.43,9.82,5.47,17.21,6.11,8.26,.71,14.64-.97,19.16-5.06,4.51-4.1,7.07-9.57,7.66-16.44,.47-5.47-.9-10.45-4.13-14.95-3.23-4.5-7.34-8.5-12.33-12-4.99-3.51-12.42-8.24-22.27-14.17-13.47-7.87-24.41-15.03-32.82-21.48-8.41-6.45-15.41-14.6-20.98-24.43-5.58-9.83-7.8-21.34-6.65-34.53,1.4-16.19,7.59-28.73,18.57-37.61,10.98-8.87,24.75-14.17,41.32-15.87,4.02-.29,6.2-2.37,6.54-6.24,.51-5.89,2.16-10.26,4.94-13.1s6.96-4.01,12.54-3.53c9.01,.78,13.7,7.03,14.1,18.73,.03,2.17,.5,3.85,1.43,5.06,.92,1.21,2.38,2.07,4.39,2.57,11.21,2.81,20.39,6.87,27.55,12.19,7.15,5.33,12.24,11.17,15.25,17.53,3.01,6.36,4.26,12.55,3.74,18.56-.56,6.43-2.46,11.8-5.69,16.11-3.24,4.31-7.32,7.42-12.23,9.32-4.92,1.9-10.22,2.59-15.9,2.1-8.8-.76-15.18-3.39-19.17-7.9-3.99-4.5-6.75-10.98-8.28-19.43-.75-6.33-2.56-11-5.43-14-2.87-3.01-7.58-4.79-14.12-5.36-6.86-.59-12.62,.72-17.28,3.93-4.65,3.22-7.24,7.83-7.76,13.83-.56,6.44,.98,12.3,4.63,17.58,3.65,5.29,8.34,9.99,14.09,14.11,5.75,4.12,13.76,9.21,24.04,15.29,13.48,7.75,24.43,14.87,32.83,21.31,8.41,6.46,15.35,14.54,20.83,24.25,5.48,9.71,7.64,21.22,6.49,34.52-1.41,16.3-7.58,29.22-18.51,38.75-10.93,9.54-25.91,14.99-44.93,16.37-4.14,.29-6.38,2.53-6.74,6.71-.66,7.61-2.25,12.88-4.77,15.79-2.52,2.91-6.84,4.1-12.95,3.58-5.25-.45-8.95-2.43-11.08-5.9Z"/>
            <path class="cls-11" d="M1289.93,1175.36s36.31,16.8,89.6,16.8c22.36,0,47.71-2.95,74.62-11.35-12.66,86.86-52.14,121.49-89.58,121.49-46.59,0-90.01-53.62-74.65-126.94m.04-26.12c-4.07,0-8.13,.94-11.84,2.82-7.07,3.59-12.18,10.17-13.81,17.93-9.5,45.33-.39,89.25,24.99,120.5,19.6,24.13,47.03,37.97,75.27,37.97,45.68,0,100-37.8,115.46-143.88,1.3-8.9-2.07-17.83-8.9-23.67-4.8-4.1-10.84-6.26-16.98-6.26-2.61,0-5.23,.39-7.79,1.19-21.62,6.75-44.11,10.17-66.83,10.17-46.25,0-78.4-14.28-78.72-14.43-3.44-1.56-7.14-2.33-10.83-2.33h0Z"/>
            <path class="cls-11" d="M1281.74,1218.19c17.01,12.94,37.06,23.24,58.16,27.71,6.91,5.88-31.79-1.31-34.01-2.45-11.38-3.03-21.92-6.76-32.66-12.08-3.89-1.96-5.46-6.7-3.5-10.6,2.18-4.47,8.2-5.75,12.02-2.59h0Z"/>
            <circle class="cls-6" cx="1675.51" cy="1155.33" r="113.12"/>
            <path class="cls-11" d="M1455.85,1245.16c-28.35,3.33-57.1,6.57-85.5,2.48-1.32-.21-1.14-2.29,.22-2.23,27.85-.44,55.29-8.05,81.91-15.59,10.81-2.87,14.42,13.4,3.36,15.34h0Z"/>
            <ellipse class="cls-4" cx="1084.07" cy="1271.57" rx="35.32" ry="60.32" transform="translate(-323.04 2172.77) rotate(-82.19)"/>
            <path class="cls-11" d="M1650.66,1287.77c-2.13-3.49-3.06-8.67-2.79-15.56,.02-4-1.98-6.49-6-7.49-13.92-2.72-25.51-6.69-34.78-11.93-9.27-5.23-16.06-11.32-20.37-18.29-4.32-6.96-6.13-14.36-5.45-22.19,.49-5.68,2.22-10.99,5.19-15.92,2.96-4.93,7.02-8.77,12.18-11.5,5.15-2.74,11.16-3.81,18.02-3.22,6,.52,10.87,1.69,14.6,3.53,3.73,1.84,6.83,4.64,9.32,8.43,2.48,3.78,4.84,9.01,7.07,15.69,2.39,7.33,5.62,12.72,9.7,16.15,4.08,3.43,9.82,5.47,17.21,6.11,8.26,.71,14.64-.97,19.16-5.06,4.51-4.1,7.07-9.57,7.66-16.44,.47-5.47-.9-10.45-4.13-14.95-3.23-4.5-7.34-8.49-12.33-12-4.99-3.51-12.42-8.24-22.27-14.17-13.47-7.87-24.41-15.03-32.82-21.48-8.41-6.45-15.41-14.6-20.98-24.43-5.58-9.83-7.8-21.34-6.65-34.53,1.4-16.19,7.59-28.73,18.57-37.61,10.98-8.87,24.75-14.17,41.32-15.87,4.02-.29,6.2-2.37,6.54-6.24,.51-5.89,2.16-10.26,4.94-13.1s6.96-4.01,12.54-3.53c9.01,.78,13.7,7.03,14.1,18.73,.03,2.17,.5,3.85,1.43,5.06,.92,1.21,2.38,2.07,4.39,2.57,11.21,2.81,20.39,6.87,27.55,12.19,7.15,5.33,12.24,11.17,15.25,17.53,3.01,6.36,4.26,12.55,3.74,18.56-.56,6.43-2.46,11.8-5.69,16.11-3.24,4.31-7.32,7.42-12.23,9.32-4.92,1.9-10.22,2.59-15.9,2.1-8.8-.76-15.18-3.39-19.17-7.9-3.99-4.5-6.75-10.98-8.28-19.43-.75-6.33-2.56-11-5.43-14-2.87-3.01-7.58-4.79-14.12-5.36-6.86-.59-12.62,.72-17.28,3.93-4.65,3.22-7.24,7.83-7.76,13.83-.56,6.44,.98,12.3,4.63,17.58,3.65,5.29,8.34,9.99,14.09,14.11,5.75,4.12,13.76,9.21,24.04,15.29,13.48,7.75,24.43,14.87,32.83,21.31,8.41,6.46,15.35,14.54,20.83,24.25,5.48,9.71,7.64,21.22,6.49,34.52-1.41,16.3-7.58,29.22-18.51,38.75-10.93,9.54-25.91,14.99-44.93,16.37-4.14,.29-6.38,2.53-6.74,6.71-.66,7.61-2.25,12.88-4.77,15.79-2.52,2.91-6.84,4.1-12.95,3.58-5.25-.45-8.95-2.43-11.08-5.9Z"/>
            <ellipse class="cls-4" cx="1627.38" cy="1329.11" rx="35.32" ry="60.32" transform="translate(89.43 2760.75) rotate(-82.19)"/>
          </g>
          <path class="cls-6" d="M2283.04,447.39c-4.75-102.41-129.97-120.54-246.46-144.76l179.53-186.79,77.83,153.58c45.24,71.76,15.59,124.46-10.9,177.97Z"/>
          <path class="cls-11" d="M2217.73,117.39c-52.47,68.87-110.51,133.2-169.9,196.05,0,0-8.07-26.08-8.07-26.08,50.97,10.44,102.53,19.8,151.39,39.83,36.49,14.91,75.83,40.4,89.14,80.25,4.44,13.04,6.01,26.69,5,39.85-.09,1.24-1.16,2.18-2.41,2.1-1.06-.07-1.9-.89-2.07-1.89-7.84-53.87-51.5-80.55-98.94-95.54-48.09-15.52-98.85-23.25-148.65-34.1-11.74-2.17-16.35-17.79-7.88-26.04,45.17-46.46,91.58-91.79,139.83-135.11,16.17-14.4,32.41-28.74,49.32-42.43,1.95-1.6,4.85,1.03,3.23,3.11h0Z"/>
          <path class="cls-11" d="M2087.53,1006.6c-12.25,113.86-38.7,225.08-69.38,335.13-10.69,36.53-21.76,72.97-35.53,108.85-.82,2.31-4.66,1.6-4.38-.98,10.19-114.13,35.7-225.94,67.49-335.77,10.99-36.48,22.77-72.77,37.44-108.32,.88-2.28,4.69-1.49,4.35,1.08h0Z"/>
          <g class="cls-8">
            <path class="cls-11" d="M2283.04,88.85s-84.71,105.72-171.74,192.76c128.15,30.49,207.23,79.78,190.42,165.78,0,0,105.5-76.77,71.69-143.19-33.81-66.43-90.37-134.92-90.37-215.34Z"/>
          </g>
          <g class="cls-8">
            <path class="cls-11" d="M2113.69,970.77c-71.5,176.67-111.63,352.79-120.69,528.36l285.38-8.79s34.96-31.15,34.97-31.12c0,.02,65.05-312.82,65.05-312.82l-18.23-29.51"/>
          </g>
          <g class="cls-12">
            <path class="cls-11" d="M1350.64,1541.68l59.95,380.85-101.98,104.86-48.25-36.17c101.17-41.01,108.41-225.84,90.28-449.53Z"/>
          </g>
        </g>
      </g>
      <g>
        <g>
          <path class="cls-6" d="M2499.02,1744.75l-10.2,76.96c-145.6,12.09-330.45-7.85-384.28-99.56-9.93-27.78-16.44-54.53,6.02-72.51,0,0,30.29-34.9,91.61-21.5,61.32,13.45,203.42-5.55,203.42-5.55l93.44,122.17Z"/>
          <g class="cls-12">
            <path class="cls-11" d="M2104.56,1690.59s99.54,92.27,320.9,64.23l14.59,22.97-22.45,26.04c-154.1,0-300.2-40.16-313.04-113.24Z"/>
          </g>
          <path class="cls-11" d="M2108.87,1648.14c19.25-28.63,58.67-38.79,92.07-33.14,0,0,9.26,1.17,9.26,1.17,26.86,3.47,54.62,1.94,81.86,.72,26.18-1.32,86.6-6.48,113.49-8.34,4.54,0,8.63,2.16,11.28,5.44,15.96,20.06,31.87,40.16,47.59,60.41l47.03,60.84c2.64,3.42,3.63,7.58,3.09,11.57-1.59,12.84-3.5,25.65-5.27,38.47-1.96,12.79-3.93,25.59-6.32,38.33-.69,6.81-6.19,12.26-12.95,12.33-102.66,8-215.62,3.01-310.34-40.9-31.65-15.53-62.19-39-77.02-71.73-1.02-2.45,2.23-4.42,3.87-2.27,75.59,94.46,269.39,93.87,381.13,86.51,.06-.03-12.94,12.32-12.93,12.32,2.1-25.82,5.33-51.5,8.8-77.16l3.09,11.57c-27.68-36.13-65.73-86.93-92.27-123.05,0,0,13.13,5.44,13.13,5.44-25.3,4.39-50.45,7.16-75.91,9.11-44.92,2.8-91.23,4.76-135.37-5.76-5.01-1.44-11.69-2.36-16.84-3.12-23.21-2.73-46.97,1.28-67.07,14.19-1.78,1.69-4.94-.73-3.39-2.94h0Z"/>
        </g>
        <g>
          <path class="cls-4" d="M2600.11,1470.34s-71.17-53.7-77.42-80.94,13.6-42.03,72.36-42.03,97.68-67.71,124.53-63.82c26.85,3.89,32.82,22.18,26.92,66.16,0,0,13.94,16.73,65.7,9.73,51.76-7,47.87,27.24,39.3,49.42-8.56,22.18-91.71,51.37-105.01,89.89-13.3,38.53,10.83,153.71,62.59,193.41,51.76,39.69,265.53,184.72,215.72,428.06-49.81,243.35-365.02,242.31-516.14,189.39-151.12-52.92-288.17-329.97-59.54-519.77,228.63-189.8,150.99-319.49,150.99-319.49Z"/>
          <g class="cls-12">
            <path class="cls-11" d="M2697.4,1297.55s-33.21,27.24-22.31,66.93c10.9,39.69,29.71,91.68,6.75,103.06s-39.53-102.79-76.49-110.84c-36.97-8.05,42.77-30.09,42.77-30.09"/>
          </g>
          <path class="cls-11" d="M2688.6,2353.76c-67.1,0-132.79-11.02-185.12-29.34-90.11-31.56-166.83-130.25-186.58-240-20.71-115.14,22.68-224.04,122.2-306.66,112.78-93.63,146.7-170.57,155.29-218.63,7.71-43.08-2.81-70.42-6.58-78.43-20.44-15.65-73.76-58.81-80.41-87.79-4.26-18.58,1.49-30.83,7.08-37.83,12.71-15.97,38.32-23.4,80.58-23.4,28.27,0,52.24-19.81,73.4-37.29,18.86-15.58,35.12-29.02,53.38-26.38,44.66,6.47,44.58,46.14,41.49,73.71,6.91,2.63,21.09,5.62,46.77,2.16,25.29-3.45,43.4,1.5,53.79,14.65,10.34,13.09,11.14,32.96,2.27,55.97-5.55,14.38-23.81,25.75-46.92,40.14-23.21,14.45-52.09,32.43-57.89,49.23-11.31,32.78,10.84,140.2,57.3,175.83,2.66,2.04,5.75,4.36,9.22,6.96,64.69,48.55,261.53,196.3,212.32,436.71-16.25,79.4-60.09,139.86-130.28,179.68-63.03,35.76-143.12,50.71-221.3,50.71Zm28.49-1054.69c-5,0-19.19,11.72-28.64,19.53-22.72,18.77-53.84,44.47-93.39,44.47-42.26,0-53.26,8.09-56.03,11.57-.77,.97-2.8,3.53-1.03,11.25,3.07,13.36,39.54,47.74,71.58,71.92,1.61,1.22,2.97,2.73,4.01,4.47,3.45,5.77,81.83,143.49-154.43,339.63-90.43,75.08-129.98,173.43-111.35,276.95,17.56,97.57,87.39,188.39,166.05,215.94,106.61,37.34,271.56,42.78,380.56-19.05,61.96-35.15,100.66-88.54,115.02-158.67,45.22-220.93-139.66-359.7-200.42-405.3-3.56-2.68-6.74-5.06-9.48-7.16-56.27-43.16-83.8-164.83-67.88-210.99,9.43-27.32,42.13-47.68,70.98-65.63,12.58-7.84,31.61-19.68,34.29-24.95,4.99-12.94,4.78-21.94,2.32-25.05-2.2-2.78-9.9-5.03-24.95-3.01-57.42,7.78-76.61-11.33-79.86-15.23-2.81-3.38-4.08-7.78-3.5-12.13,6.13-45.68-3.02-47-13.61-48.54-.08,0-.16,0-.24,0Z"/>
          <g>
            <path class="cls-2" d="M2674.9,1513.62s9.79-17.69,40.92-22.33,58.5-10.58,67.58,14.79c9.08,25.37-5.97,47.26-5.97,47.26,0,0,26.59,6.67,22.7,37.98-3.89,31.31-16.73,33.92-16.73,33.92,0,0,22.38,12.18,13.43,38.71-8.95,26.53-65.38,19.88-78.61,17.4-23.15-4.35-33.66-38.27-8.95-53.5,0,0-26.8-6.07-31.52-27.84-6.23-28.7,12.84-39.58,12.84-39.58,0,0-36.54-23.52-15.69-46.83Z"/>
            <path class="cls-11" d="M2748.39,1699.77c-16.12,0-29.75-2.36-33.07-2.99-17.62-3.31-31.76-17.9-35.17-36.3-1.77-9.56-.44-18.93,3.54-27.12-9.54-6.51-18.3-16.27-21.27-30-3.9-17.95-.25-31.79,5.62-41.52-6.63-6.95-13.37-16.58-14.92-28-1.01-7.45-.19-18.53,9.16-29.6,3.98-5.99,18.25-23.54,51.24-28.45l5.68-.86c29.44-4.48,66.12-10.1,78.99,25.88,6.41,17.89,3.65,34.32-.26,45.69,10.96,8.49,20.7,23.42,17.79,46.78-1.82,14.64-5.54,24.79-9.78,31.81,7.35,10.19,12.12,25.07,5.77,43.91-8.55,25.33-38.81,30.79-63.32,30.79Zm-1.6-76.58l-29.29,18.04c-6.67,4.11-7.22,9.63-6.49,13.53,.86,4.63,4.39,10.1,10.11,11.17,24.77,4.65,57.7,2.35,60.84-6.99,4.13-12.25-3.03-18.1-6.29-20.04l-28.87-15.71Zm5.74-120.29c-6.51,0-15.63,1.06-28.6,3.05l-5.79,.87c-22.09,3.29-29.44,14.29-29.51,14.4l-.85,1.54-1.18,1.32c-2.71,3.03-2.49,4.71-2.38,5.51,.74,5.64,9.14,13.9,14.93,17.69l23.05,15.11-23.82,11.69c-1.15,.79-8.73,6.72-5.28,22.62,2.45,11.29,19.48,15.82,19.65,15.86l25.25,5.72,39.99-7.94c1.35-1.58,4.84-6.88,6.59-20.94,2.12-17.04-9.6-20.49-10.94-20.83l-21.91-5.5,12.8-18.62c.35-.53,10.28-15.88,4.12-33.08-2.09-5.84-5.87-8.47-16.1-8.47Zm-77.63,10.72h0Z"/>
            <path class="cls-11" d="M2789.8,1581.18c-24.75-24.88-70.84-24.92-97.23-2.53,0,0-3.97-36.41-3.97-36.41,25.71,12.1,51.78,15.16,79.23,11.4,8.92-1.45,17.51-3.78,27.79-8.62l-5.82,36.16h0Z"/>
            <path class="cls-11" d="M2785.38,1643.3c-18.39-22.43-60.11-23.92-76.43,2.33,0,0-8.82-35.54-8.82-35.54,22.97,10.46,44.19,11.03,67.76,5.9,8.2-1.92,15.8-4.97,23.66-8.79,0,0-6.17,36.1-6.17,36.1h0Z"/>
            <path class="cls-2" d="M2604.86,1550.54l-.05-.05s0,.05,.05,.16c.42,3.66,7.48,65.45-49.86,110.39l-72.1,87.69-33.8,41.12c-49.08-60.69-110.45-214.04-7.43-205.3,4.24,.31,8.79,.94,13.66,1.88,0,0,4.03-7.22,10.83-17.27,7.17-10.62,17.42-24.38,29.35-36.31,23.23-23.28,43.37-70.32,88.26-70.32s72.1,38.93,101.19,51.9c16.85,35.79-47.98,71.26-80.1,36.1Z"/>
            <g class="cls-12">
              <path class="cls-11" d="M2555,1661.04l-72.1,87.69c-.52-34.43-17.42-64.77-17.42-64.77-22.29-22.29-25.43-98.41-25.43-98.41l1.62-.99,24.49-15.38,9.68-6.07c-9.26,128.76,91.92,66.86,128.97-12.61l.05,.05v.1c.42,3.66,7.48,65.45-49.86,110.39Z"/>
            </g>
            <path class="cls-11" d="M2449.12,1805.52h-.33c-4.62-.1-8.96-2.23-11.87-5.82-37.08-45.83-87.97-153.31-57.37-204.3,8.92-14.87,27.86-30.72,67.77-26.07,7.15-11.4,20.51-31.01,37.07-47.56,5.29-5.29,10.78-12.49,16.59-20.11,18.62-24.41,41.79-54.79,82.79-54.79,34.84,0,60.29,19.56,80.74,35.28,9.55,7.34,18.57,14.28,26.84,17.97,3.43,1.53,6.2,4.24,7.8,7.64,10.03,21.29,1.66,45.71-20.84,60.76-16.21,10.84-38.16,15.61-58.09,9.67-2.79,28.22-14.18,70.96-54.41,103.09l-104.92,118.94c-2.98,3.38-7.28,5.31-11.77,5.31Zm-15.54-205.68c-13.35,0-22.44,3.92-27.11,11.71-16.59,27.64,9.4,103.1,43.71,153.35l93.02-105.45c.64-.72,1.34-1.38,2.09-1.97,51.11-40.01,44.23-102.41,43.91-105.04-.82-6.78,2.84-13.34,9.04-16.18,6.21-2.83,13.54-1.38,18.13,3.67,13.39,14.69,33.92,9.55,44.47,2.5,3.05-2.04,11.71-8.61,11.07-16.96-9.08-5.01-17.62-11.57-26.55-18.43-18.4-14.15-37.44-28.78-61.61-28.78-25.46,0-41.19,20.62-57.83,42.45-6.46,8.48-12.57,16.48-19.36,23.27-21.35,21.35-37.36,49.85-37.52,50.14-3.3,5.91-10.04,9.07-16.68,7.77-6.99-1.35-13.25-2.02-18.79-2.02Z"/>
            <path class="cls-11" d="M2470.38,1590.99c-10.97,24.08-10.63,52.64-2.91,77.85,.42,1.22-.26,2.56-1.5,2.92-.96,.28-1.97-.11-2.5-.9-17.23-24.45-26.1-55.18-23.65-85.23,.05-1.93,1-5.99,1.38-8.13,1.77-8.96,10.47-14.8,19.43-13.03,11.97,2.05,17.44,17.29,9.75,26.53h0Z"/>
          </g>
          <path class="cls-11" d="M2761.8,1353.21l-36.79,100.25c-.82,2.43-4.71,1.56-4.37-1,0,0,10.56-106.26,10.56-106.26,.86-8.7,8.61-15.04,17.31-14.18,10.16,.86,16.91,11.7,13.29,21.2h0Z"/>
          <path class="cls-11" d="M2654.77,1603.16c-.38,57.27-15.77,113.69-40.27,165.19-8.39,17.13-18.33,33.65-30.46,48.53-.98,1.25-3.16,.14-2.63-1.4,16.86-51.48,34.78-108.21,51.5-159.62,5.8-17.75,11.84-35.49,18.91-53.2,.52-1.51,2.99-1.14,2.95,.51h0Z"/>
          <path class="cls-11" d="M2692.03,1627.73c22.33,39.41,35.83,82.36,47.15,125.9,3.5,14.53,6.75,29.12,8.72,44.35,.25,1.52-1.93,2.41-2.78,1.09-25.29-37.87-39.72-81.45-49.78-125.46-3.06-14.73-5.59-29.61-6.17-45.04-.1-1.53,2.13-2.21,2.87-.84h0Z"/>
          <path class="cls-11" d="M2635.63,1395.99c30.72,26.71,56.87,76.88,50.81,118.26-.24,1.45-2.39,1.72-2.97,.36-13.82-27.48-29.53-57.23-40.62-85.84-3.83-9.97-7.37-20.18-9.75-31.23-.35-1.4,1.45-2.51,2.54-1.56h0Z"/>
          <path class="cls-6" d="M2829.71,2047.83c0,92.27-57.5,159.03-149.78,159.03s-167.08-74.8-167.08-167.08,74.8-167.08,167.08-167.08,149.78,82.84,149.78,175.12Z"/>
          <path class="cls-11" d="M2693.27,2169.18c-2.84-2.94-4.86-7.8-6.09-14.59-.85-3.91-3.34-5.91-7.47-6.01-14.18,.36-26.36-1.01-36.54-4.12-10.18-3.1-18.13-7.58-23.85-13.45-5.72-5.86-9.09-12.69-10.12-20.49-.75-5.65-.21-11.21,1.62-16.66,1.83-5.45,4.96-10.08,9.4-13.86,4.44-3.79,10.07-6.14,16.9-7.04,5.97-.79,10.98-.7,15.02,.28,4.04,.99,7.68,3.06,10.92,6.21,3.24,3.16,6.67,7.75,10.3,13.79,3.92,6.64,8.24,11.2,12.97,13.67,4.72,2.47,10.77,3.21,18.13,2.24,8.22-1.09,14.09-4.12,17.61-9.09,3.52-4.98,4.83-10.88,3.92-17.7-.72-5.44-3.14-10.01-7.27-13.7-4.13-3.69-9.01-6.71-14.63-9.05-5.63-2.35-13.9-5.35-24.81-9.01-14.86-4.76-27.09-9.39-36.69-13.87-9.61-4.48-18.2-10.92-25.77-19.31-7.57-8.39-12.23-19.15-13.97-32.27-2.14-16.11,1.19-29.69,9.99-40.73,8.8-11.04,21.1-19.19,36.91-24.44,3.86-1.16,5.54-3.66,5.03-7.51-.78-5.86-.11-10.49,1.99-13.86s5.93-5.42,11.48-6.16c8.96-1.18,14.9,3.89,17.82,15.23,.5,2.11,1.32,3.65,2.49,4.64,1.16,.99,2.77,1.5,4.84,1.56,11.55,.32,21.39,2.3,29.53,5.94,8.14,3.65,14.37,8.25,18.69,13.81,4.32,5.56,6.88,11.33,7.67,17.31,.85,6.4,.15,12.06-2.07,16.96-2.23,4.91-5.54,8.83-9.92,11.74-4.4,2.92-9.42,4.74-15.07,5.49-8.75,1.16-15.56-.02-20.42-3.56-4.87-3.53-8.96-9.26-12.29-17.18-2.1-6.02-4.88-10.19-8.33-12.49-3.45-2.32-8.44-3.04-14.95-2.18-6.83,.9-12.17,3.44-16.02,7.58-3.85,4.15-5.37,9.21-4.58,15.18,.85,6.4,3.62,11.79,8.32,16.16,4.71,4.37,10.31,7.95,16.81,10.73,6.5,2.78,15.43,6.02,26.78,9.72,14.84,4.65,27.06,9.23,36.67,13.7,9.61,4.49,18.14,10.88,25.59,19.17,7.45,8.29,12.05,19.07,13.81,32.29,2.15,16.22-1.08,30.16-9.69,41.83-8.6,11.68-22.05,20.24-40.32,25.7-3.98,1.18-5.68,3.85-5.13,8.01,1,7.58,.59,13.06-1.24,16.45-1.83,3.39-5.79,5.49-11.87,6.29-5.23,.69-9.26-.43-12.09-3.36Z"/>
          <g class="cls-12">
            <path class="cls-11" d="M2839.05,1748.73c254.24,320.12-98.21,660.09-433.49,439.46,317.26,317.26,863.11-41.51,433.49-439.46Z"/>
          </g>
          <g class="cls-1">
            <path class="cls-2" d="M2593.63,1680.74s-45.66,67.97-98.84,109.09c-53.18,41.12-137.14,122.66-140.35,239.47,0,0,2.85,82.36,32.43,129.84,0,0-38.72-162.08,59.93-260.73,98.65-98.65,129.07-179.27,146.84-217.66Z"/>
          </g>
        </g>
      </g>
      <g>
        <path class="cls-5" d="M809.69,2581.34s17.64,25.8,0,71.36c-38.85,41.1-235.19,40.1-259.33,0-17.64-45.56,0-71.36,0-71.36,15.14-27.93,71.48-35.55,128.23-36.13,57.24-.59,114.9,6.1,131.1,36.13Z"/>
        <g class="cls-9">
          <path class="cls-2" d="M774.95,2572.12c36.32,36.95-227.65,45.14-193.02,0,35.93-17.64,155.72-27.58,193.02,0Z"/>
        </g>
        <g class="cls-1">
          <path class="cls-2" d="M641.19,2626.65c3.72,.37,32.59,3.04,63.36,.75,5.13-.38,9.77,3.11,10.71,8.17,1.94,10.44,4.08,28.03,.11,41.98-6.04,21.25-101.04,1.87-102.92,0-1.45-1.45-5.6-29.52-3.55-45.9,.73-5.83,6.17-9.86,11.94-8.78l19.52,3.65c.29,.05,.54,.09,.83,.12Z"/>
        </g>
        <path class="cls-11" d="M685.27,2545.17c54.99,0,108.85,7.3,124.42,36.17,0,0,17.64,25.8,0,71.36-19.31,20.42-77.5,30.45-134.13,30.45s-113.06-10.28-125.21-30.45c-17.64-45.56,0-71.36,0-71.36,15.14-27.93,71.48-35.55,128.23-36.13,2.23-.02,4.45-.03,6.68-.03m0-32.29h0c-2.34,0-4.68,.01-7.01,.04-86.82,.9-136.38,17.49-155.83,52.21-5.55,9.27-23.13,45.13-2.18,99.23,.67,1.73,1.49,3.4,2.45,5,24.14,40.1,106.14,46.09,152.87,46.09,35.85,0,122.99-3.95,157.59-40.56,2.88-3.04,5.13-6.62,6.65-10.52,20.92-54.04,3.41-89.88-2.16-99.2-26.1-46.84-99.38-52.28-152.36-52.28h0Z"/>
        <path class="cls-11" d="M583.41,2573.26c-1.33,3.57-1.87,7.02,1.33,9.09,10.48,5.98,24.79,5.8,37.26,6.85,36.82,1.48,74.6,.84,111.44-1.39,12.89-1.23,27.2-1.47,38.65-6.66,1.47-.85,2.35-1.45,2.7-2.52,.49-1.16-.13-3.22-1.18-5.21-.59-.94-.26-2.2,.72-2.72,.64-.34,1.38-.27,1.94,.1,2.2,1.46,4.56,3.51,5.56,7.17,1.87,9.93-9.51,16.69-16.27,20.44-46.7,22.18-129.07,24.79-175.76,1.62-7.51-4.24-17.34-12-14.43-22,.94-2.75,5.06-9.5,7.75-6.83,.51,.59,.56,1.38,.28,2.05h0Z"/>
        <path class="cls-11" d="M679.36,2628.44c5.19,13.18,5.4,27.24,3.6,41.04-.74,4.56-1.69,9.12-3.6,13.68-.18,.42-.67,.62-1.09,.45-7.14-17.21-6.7-37.6-.45-55.16,.26-.66,1.28-.66,1.54,0h0Z"/>
        <path class="cls-11" d="M730.71,2628.44c5.19,13.18,5.4,27.24,3.6,41.04-.74,4.56-1.69,9.12-3.6,13.68-.18,.42-.67,.62-1.09,.45-7.14-17.21-6.7-37.61-.45-55.16,.26-.66,1.28-.66,1.54,0h0Z"/>
        <path class="cls-11" d="M770.14,2621.3c5.19,13.18,5.4,27.24,3.6,41.04-.74,4.56-1.69,9.12-3.6,13.68-.18,.42-.66,.62-1.09,.45-7.14-17.21-6.7-37.61-.45-55.16,.26-.66,1.28-.66,1.54,0h0Z"/>
        <path class="cls-11" d="M630.83,2628.44c5.19,13.18,5.4,27.24,3.6,41.04-.75,4.56-1.69,9.12-3.6,13.68-.18,.42-.66,.62-1.09,.45-7.14-17.21-6.7-37.61-.45-55.16,.26-.66,1.28-.66,1.54,0h0Z"/>
        <path class="cls-11" d="M582.31,2614.16c5.19,13.18,5.4,27.24,3.6,41.04-.74,4.56-1.69,9.12-3.6,13.68-.18,.42-.66,.62-1.09,.45-7.14-17.21-6.7-37.61-.45-55.16,.26-.66,1.29-.67,1.54,0h0Z"/>
      </g>
      <g>
        <path class="cls-5" d="M716.23,2479.33s17.64,25.8,0,71.36c-38.85,41.1-235.19,40.1-259.33,0-17.64-45.56,0-71.36,0-71.36,15.14-27.93,71.48-35.55,128.23-36.13,57.24-.59,114.9,6.1,131.1,36.13Z"/>
        <g class="cls-9">
          <path class="cls-2" d="M681.49,2470.11c36.32,36.95-227.65,45.14-193.02,0,35.93-17.64,155.72-27.58,193.02,0Z"/>
        </g>
        <g class="cls-1">
          <path class="cls-2" d="M547.73,2524.63c3.72,.37,32.59,3.04,63.36,.75,5.13-.38,9.77,3.11,10.71,8.17,1.94,10.44,4.08,28.03,.11,41.98-6.04,21.25-101.04,1.87-102.92,0-1.45-1.45-5.6-29.52-3.55-45.9,.73-5.83,6.17-9.86,11.94-8.78l19.52,3.65c.29,.05,.54,.09,.83,.12Z"/>
        </g>
        <path class="cls-11" d="M591.81,2443.16c54.99,0,108.85,7.3,124.42,36.17,0,0,17.64,25.8,0,71.36-19.31,20.42-77.5,30.45-134.13,30.45s-113.06-10.28-125.21-30.45c-17.64-45.56,0-71.36,0-71.36,15.14-27.93,71.48-35.55,128.23-36.13,2.23-.02,4.45-.03,6.68-.03m0-32.29h0c-2.34,0-4.68,.01-7.01,.04-86.81,.89-136.38,17.49-155.83,52.21-5.55,9.27-23.13,45.12-2.18,99.23,.67,1.73,1.49,3.4,2.45,5,24.14,40.1,106.14,46.09,152.87,46.09,35.85,0,122.99-3.95,157.59-40.56,2.88-3.04,5.13-6.62,6.65-10.52,20.92-54.04,3.41-89.87-2.16-99.2-26.1-46.84-99.38-52.28-152.37-52.28h0Z"/>
        <path class="cls-11" d="M489.96,2471.24c-1.33,3.57-1.87,7.02,1.33,9.09,10.48,5.98,24.79,5.8,37.26,6.85,36.81,1.48,74.6,.84,111.44-1.39,12.89-1.23,27.2-1.47,38.65-6.66,1.47-.85,2.35-1.45,2.7-2.51,.49-1.16-.13-3.22-1.18-5.21-.59-.94-.27-2.2,.72-2.72,.64-.34,1.38-.27,1.94,.1,2.2,1.46,4.56,3.51,5.57,7.17,1.86,9.94-9.51,16.69-16.27,20.44-46.7,22.18-129.07,24.79-175.76,1.62-7.51-4.24-17.34-12-14.43-22,.94-2.75,5.06-9.5,7.75-6.83,.51,.59,.56,1.38,.28,2.05h0Z"/>
        <path class="cls-11" d="M585.9,2526.43c5.19,13.18,5.4,27.24,3.6,41.04-.74,4.56-1.69,9.12-3.6,13.68-.18,.42-.67,.62-1.09,.45-7.14-17.21-6.7-37.61-.45-55.16,.26-.66,1.29-.67,1.54,0h0Z"/>
        <path class="cls-11" d="M637.25,2526.43c5.19,13.18,5.4,27.24,3.6,41.04-.74,4.56-1.69,9.12-3.6,13.68-.18,.42-.66,.62-1.09,.45-7.14-17.21-6.7-37.61-.45-55.16,.26-.66,1.28-.67,1.54,0h0Z"/>
        <path class="cls-11" d="M676.68,2519.29c5.19,13.18,5.4,27.24,3.6,41.04-.74,4.56-1.69,9.12-3.6,13.68-.18,.42-.66,.62-1.09,.45-7.14-17.21-6.7-37.61-.45-55.16,.26-.66,1.28-.66,1.54,0h0Z"/>
        <path class="cls-11" d="M537.38,2526.43c5.19,13.18,5.4,27.24,3.6,41.04-.74,4.56-1.69,9.12-3.6,13.68-.18,.42-.67,.62-1.09,.45-7.14-17.21-6.7-37.6-.45-55.16,.26-.67,1.28-.66,1.54,0h0Z"/>
        <path class="cls-11" d="M488.85,2512.15c5.19,13.18,5.4,27.24,3.6,41.04-.74,4.56-1.69,9.12-3.6,13.68-.18,.42-.66,.62-1.09,.45-7.14-17.21-6.7-37.61-.45-55.16,.26-.66,1.28-.66,1.54,0h0Z"/>
      </g>
      <g>
        <path class="cls-5" d="M787.92,2374.99s17.64,25.8,0,71.36c-38.85,41.1-235.19,40.1-259.33,0-17.64-45.56,0-71.36,0-71.36,15.14-27.93,71.48-35.55,128.23-36.13,57.24-.59,114.9,6.1,131.1,36.13Z"/>
        <g class="cls-9">
          <path class="cls-2" d="M753.18,2365.77c36.32,36.95-227.65,45.14-193.02,0,35.93-17.64,155.72-27.58,193.02,0Z"/>
        </g>
        <g class="cls-1">
          <path class="cls-2" d="M619.41,2420.3c3.72,.37,32.59,3.04,63.36,.75,5.13-.38,9.77,3.11,10.71,8.17,1.94,10.44,4.08,28.03,.11,41.98-6.04,21.25-101.04,1.87-102.92,0-1.45-1.45-5.6-29.52-3.55-45.9,.73-5.83,6.17-9.86,11.94-8.78l19.52,3.65c.29,.05,.54,.09,.83,.12Z"/>
        </g>
        <path class="cls-11" d="M663.47,2338.82c55,0,108.88,7.3,124.45,36.17,0,0,17.64,25.8,0,71.36-19.31,20.42-77.5,30.45-134.13,30.45s-113.06-10.28-125.21-30.45c-17.64-45.56,0-71.36,0-71.36,15.14-27.93,71.48-35.55,128.23-36.13,2.22-.02,4.44-.03,6.66-.03m0-32.29h0c-2.32,0-4.66,.01-6.99,.03-86.81,.9-136.38,17.49-155.83,52.2-5.55,9.27-23.13,45.12-2.18,99.24,.67,1.73,1.49,3.4,2.45,5,24.14,40.1,106.14,46.09,152.87,46.09,35.85,0,122.99-3.95,157.59-40.56,2.88-3.04,5.13-6.62,6.65-10.52,20.92-54.04,3.41-89.87-2.16-99.2-26.11-46.84-99.4-52.28-152.4-52.28h0Z"/>
        <path class="cls-11" d="M561.64,2366.91c-1.33,3.57-1.87,7.02,1.33,9.09,10.48,5.98,24.79,5.8,37.26,6.85,36.82,1.48,74.6,.84,111.44-1.39,12.89-1.23,27.2-1.47,38.65-6.66,1.47-.85,2.35-1.45,2.7-2.51,.49-1.16-.13-3.22-1.18-5.21-.59-.94-.26-2.2,.72-2.72,.64-.34,1.38-.27,1.94,.1,2.2,1.46,4.56,3.51,5.57,7.17,1.87,9.93-9.51,16.69-16.27,20.44-46.69,22.18-129.07,24.79-175.76,1.62-7.51-4.24-17.34-12-14.43-22,.94-2.75,5.06-9.5,7.75-6.83,.51,.59,.56,1.38,.28,2.05h0Z"/>
        <path class="cls-11" d="M657.59,2422.09c5.19,13.18,5.4,27.24,3.6,41.04-.74,4.56-1.69,9.12-3.6,13.68-.18,.42-.67,.62-1.09,.45-7.14-17.21-6.7-37.6-.45-55.16,.26-.66,1.28-.66,1.54,0h0Z"/>
        <path class="cls-11" d="M708.93,2422.09c5.19,13.18,5.4,27.24,3.6,41.04-.74,4.56-1.69,9.12-3.6,13.68-.18,.42-.67,.62-1.09,.45-7.14-17.21-6.7-37.6-.45-55.16,.26-.66,1.28-.66,1.54,0h0Z"/>
        <path class="cls-11" d="M748.37,2414.96c5.19,13.18,5.4,27.24,3.6,41.04-.74,4.56-1.69,9.12-3.6,13.68-.18,.42-.67,.62-1.09,.45-7.14-17.22-6.7-37.6-.45-55.16,.26-.67,1.28-.66,1.54,0h0Z"/>
        <path class="cls-11" d="M609.06,2422.09c5.19,13.18,5.4,27.24,3.6,41.04-.74,4.56-1.69,9.12-3.6,13.68-.18,.42-.66,.62-1.09,.45-7.14-17.21-6.7-37.6-.45-55.16,.26-.66,1.28-.66,1.54,0h0Z"/>
        <path class="cls-11" d="M560.54,2407.82c5.19,13.18,5.4,27.24,3.6,41.04-.74,4.56-1.69,9.12-3.6,13.68-.18,.42-.67,.62-1.09,.45-7.14-17.21-6.7-37.6-.45-55.16,.26-.67,1.28-.66,1.54,0h0Z"/>
      </g>
      <g>
        <path class="cls-5" d="M690.87,2231.96s24.92,18.86,22.67,67.67c-23.78,51.32-210.27,112.73-245.9,82.37-31.2-37.6-22.67-67.67-22.67-67.67,5.48-31.29,56.49-56.41,110.11-74.99,54.09-18.74,110.89-30.71,135.79-7.38Z"/>
        <g class="cls-9">
          <path class="cls-2" d="M655,2234.25c46.17,23.5-201.52,115.11-183.02,61.31,28.47-28.14,138.89-75.62,183.02-61.31Z"/>
        </g>
        <g class="cls-1">
          <path class="cls-2" d="M545.48,2328.44c3.64-.83,31.87-7.47,60.32-19.42,4.75-1.99,10.25-.15,12.75,4.35,5.15,9.28,12.77,25.28,13.44,39.77,1.02,22.07-95.22,33.87-97.59,32.69-1.84-.92-14.69-26.22-17.95-42.39-1.16-5.76,2.72-11.31,8.54-12.12l19.67-2.74c.29-.04,.54-.08,.82-.15Z"/>
        </g>
        <path class="cls-11" d="M648.86,2219.07c17.53,0,32.23,3.72,42.01,12.88,0,0,24.93,18.86,22.67,67.67-19.4,41.86-147.08,90.45-212.81,90.45-14.84,0-26.52-2.48-33.09-8.07-31.2-37.6-22.67-67.67-22.67-67.67,5.48-31.29,56.48-56.41,110.11-74.99,32.84-11.38,66.68-20.26,93.77-20.26m0-32.29h0c-27.42,0-61.55,7.21-104.35,22.04-82.04,28.43-123.76,59.9-131.18,99-2.31,10.56-7.6,50.14,29.45,94.79,1.19,1.43,2.5,2.76,3.91,3.96,12.46,10.62,30.14,15.78,54.03,15.78,35.66,0,87.77-12.23,135.99-31.92,39.57-16.16,90.1-42.67,106.12-77.24,1.76-3.8,2.76-7.9,2.96-12.09,2.68-57.89-25.32-86.31-33.56-93.38-15.25-13.9-36.57-20.95-63.37-20.95h0Z"/>
        <path class="cls-11" d="M473.74,2296.17c-.13,3.81,.46,7.25,4.15,8.2,11.83,2.35,25.35-2.37,37.5-5.34,35.38-10.29,71.01-22.89,105.23-36.72,11.83-5.26,25.32-10.03,34.54-18.59,1.12-1.27,1.77-2.13,1.76-3.24,.09-1.26-1.15-3.01-2.78-4.56-.86-.71-.95-2-.18-2.81,.5-.52,1.22-.7,1.87-.52,2.55,.68,5.44,1.88,7.56,5.03,4.93,8.82-3.72,18.84-8.94,24.55-37.06,35.79-114.7,64.55-166.14,57.36-8.47-1.64-20.26-5.87-20.67-16.27,.02-2.9,1.78-10.62,5.18-8.94,.67,.4,.97,1.13,.91,1.85h0Z"/>
        <path class="cls-11" d="M582.25,2318.01c9.11,10.85,13.77,24.11,16.45,37.77,.74,4.56,1.29,9.18,.93,14.11-.03,.46-.43,.8-.89,.77-12.24-14.05-18.29-33.53-17.95-52.16,.04-.71,1.01-1.04,1.46-.49h0Z"/>
        <path class="cls-11" d="M630.93,2301.71c9.11,10.85,13.78,24.11,16.45,37.77,.74,4.56,1.29,9.18,.93,14.11-.03,.46-.43,.8-.89,.77-12.24-14.05-18.29-33.53-17.95-52.16,.04-.71,1.01-1.04,1.46-.49h0Z"/>
        <path class="cls-11" d="M666.06,2282.41c9.1,10.85,13.78,24.11,16.44,37.77,.74,4.56,1.29,9.18,.93,14.11-.03,.46-.43,.8-.89,.77-12.23-14.05-18.29-33.53-17.95-52.16,.04-.72,1.01-1.04,1.46-.49h0Z"/>
        <path class="cls-11" d="M536.23,2333.43c9.11,10.85,13.77,24.11,16.45,37.77,.74,4.56,1.29,9.18,.93,14.11-.03,.46-.43,.8-.89,.77-12.24-14.05-18.29-33.53-17.95-52.16,.04-.71,1.01-1.04,1.46-.49h0Z"/>
        <path class="cls-11" d="M485.69,2335.3c9.1,10.85,13.77,24.11,16.45,37.77,.74,4.56,1.29,9.18,.93,14.11-.03,.46-.43,.8-.89,.77-12.23-14.05-18.29-33.53-17.95-52.16,.04-.71,1-1.04,1.46-.49h0Z"/>
      </g>
      <g>
        <path class="cls-5" d="M1070.95,2627.13s1.47,31.22-37.46,60.74c-54.65,14.59-221.23-89.33-220.73-136.14,8.9-48.04,37.46-60.74,37.46-60.74,27.55-15.83,79.5,7.27,128.11,36.56,49.03,29.55,94.59,65.51,92.62,99.58Z"/>
        <g class="cls-9">
          <path class="cls-2" d="M1046.22,2601.04c11.52,50.51-217.46-81.09-164.28-101.32,39.84,3.85,147.02,58.27,164.28,101.32Z"/>
        </g>
        <g class="cls-1">
          <path class="cls-2" d="M903.74,2577.23c2.97,2.26,26.15,19.7,53.54,33.9,4.57,2.37,6.68,7.78,4.82,12.58-3.83,9.9-11.24,26-21.94,35.79-16.3,14.92-86.99-51.45-87.6-54.03-.47-2,10.73-28.07,21.07-40.93,3.68-4.58,10.43-5.15,14.77-1.2l14.7,13.36c.22,.2,.41,.36,.64,.54Z"/>
        </g>
        <path class="cls-11" d="M872.15,2485.84c28.77,0,68.49,18.99,106.18,41.7,49.03,29.55,94.59,65.51,92.62,99.58,0,0,1.47,31.22-37.46,60.74-3.53,.94-7.53,1.39-11.93,1.39-63.56,0-209.27-93.75-208.8-137.53,8.9-48.04,37.46-60.74,37.46-60.74,6.18-3.55,13.6-5.14,21.93-5.14m0-32.29h0c-13.96,0-26.47,3.02-37.18,8.96-9.58,4.97-43.38,26.26-53.96,83.33-.34,1.83-.52,3.68-.54,5.53-.21,19.87,10.83,40.79,33.75,63.96,48.58,49.11,149.74,106.2,207.33,106.2,7.27,0,14.08-.83,20.26-2.48,4.04-1.08,7.84-2.94,11.18-5.47,46.18-35.01,50.08-74.71,50.24-85.57,2.42-54.9-60.54-99.38-108.24-128.13-51.74-31.18-91.92-46.34-122.85-46.34h0Z"/>
        <path class="cls-11" d="M882.6,2501.46c-3,2.34-5.28,4.99-3.64,8.44,5.78,10.59,18.05,17.95,28.11,25.39,30.56,20.59,63.05,39.88,95.58,57.32,11.62,5.72,23.92,13.03,36.4,14.62,1.7,.04,2.76,0,3.62-.72,1.03-.73,1.57-2.81,1.73-5.05,0-1.11,.93-2.01,2.04-1.93,.72,.05,1.32,.49,1.6,1.1,1.1,2.4,2.04,5.38,.97,9.03-1.08,3.49-4.55,6-7.76,7.2-47.32,11.47-144.19-47.73-167.26-89.23-4.16-7.55-8.46-19.32-.74-26.3,2.24-1.84,9.29-5.43,10.19-1.74,.12,.77-.25,1.47-.84,1.89h0Z"/>
        <path class="cls-11" d="M935.29,2598.8c-2.5,13.94-9.7,26.02-18.48,36.82-3.03,3.49-6.23,6.87-10.24,9.75-.37,.27-.89,.18-1.16-.19,2.96-18.4,14.04-35.52,28.58-47.19,.57-.43,1.44,.11,1.31,.81h0Z"/>
        <path class="cls-11" d="M978.99,2625.75c-2.5,13.94-9.7,26.02-18.48,36.82-3.03,3.49-6.23,6.87-10.24,9.75-.37,.27-.89,.18-1.16-.19,2.96-18.39,14.04-35.52,28.58-47.19,.57-.43,1.44,.11,1.31,.81h0Z"/>
        <path class="cls-11" d="M1016.3,2640.38c-2.5,13.94-9.7,26.02-18.48,36.82-3.03,3.49-6.23,6.87-10.24,9.75-.37,.27-.89,.18-1.16-.19,2.96-18.39,14.04-35.52,28.58-47.19,.57-.43,1.44,.11,1.31,.81h0Z"/>
        <path class="cls-11" d="M893.99,2573.32c-2.5,13.94-9.7,26.02-18.48,36.82-3.03,3.49-6.23,6.87-10.24,9.75-.38,.27-.9,.18-1.16-.19,2.97-18.4,14.04-35.52,28.58-47.19,.57-.43,1.44,.11,1.31,.81h0Z"/>
        <path class="cls-11" d="M860.18,2535.7c-2.51,13.94-9.7,26.02-18.48,36.82-3.03,3.49-6.23,6.87-10.24,9.75-.38,.27-.9,.18-1.16-.19,2.97-18.4,14.04-35.52,28.58-47.19,.57-.43,1.44,.11,1.31,.81h0Z"/>
      </g>
      <g>
        <path class="cls-6" d="M2186.01,2398.85l176.41-67.45s79.69,198.15,220.3,227.73l-171.18,80.81c-84.48,0-198.93-115.75-225.54-241.09Z"/>
        <path class="cls-11" d="M2362.43,2331.4s79.69,198.15,220.3,227.73l-171.18,80.81c-84.49,0-198.93-115.75-225.54-241.09l176.42-67.45m-.02-31.4c-3.73,0-7.5,.67-11.19,2.08l-176.42,67.45c-14.43,5.52-22.71,20.72-19.5,35.84,29.02,136.71,153.55,265.96,256.25,265.96,4.63,0,9.21-1.03,13.4-3.01l171.18-80.81c12.19-5.75,19.35-18.65,17.77-32.05-1.57-13.39-11.52-24.28-24.72-27.06-122.34-25.73-196.91-206.92-197.65-208.75-4.93-12.2-16.69-19.66-29.14-19.66h0Z"/>
        <path class="cls-3" d="M2240.5,2416.49l79.39-32.69s13.23,28.8,43.58,16.86c0,0,55.26,95.21,111.04,127.12,0,0-15.31,33.21,14.01,33.21l-70.57,39.95s-28.15-22.7-50.85,0c0,0-89.5-51.11-126.6-139.06,24.08-5.92,19.15-36.08,0-45.4Z"/>
        <ellipse class="cls-6" cx="2351.22" cy="2495.07" rx="24.8" ry="28.93" transform="translate(-1041.12 1999.43) rotate(-38.39)"/>
        <ellipse class="cls-6" cx="2406.21" cy="2541.57" rx="14.4" ry="10.6"/>
        <ellipse class="cls-6" cx="2311.19" cy="2435.82" rx="14.66" ry="12.06"/>
      </g>
      <g>
        <path class="cls-6" d="M430.31,516.31l176.62,66.92s-72.23,200.99,13.13,316.58l-181.59-53.46c-63.1-56.17-71.62-218.72-8.15-330.04Z"/>
        <path class="cls-11" d="M430.31,516.31l176.62,66.92s-72.23,200.99,13.13,316.58l-181.59-53.46c-63.11-56.18-71.62-218.73-8.15-330.04m0-31.4c-11,0-21.56,5.81-27.28,15.85-69.22,121.41-62.15,300.75,14.55,369.03,3.46,3.08,7.56,5.36,12.01,6.67l181.59,53.46c2.93,.86,5.92,1.28,8.87,1.28,10.06,0,19.74-4.85,25.72-13.4,7.73-11.05,7.54-25.8-.47-36.64-74.27-100.56-9.5-285.49-8.83-287.34,5.75-16.11-2.44-33.88-18.43-39.94l-176.62-66.92c-3.64-1.38-7.41-2.04-11.11-2.04h0Z"/>
        <path class="cls-3" d="M459.27,565.71l81.03,28.37s-9.27,30.31,21.34,41.58c0,0-22.03,107.86-1.59,168.78,0,0-33.51,14.63-11.62,34.12l-79.27-17.08s-5.93-35.67-37.98-33.81c0,0-32.87-97.69-2.1-188.04,21.93,11.59,38.29-14.21,30.19-33.91Z"/>
        <ellipse class="cls-6" cx="489.73" cy="698.03" rx="28.93" ry="24.8" transform="translate(-235.24 1146.93) rotate(-86.71)"/>
        <path class="cls-6" d="M510.64,778.9c-3.89,4.37-11.87,3.63-17.81-1.65-5.94-5.29-7.6-13.12-3.7-17.49,3.89-4.37,11.87-3.63,17.81,1.65,5.94,5.29,7.6,13.12,3.7,17.49Z"/>
        <path class="cls-6" d="M510.18,636.9c-4.43,4.98-12.92,4.65-18.97-.74s-7.36-13.78-2.93-18.76c4.43-4.98,12.92-4.65,18.97,.74,6.05,5.38,7.36,13.78,2.93,18.76Z"/>
      </g>
      <g>
        <path class="cls-6" d="M2954.74,844.09l-186.64,28.94s29.1,211.59-78.32,307.02l188.72-14.74c73.36-41.91,115.31-199.18,76.24-321.21Z"/>
        <path class="cls-11" d="M2954.73,844.09c39.07,122.03-2.88,279.3-76.24,321.21l-188.72,14.74c107.42-95.43,78.33-307.02,78.33-307.02l186.64-28.94m.02-31.39c-1.6,0-3.21,.12-4.83,.37l-186.64,28.94c-16.92,2.62-28.62,18.33-26.29,35.3,.26,1.92,25.39,196.25-68.08,279.27-10.08,8.96-13.32,23.35-8.04,35.76,4.96,11.65,16.37,19.1,28.88,19.1,.82,0,1.63-.03,2.46-.1l188.72-14.74c4.62-.36,9.1-1.74,13.12-4.04,89.17-50.94,133.18-224.94,90.57-358.04-4.21-13.15-16.43-21.82-29.88-21.82h0Z"/>
        <path class="cls-3" d="M2916.18,886.43l-85.15,11s2.8,31.57-29.48,36.26c0,0-.75,110.08-33.35,165.46,0,0,29.76,21.24,4.31,35.78l81.09-.31s13.18-33.67,44.15-25.22c0,0,52.36-88.78,40.95-183.54-23.85,6.8-34.53-21.82-22.52-39.42Z"/>
        <ellipse class="cls-6" cx="2859.02" cy="1009.59" rx="28.93" ry="24.8" transform="translate(1430.95 3684.26) rotate(-81.35)"/>
        <ellipse class="cls-6" cx="2834.34" cy="1077.24" rx="14.4" ry="10.6" transform="translate(-161.07 1547.82) rotate(-29.74)"/>
        <path class="cls-6" d="M2851.66,945.55c3.31,5.78,11.68,7.22,18.71,3.2,7.03-4.02,10.05-11.96,6.74-17.75-3.31-5.79-11.68-7.22-18.71-3.2s-10.05,11.96-6.74,17.75Z"/>
      </g>
    </g>
  </g>
</svg>