<svg xmlns="http://www.w3.org/2000/svg" version="1.1" xmlns:xlink="http://www.w3.org/1999/xlink" xmlns:svgjs="http://svgjs.dev/svgjs" viewBox="0 0 800 800" width="800" height="800"><g stroke-width="1.5" stroke="hsla(83, 80%, 20%, 0.85)" fill="none"><rect width="25" height="3.526315789473684" x="-12.5" y="-1.763157894736842" stroke="none" fill="hsla(83, 72%, 50%, 1.00)" rx="1.763157894736842" transform="rotate(45, 0, 0)"></rect><rect width="3.526315789473684" height="25" x="-1.763157894736842" y="-12.5" stroke="none" fill="hsla(83, 72%, 50%, 1.00)" rx="1.763157894736842" transform="rotate(45, 0, 0)"></rect><rect width="25" height="3.526315789473684" x="54.16666666666667" y="-1.763157894736842" stroke="none" fill="hsla(83, 80%, 20%, 0.85)" rx="1.763157894736842" transform="rotate(45, 66.66666666666667, 0)"></rect><rect width="3.526315789473684" height="25" x="64.90350877192984" y="-12.5" stroke="none" fill="hsla(83, 80%, 20%, 0.85)" rx="1.763157894736842" transform="rotate(45, 66.66666666666667, 0)"></rect><rect width="25" height="3.526315789473684" x="120.83333333333334" y="-1.763157894736842" stroke="none" fill="hsla(83, 72%, 50%, 1.00)" rx="1.763157894736842" transform="rotate(45, 133.33333333333334, 0)"></rect><rect width="3.526315789473684" height="25" x="131.5701754385965" y="-12.5" stroke="none" fill="hsla(83, 72%, 50%, 1.00)" rx="1.763157894736842" transform="rotate(45, 133.33333333333334, 0)"></rect><rect width="25" height="3.526315789473684" x="187.5" y="-1.763157894736842" stroke="none" fill="hsla(83, 80%, 20%, 0.85)" rx="1.763157894736842" transform="rotate(45, 200, 0)"></rect><rect width="3.526315789473684" height="25" x="198.23684210526315" y="-12.5" stroke="none" fill="hsla(83, 80%, 20%, 0.85)" rx="1.763157894736842" transform="rotate(45, 200, 0)"></rect><rect width="25" height="3.526315789473684" x="254.16666666666669" y="-1.763157894736842" stroke="none" fill="hsla(83, 72%, 50%, 1.00)" rx="1.763157894736842" transform="rotate(45, 266.6666666666667, 0)"></rect><rect width="3.526315789473684" height="25" x="264.90350877192986" y="-12.5" stroke="none" fill="hsla(83, 72%, 50%, 1.00)" rx="1.763157894736842" transform="rotate(45, 266.6666666666667, 0)"></rect><rect width="25" height="3.526315789473684" x="320.83333333333337" y="-1.763157894736842" stroke="none" fill="hsla(83, 80%, 20%, 0.85)" rx="1.763157894736842" transform="rotate(45, 333.33333333333337, 0)"></rect><rect width="3.526315789473684" height="25" x="331.57017543859655" y="-12.5" stroke="none" fill="hsla(83, 80%, 20%, 0.85)" rx="1.763157894736842" transform="rotate(45, 333.33333333333337, 0)"></rect><rect width="25" height="3.526315789473684" x="387.50000000000006" y="-1.763157894736842" stroke="none" fill="hsla(83, 72%, 50%, 1.00)" rx="1.763157894736842" transform="rotate(45, 400.00000000000006, 0)"></rect><rect width="3.526315789473684" height="25" x="398.23684210526324" y="-12.5" stroke="none" fill="hsla(83, 72%, 50%, 1.00)" rx="1.763157894736842" transform="rotate(45, 400.00000000000006, 0)"></rect><rect width="25" height="3.526315789473684" x="454.16666666666674" y="-1.763157894736842" stroke="none" fill="hsla(83, 80%, 20%, 0.85)" rx="1.763157894736842" transform="rotate(45, 466.66666666666674, 0)"></rect><rect width="3.526315789473684" height="25" x="464.9035087719299" y="-12.5" stroke="none" fill="hsla(83, 80%, 20%, 0.85)" rx="1.763157894736842" transform="rotate(45, 466.66666666666674, 0)"></rect><rect width="25" height="3.526315789473684" x="520.8333333333334" y="-1.763157894736842" stroke="none" fill="hsla(83, 72%, 50%, 1.00)" rx="1.763157894736842" transform="rotate(45, 533.3333333333334, 0)"></rect><rect width="3.526315789473684" height="25" x="531.5701754385965" y="-12.5" stroke="none" fill="hsla(83, 72%, 50%, 1.00)" rx="1.763157894736842" transform="rotate(45, 533.3333333333334, 0)"></rect><rect width="25" height="3.526315789473684" x="587.5" y="-1.763157894736842" stroke="none" fill="hsla(83, 80%, 20%, 0.85)" rx="1.763157894736842" transform="rotate(45, 600, 0)"></rect><rect width="3.526315789473684" height="25" x="598.2368421052631" y="-12.5" stroke="none" fill="hsla(83, 80%, 20%, 0.85)" rx="1.763157894736842" transform="rotate(45, 600, 0)"></rect><rect width="25" height="3.526315789473684" x="654.1666666666666" y="-1.763157894736842" stroke="none" fill="hsla(83, 72%, 50%, 1.00)" rx="1.763157894736842" transform="rotate(45, 666.6666666666666, 0)"></rect><rect width="3.526315789473684" height="25" x="664.9035087719298" y="-12.5" stroke="none" fill="hsla(83, 72%, 50%, 1.00)" rx="1.763157894736842" transform="rotate(45, 666.6666666666666, 0)"></rect><rect width="25" height="3.526315789473684" x="720.8333333333333" y="-1.763157894736842" stroke="none" fill="hsla(83, 80%, 20%, 0.85)" rx="1.763157894736842" transform="rotate(45, 733.3333333333333, 0)"></rect><rect width="3.526315789473684" height="25" x="731.5701754385964" y="-12.5" stroke="none" fill="hsla(83, 80%, 20%, 0.85)" rx="1.763157894736842" transform="rotate(45, 733.3333333333333, 0)"></rect><rect width="25" height="3.526315789473684" x="787.4999999999999" y="-1.763157894736842" stroke="none" fill="hsla(83, 72%, 50%, 1.00)" rx="1.763157894736842" transform="rotate(45, 799.9999999999999, 0)"></rect><rect width="3.526315789473684" height="25" x="798.236842105263" y="-12.5" stroke="none" fill="hsla(83, 72%, 50%, 1.00)" rx="1.763157894736842" transform="rotate(45, 799.9999999999999, 0)"></rect><rect width="25" height="3.526315789473684" x="-12.5" y="48.23684210526316" stroke="none" fill="hsla(83, 80%, 20%, 0.85)" rx="1.763157894736842" transform="rotate(45, 0, 50)"></rect><rect width="3.526315789473684" height="25" x="-1.763157894736842" y="37.5" stroke="none" fill="hsla(83, 80%, 20%, 0.85)" rx="1.763157894736842" transform="rotate(45, 0, 50)"></rect><rect width="25" height="3.526315789473684" x="54.16666666666667" y="48.23684210526316" stroke="none" fill="hsla(83, 72%, 50%, 1.00)" rx="1.763157894736842" transform="rotate(45, 66.66666666666667, 50)"></rect><rect width="3.526315789473684" height="25" x="64.90350877192984" y="37.5" stroke="none" fill="hsla(83, 72%, 50%, 1.00)" rx="1.763157894736842" transform="rotate(45, 66.66666666666667, 50)"></rect><rect width="25" height="3.526315789473684" x="120.83333333333334" y="48.23684210526316" stroke="none" fill="hsla(83, 80%, 20%, 0.85)" rx="1.763157894736842" transform="rotate(45, 133.33333333333334, 50)"></rect><rect width="3.526315789473684" height="25" x="131.5701754385965" y="37.5" stroke="none" fill="hsla(83, 80%, 20%, 0.85)" rx="1.763157894736842" transform="rotate(45, 133.33333333333334, 50)"></rect><rect width="25" height="3.526315789473684" x="187.5" y="48.23684210526316" stroke="none" fill="hsla(83, 72%, 50%, 1.00)" rx="1.763157894736842" transform="rotate(45, 200, 50)"></rect><rect width="3.526315789473684" height="25" x="198.23684210526315" y="37.5" stroke="none" fill="hsla(83, 72%, 50%, 1.00)" rx="1.763157894736842" transform="rotate(45, 200, 50)"></rect><rect width="25" height="3.526315789473684" x="254.16666666666669" y="48.23684210526316" stroke="none" fill="hsla(83, 80%, 20%, 0.85)" rx="1.763157894736842" transform="rotate(45, 266.6666666666667, 50)"></rect><rect width="3.526315789473684" height="25" x="264.90350877192986" y="37.5" stroke="none" fill="hsla(83, 80%, 20%, 0.85)" rx="1.763157894736842" transform="rotate(45, 266.6666666666667, 50)"></rect><rect width="25" height="3.526315789473684" x="320.83333333333337" y="48.23684210526316" stroke="none" fill="hsla(83, 72%, 50%, 1.00)" rx="1.763157894736842" transform="rotate(45, 333.33333333333337, 50)"></rect><rect width="3.526315789473684" height="25" x="331.57017543859655" y="37.5" stroke="none" fill="hsla(83, 72%, 50%, 1.00)" rx="1.763157894736842" transform="rotate(45, 333.33333333333337, 50)"></rect><rect width="25" height="3.526315789473684" x="387.50000000000006" y="48.23684210526316" stroke="none" fill="hsla(83, 80%, 20%, 0.85)" rx="1.763157894736842" transform="rotate(45, 400.00000000000006, 50)"></rect><rect width="3.526315789473684" height="25" x="398.23684210526324" y="37.5" stroke="none" fill="hsla(83, 80%, 20%, 0.85)" rx="1.763157894736842" transform="rotate(45, 400.00000000000006, 50)"></rect><rect width="25" height="3.526315789473684" x="454.16666666666674" y="48.23684210526316" stroke="none" fill="hsla(83, 72%, 50%, 1.00)" rx="1.763157894736842" transform="rotate(45, 466.66666666666674, 50)"></rect><rect width="3.526315789473684" height="25" x="464.9035087719299" y="37.5" stroke="none" fill="hsla(83, 72%, 50%, 1.00)" rx="1.763157894736842" transform="rotate(45, 466.66666666666674, 50)"></rect><rect width="25" height="3.526315789473684" x="520.8333333333334" y="48.23684210526316" stroke="none" fill="hsla(83, 80%, 20%, 0.85)" rx="1.763157894736842" transform="rotate(45, 533.3333333333334, 50)"></rect><rect width="3.526315789473684" height="25" x="531.5701754385965" y="37.5" stroke="none" fill="hsla(83, 80%, 20%, 0.85)" rx="1.763157894736842" transform="rotate(45, 533.3333333333334, 50)"></rect><rect width="25" height="3.526315789473684" x="587.5" y="48.23684210526316" stroke="none" fill="hsla(83, 72%, 50%, 1.00)" rx="1.763157894736842" transform="rotate(45, 600, 50)"></rect><rect width="3.526315789473684" height="25" x="598.2368421052631" y="37.5" stroke="none" fill="hsla(83, 72%, 50%, 1.00)" rx="1.763157894736842" transform="rotate(45, 600, 50)"></rect><rect width="25" height="3.526315789473684" x="654.1666666666666" y="48.23684210526316" stroke="none" fill="hsla(83, 80%, 20%, 0.85)" rx="1.763157894736842" transform="rotate(45, 666.6666666666666, 50)"></rect><rect width="3.526315789473684" height="25" x="664.9035087719298" y="37.5" stroke="none" fill="hsla(83, 80%, 20%, 0.85)" rx="1.763157894736842" transform="rotate(45, 666.6666666666666, 50)"></rect><rect width="25" height="3.526315789473684" x="720.8333333333333" y="48.23684210526316" stroke="none" fill="hsla(83, 72%, 50%, 1.00)" rx="1.763157894736842" transform="rotate(45, 733.3333333333333, 50)"></rect><rect width="3.526315789473684" height="25" x="731.5701754385964" y="37.5" stroke="none" fill="hsla(83, 72%, 50%, 1.00)" rx="1.763157894736842" transform="rotate(45, 733.3333333333333, 50)"></rect><rect width="25" height="3.526315789473684" x="787.4999999999999" y="48.23684210526316" stroke="none" fill="hsla(83, 80%, 20%, 0.85)" rx="1.763157894736842" transform="rotate(45, 799.9999999999999, 50)"></rect><rect width="3.526315789473684" height="25" x="798.236842105263" y="37.5" stroke="none" fill="hsla(83, 80%, 20%, 0.85)" rx="1.763157894736842" transform="rotate(45, 799.9999999999999, 50)"></rect><rect width="25" height="3.526315789473684" x="-12.5" y="98.23684210526316" stroke="none" fill="hsla(83, 72%, 50%, 1.00)" rx="1.763157894736842" transform="rotate(45, 0, 100)"></rect><rect width="3.526315789473684" height="25" x="-1.763157894736842" y="87.5" stroke="none" fill="hsla(83, 72%, 50%, 1.00)" rx="1.763157894736842" transform="rotate(45, 0, 100)"></rect><rect width="25" height="3.526315789473684" x="54.16666666666667" y="98.23684210526316" stroke="none" fill="hsla(83, 80%, 20%, 0.85)" rx="1.763157894736842" transform="rotate(45, 66.66666666666667, 100)"></rect><rect width="3.526315789473684" height="25" x="64.90350877192984" y="87.5" stroke="none" fill="hsla(83, 80%, 20%, 0.85)" rx="1.763157894736842" transform="rotate(45, 66.66666666666667, 100)"></rect><rect width="25" height="3.526315789473684" x="120.83333333333334" y="98.23684210526316" stroke="none" fill="hsla(83, 72%, 50%, 1.00)" rx="1.763157894736842" transform="rotate(45, 133.33333333333334, 100)"></rect><rect width="3.526315789473684" height="25" x="131.5701754385965" y="87.5" stroke="none" fill="hsla(83, 72%, 50%, 1.00)" rx="1.763157894736842" transform="rotate(45, 133.33333333333334, 100)"></rect><rect width="25" height="3.526315789473684" x="187.5" y="98.23684210526316" stroke="none" fill="hsla(83, 80%, 20%, 0.85)" rx="1.763157894736842" transform="rotate(45, 200, 100)"></rect><rect width="3.526315789473684" height="25" x="198.23684210526315" y="87.5" stroke="none" fill="hsla(83, 80%, 20%, 0.85)" rx="1.763157894736842" transform="rotate(45, 200, 100)"></rect><rect width="25" height="3.526315789473684" x="254.16666666666669" y="98.23684210526316" stroke="none" fill="hsla(83, 72%, 50%, 1.00)" rx="1.763157894736842" transform="rotate(45, 266.6666666666667, 100)"></rect><rect width="3.526315789473684" height="25" x="264.90350877192986" y="87.5" stroke="none" fill="hsla(83, 72%, 50%, 1.00)" rx="1.763157894736842" transform="rotate(45, 266.6666666666667, 100)"></rect><rect width="25" height="3.526315789473684" x="320.83333333333337" y="98.23684210526316" stroke="none" fill="hsla(83, 80%, 20%, 0.85)" rx="1.763157894736842" transform="rotate(45, 333.33333333333337, 100)"></rect><rect width="3.526315789473684" height="25" x="331.57017543859655" y="87.5" stroke="none" fill="hsla(83, 80%, 20%, 0.85)" rx="1.763157894736842" transform="rotate(45, 333.33333333333337, 100)"></rect><rect width="25" height="3.526315789473684" x="387.50000000000006" y="98.23684210526316" stroke="none" fill="hsla(83, 72%, 50%, 1.00)" rx="1.763157894736842" transform="rotate(45, 400.00000000000006, 100)"></rect><rect width="3.526315789473684" height="25" x="398.23684210526324" y="87.5" stroke="none" fill="hsla(83, 72%, 50%, 1.00)" rx="1.763157894736842" transform="rotate(45, 400.00000000000006, 100)"></rect><rect width="25" height="3.526315789473684" x="454.16666666666674" y="98.23684210526316" stroke="none" fill="hsla(83, 80%, 20%, 0.85)" rx="1.763157894736842" transform="rotate(45, 466.66666666666674, 100)"></rect><rect width="3.526315789473684" height="25" x="464.9035087719299" y="87.5" stroke="none" fill="hsla(83, 80%, 20%, 0.85)" rx="1.763157894736842" transform="rotate(45, 466.66666666666674, 100)"></rect><rect width="25" height="3.526315789473684" x="520.8333333333334" y="98.23684210526316" stroke="none" fill="hsla(83, 72%, 50%, 1.00)" rx="1.763157894736842" transform="rotate(45, 533.3333333333334, 100)"></rect><rect width="3.526315789473684" height="25" x="531.5701754385965" y="87.5" stroke="none" fill="hsla(83, 72%, 50%, 1.00)" rx="1.763157894736842" transform="rotate(45, 533.3333333333334, 100)"></rect><rect width="25" height="3.526315789473684" x="587.5" y="98.23684210526316" stroke="none" fill="hsla(83, 80%, 20%, 0.85)" rx="1.763157894736842" transform="rotate(45, 600, 100)"></rect><rect width="3.526315789473684" height="25" x="598.2368421052631" y="87.5" stroke="none" fill="hsla(83, 80%, 20%, 0.85)" rx="1.763157894736842" transform="rotate(45, 600, 100)"></rect><rect width="25" height="3.526315789473684" x="654.1666666666666" y="98.23684210526316" stroke="none" fill="hsla(83, 72%, 50%, 1.00)" rx="1.763157894736842" transform="rotate(45, 666.6666666666666, 100)"></rect><rect width="3.526315789473684" height="25" x="664.9035087719298" y="87.5" stroke="none" fill="hsla(83, 72%, 50%, 1.00)" rx="1.763157894736842" transform="rotate(45, 666.6666666666666, 100)"></rect><rect width="25" height="3.526315789473684" x="720.8333333333333" y="98.23684210526316" stroke="none" fill="hsla(83, 80%, 20%, 0.85)" rx="1.763157894736842" transform="rotate(45, 733.3333333333333, 100)"></rect><rect width="3.526315789473684" height="25" x="731.5701754385964" y="87.5" stroke="none" fill="hsla(83, 80%, 20%, 0.85)" rx="1.763157894736842" transform="rotate(45, 733.3333333333333, 100)"></rect><rect width="25" height="3.526315789473684" x="787.4999999999999" y="98.23684210526316" stroke="none" fill="hsla(83, 72%, 50%, 1.00)" rx="1.763157894736842" transform="rotate(45, 799.9999999999999, 100)"></rect><rect width="3.526315789473684" height="25" x="798.236842105263" y="87.5" stroke="none" fill="hsla(83, 72%, 50%, 1.00)" rx="1.763157894736842" transform="rotate(45, 799.9999999999999, 100)"></rect><rect width="25" height="3.526315789473684" x="-12.5" y="148.23684210526315" stroke="none" fill="hsla(83, 80%, 20%, 0.85)" rx="1.763157894736842" transform="rotate(45, 0, 150)"></rect><rect width="3.526315789473684" height="25" x="-1.763157894736842" y="137.5" stroke="none" fill="hsla(83, 80%, 20%, 0.85)" rx="1.763157894736842" transform="rotate(45, 0, 150)"></rect><rect width="25" height="3.526315789473684" x="54.16666666666667" y="148.23684210526315" stroke="none" fill="hsla(83, 72%, 50%, 1.00)" rx="1.763157894736842" transform="rotate(45, 66.66666666666667, 150)"></rect><rect width="3.526315789473684" height="25" x="64.90350877192984" y="137.5" stroke="none" fill="hsla(83, 72%, 50%, 1.00)" rx="1.763157894736842" transform="rotate(45, 66.66666666666667, 150)"></rect><rect width="25" height="3.526315789473684" x="120.83333333333334" y="148.23684210526315" stroke="none" fill="hsla(83, 80%, 20%, 0.85)" rx="1.763157894736842" transform="rotate(45, 133.33333333333334, 150)"></rect><rect width="3.526315789473684" height="25" x="131.5701754385965" y="137.5" stroke="none" fill="hsla(83, 80%, 20%, 0.85)" rx="1.763157894736842" transform="rotate(45, 133.33333333333334, 150)"></rect><rect width="25" height="3.526315789473684" x="187.5" y="148.23684210526315" stroke="none" fill="hsla(83, 72%, 50%, 1.00)" rx="1.763157894736842" transform="rotate(45, 200, 150)"></rect><rect width="3.526315789473684" height="25" x="198.23684210526315" y="137.5" stroke="none" fill="hsla(83, 72%, 50%, 1.00)" rx="1.763157894736842" transform="rotate(45, 200, 150)"></rect><rect width="25" height="3.526315789473684" x="254.16666666666669" y="148.23684210526315" stroke="none" fill="hsla(83, 80%, 20%, 0.85)" rx="1.763157894736842" transform="rotate(45, 266.6666666666667, 150)"></rect><rect width="3.526315789473684" height="25" x="264.90350877192986" y="137.5" stroke="none" fill="hsla(83, 80%, 20%, 0.85)" rx="1.763157894736842" transform="rotate(45, 266.6666666666667, 150)"></rect><rect width="25" height="3.526315789473684" x="320.83333333333337" y="148.23684210526315" stroke="none" fill="hsla(83, 72%, 50%, 1.00)" rx="1.763157894736842" transform="rotate(45, 333.33333333333337, 150)"></rect><rect width="3.526315789473684" height="25" x="331.57017543859655" y="137.5" stroke="none" fill="hsla(83, 72%, 50%, 1.00)" rx="1.763157894736842" transform="rotate(45, 333.33333333333337, 150)"></rect><rect width="25" height="3.526315789473684" x="387.50000000000006" y="148.23684210526315" stroke="none" fill="hsla(83, 80%, 20%, 0.85)" rx="1.763157894736842" transform="rotate(45, 400.00000000000006, 150)"></rect><rect width="3.526315789473684" height="25" x="398.23684210526324" y="137.5" stroke="none" fill="hsla(83, 80%, 20%, 0.85)" rx="1.763157894736842" transform="rotate(45, 400.00000000000006, 150)"></rect><rect width="25" height="3.526315789473684" x="454.16666666666674" y="148.23684210526315" stroke="none" fill="hsla(83, 72%, 50%, 1.00)" rx="1.763157894736842" transform="rotate(45, 466.66666666666674, 150)"></rect><rect width="3.526315789473684" height="25" x="464.9035087719299" y="137.5" stroke="none" fill="hsla(83, 72%, 50%, 1.00)" rx="1.763157894736842" transform="rotate(45, 466.66666666666674, 150)"></rect><rect width="25" height="3.526315789473684" x="520.8333333333334" y="148.23684210526315" stroke="none" fill="hsla(83, 80%, 20%, 0.85)" rx="1.763157894736842" transform="rotate(45, 533.3333333333334, 150)"></rect><rect width="3.526315789473684" height="25" x="531.5701754385965" y="137.5" stroke="none" fill="hsla(83, 80%, 20%, 0.85)" rx="1.763157894736842" transform="rotate(45, 533.3333333333334, 150)"></rect><rect width="25" height="3.526315789473684" x="587.5" y="148.23684210526315" stroke="none" fill="hsla(83, 72%, 50%, 1.00)" rx="1.763157894736842" transform="rotate(45, 600, 150)"></rect><rect width="3.526315789473684" height="25" x="598.2368421052631" y="137.5" stroke="none" fill="hsla(83, 72%, 50%, 1.00)" rx="1.763157894736842" transform="rotate(45, 600, 150)"></rect><rect width="25" height="3.526315789473684" x="654.1666666666666" y="148.23684210526315" stroke="none" fill="hsla(83, 80%, 20%, 0.85)" rx="1.763157894736842" transform="rotate(45, 666.6666666666666, 150)"></rect><rect width="3.526315789473684" height="25" x="664.9035087719298" y="137.5" stroke="none" fill="hsla(83, 80%, 20%, 0.85)" rx="1.763157894736842" transform="rotate(45, 666.6666666666666, 150)"></rect><rect width="25" height="3.526315789473684" x="720.8333333333333" y="148.23684210526315" stroke="none" fill="hsla(83, 72%, 50%, 1.00)" rx="1.763157894736842" transform="rotate(45, 733.3333333333333, 150)"></rect><rect width="3.526315789473684" height="25" x="731.5701754385964" y="137.5" stroke="none" fill="hsla(83, 72%, 50%, 1.00)" rx="1.763157894736842" transform="rotate(45, 733.3333333333333, 150)"></rect><rect width="25" height="3.526315789473684" x="787.4999999999999" y="148.23684210526315" stroke="none" fill="hsla(83, 80%, 20%, 0.85)" rx="1.763157894736842" transform="rotate(45, 799.9999999999999, 150)"></rect><rect width="3.526315789473684" height="25" x="798.236842105263" y="137.5" stroke="none" fill="hsla(83, 80%, 20%, 0.85)" rx="1.763157894736842" transform="rotate(45, 799.9999999999999, 150)"></rect><rect width="25" height="3.526315789473684" x="-12.5" y="198.23684210526315" stroke="none" fill="hsla(83, 72%, 50%, 1.00)" rx="1.763157894736842" transform="rotate(45, 0, 200)"></rect><rect width="3.526315789473684" height="25" x="-1.763157894736842" y="187.5" stroke="none" fill="hsla(83, 72%, 50%, 1.00)" rx="1.763157894736842" transform="rotate(45, 0, 200)"></rect><rect width="25" height="3.526315789473684" x="54.16666666666667" y="198.23684210526315" stroke="none" fill="hsla(83, 80%, 20%, 0.85)" rx="1.763157894736842" transform="rotate(45, 66.66666666666667, 200)"></rect><rect width="3.526315789473684" height="25" x="64.90350877192984" y="187.5" stroke="none" fill="hsla(83, 80%, 20%, 0.85)" rx="1.763157894736842" transform="rotate(45, 66.66666666666667, 200)"></rect><rect width="25" height="3.526315789473684" x="120.83333333333334" y="198.23684210526315" stroke="none" fill="hsla(83, 72%, 50%, 1.00)" rx="1.763157894736842" transform="rotate(45, 133.33333333333334, 200)"></rect><rect width="3.526315789473684" height="25" x="131.5701754385965" y="187.5" stroke="none" fill="hsla(83, 72%, 50%, 1.00)" rx="1.763157894736842" transform="rotate(45, 133.33333333333334, 200)"></rect><rect width="25" height="3.526315789473684" x="187.5" y="198.23684210526315" stroke="none" fill="hsla(83, 80%, 20%, 0.85)" rx="1.763157894736842" transform="rotate(45, 200, 200)"></rect><rect width="3.526315789473684" height="25" x="198.23684210526315" y="187.5" stroke="none" fill="hsla(83, 80%, 20%, 0.85)" rx="1.763157894736842" transform="rotate(45, 200, 200)"></rect><rect width="25" height="3.526315789473684" x="254.16666666666669" y="198.23684210526315" stroke="none" fill="hsla(83, 72%, 50%, 1.00)" rx="1.763157894736842" transform="rotate(45, 266.6666666666667, 200)"></rect><rect width="3.526315789473684" height="25" x="264.90350877192986" y="187.5" stroke="none" fill="hsla(83, 72%, 50%, 1.00)" rx="1.763157894736842" transform="rotate(45, 266.6666666666667, 200)"></rect><rect width="25" height="3.526315789473684" x="320.83333333333337" y="198.23684210526315" stroke="none" fill="hsla(83, 80%, 20%, 0.85)" rx="1.763157894736842" transform="rotate(45, 333.33333333333337, 200)"></rect><rect width="3.526315789473684" height="25" x="331.57017543859655" y="187.5" stroke="none" fill="hsla(83, 80%, 20%, 0.85)" rx="1.763157894736842" transform="rotate(45, 333.33333333333337, 200)"></rect><rect width="25" height="3.526315789473684" x="387.50000000000006" y="198.23684210526315" stroke="none" fill="hsla(83, 72%, 50%, 1.00)" rx="1.763157894736842" transform="rotate(45, 400.00000000000006, 200)"></rect><rect width="3.526315789473684" height="25" x="398.23684210526324" y="187.5" stroke="none" fill="hsla(83, 72%, 50%, 1.00)" rx="1.763157894736842" transform="rotate(45, 400.00000000000006, 200)"></rect><rect width="25" height="3.526315789473684" x="454.16666666666674" y="198.23684210526315" stroke="none" fill="hsla(83, 80%, 20%, 0.85)" rx="1.763157894736842" transform="rotate(45, 466.66666666666674, 200)"></rect><rect width="3.526315789473684" height="25" x="464.9035087719299" y="187.5" stroke="none" fill="hsla(83, 80%, 20%, 0.85)" rx="1.763157894736842" transform="rotate(45, 466.66666666666674, 200)"></rect><rect width="25" height="3.526315789473684" x="520.8333333333334" y="198.23684210526315" stroke="none" fill="hsla(83, 72%, 50%, 1.00)" rx="1.763157894736842" transform="rotate(45, 533.3333333333334, 200)"></rect><rect width="3.526315789473684" height="25" x="531.5701754385965" y="187.5" stroke="none" fill="hsla(83, 72%, 50%, 1.00)" rx="1.763157894736842" transform="rotate(45, 533.3333333333334, 200)"></rect><rect width="25" height="3.526315789473684" x="587.5" y="198.23684210526315" stroke="none" fill="hsla(83, 80%, 20%, 0.85)" rx="1.763157894736842" transform="rotate(45, 600, 200)"></rect><rect width="3.526315789473684" height="25" x="598.2368421052631" y="187.5" stroke="none" fill="hsla(83, 80%, 20%, 0.85)" rx="1.763157894736842" transform="rotate(45, 600, 200)"></rect><rect width="25" height="3.526315789473684" x="654.1666666666666" y="198.23684210526315" stroke="none" fill="hsla(83, 72%, 50%, 1.00)" rx="1.763157894736842" transform="rotate(45, 666.6666666666666, 200)"></rect><rect width="3.526315789473684" height="25" x="664.9035087719298" y="187.5" stroke="none" fill="hsla(83, 72%, 50%, 1.00)" rx="1.763157894736842" transform="rotate(45, 666.6666666666666, 200)"></rect><rect width="25" height="3.526315789473684" x="720.8333333333333" y="198.23684210526315" stroke="none" fill="hsla(83, 80%, 20%, 0.85)" rx="1.763157894736842" transform="rotate(45, 733.3333333333333, 200)"></rect><rect width="3.526315789473684" height="25" x="731.5701754385964" y="187.5" stroke="none" fill="hsla(83, 80%, 20%, 0.85)" rx="1.763157894736842" transform="rotate(45, 733.3333333333333, 200)"></rect><rect width="25" height="3.526315789473684" x="787.4999999999999" y="198.23684210526315" stroke="none" fill="hsla(83, 72%, 50%, 1.00)" rx="1.763157894736842" transform="rotate(45, 799.9999999999999, 200)"></rect><rect width="3.526315789473684" height="25" x="798.236842105263" y="187.5" stroke="none" fill="hsla(83, 72%, 50%, 1.00)" rx="1.763157894736842" transform="rotate(45, 799.9999999999999, 200)"></rect><rect width="25" height="3.526315789473684" x="-12.5" y="248.23684210526315" stroke="none" fill="hsla(83, 80%, 20%, 0.85)" rx="1.763157894736842" transform="rotate(45, 0, 250)"></rect><rect width="3.526315789473684" height="25" x="-1.763157894736842" y="237.5" stroke="none" fill="hsla(83, 80%, 20%, 0.85)" rx="1.763157894736842" transform="rotate(45, 0, 250)"></rect><rect width="25" height="3.526315789473684" x="54.16666666666667" y="248.23684210526315" stroke="none" fill="hsla(83, 72%, 50%, 1.00)" rx="1.763157894736842" transform="rotate(45, 66.66666666666667, 250)"></rect><rect width="3.526315789473684" height="25" x="64.90350877192984" y="237.5" stroke="none" fill="hsla(83, 72%, 50%, 1.00)" rx="1.763157894736842" transform="rotate(45, 66.66666666666667, 250)"></rect><rect width="25" height="3.526315789473684" x="120.83333333333334" y="248.23684210526315" stroke="none" fill="hsla(83, 80%, 20%, 0.85)" rx="1.763157894736842" transform="rotate(45, 133.33333333333334, 250)"></rect><rect width="3.526315789473684" height="25" x="131.5701754385965" y="237.5" stroke="none" fill="hsla(83, 80%, 20%, 0.85)" rx="1.763157894736842" transform="rotate(45, 133.33333333333334, 250)"></rect><rect width="25" height="3.526315789473684" x="187.5" y="248.23684210526315" stroke="none" fill="hsla(83, 72%, 50%, 1.00)" rx="1.763157894736842" transform="rotate(45, 200, 250)"></rect><rect width="3.526315789473684" height="25" x="198.23684210526315" y="237.5" stroke="none" fill="hsla(83, 72%, 50%, 1.00)" rx="1.763157894736842" transform="rotate(45, 200, 250)"></rect><rect width="25" height="3.526315789473684" x="254.16666666666669" y="248.23684210526315" stroke="none" fill="hsla(83, 80%, 20%, 0.85)" rx="1.763157894736842" transform="rotate(45, 266.6666666666667, 250)"></rect><rect width="3.526315789473684" height="25" x="264.90350877192986" y="237.5" stroke="none" fill="hsla(83, 80%, 20%, 0.85)" rx="1.763157894736842" transform="rotate(45, 266.6666666666667, 250)"></rect><rect width="25" height="3.526315789473684" x="320.83333333333337" y="248.23684210526315" stroke="none" fill="hsla(83, 72%, 50%, 1.00)" rx="1.763157894736842" transform="rotate(45, 333.33333333333337, 250)"></rect><rect width="3.526315789473684" height="25" x="331.57017543859655" y="237.5" stroke="none" fill="hsla(83, 72%, 50%, 1.00)" rx="1.763157894736842" transform="rotate(45, 333.33333333333337, 250)"></rect><rect width="25" height="3.526315789473684" x="387.50000000000006" y="248.23684210526315" stroke="none" fill="hsla(83, 80%, 20%, 0.85)" rx="1.763157894736842" transform="rotate(45, 400.00000000000006, 250)"></rect><rect width="3.526315789473684" height="25" x="398.23684210526324" y="237.5" stroke="none" fill="hsla(83, 80%, 20%, 0.85)" rx="1.763157894736842" transform="rotate(45, 400.00000000000006, 250)"></rect><rect width="25" height="3.526315789473684" x="454.16666666666674" y="248.23684210526315" stroke="none" fill="hsla(83, 72%, 50%, 1.00)" rx="1.763157894736842" transform="rotate(45, 466.66666666666674, 250)"></rect><rect width="3.526315789473684" height="25" x="464.9035087719299" y="237.5" stroke="none" fill="hsla(83, 72%, 50%, 1.00)" rx="1.763157894736842" transform="rotate(45, 466.66666666666674, 250)"></rect><rect width="25" height="3.526315789473684" x="520.8333333333334" y="248.23684210526315" stroke="none" fill="hsla(83, 80%, 20%, 0.85)" rx="1.763157894736842" transform="rotate(45, 533.3333333333334, 250)"></rect><rect width="3.526315789473684" height="25" x="531.5701754385965" y="237.5" stroke="none" fill="hsla(83, 80%, 20%, 0.85)" rx="1.763157894736842" transform="rotate(45, 533.3333333333334, 250)"></rect><rect width="25" height="3.526315789473684" x="587.5" y="248.23684210526315" stroke="none" fill="hsla(83, 72%, 50%, 1.00)" rx="1.763157894736842" transform="rotate(45, 600, 250)"></rect><rect width="3.526315789473684" height="25" x="598.2368421052631" y="237.5" stroke="none" fill="hsla(83, 72%, 50%, 1.00)" rx="1.763157894736842" transform="rotate(45, 600, 250)"></rect><rect width="25" height="3.526315789473684" x="654.1666666666666" y="248.23684210526315" stroke="none" fill="hsla(83, 80%, 20%, 0.85)" rx="1.763157894736842" transform="rotate(45, 666.6666666666666, 250)"></rect><rect width="3.526315789473684" height="25" x="664.9035087719298" y="237.5" stroke="none" fill="hsla(83, 80%, 20%, 0.85)" rx="1.763157894736842" transform="rotate(45, 666.6666666666666, 250)"></rect><rect width="25" height="3.526315789473684" x="720.8333333333333" y="248.23684210526315" stroke="none" fill="hsla(83, 72%, 50%, 1.00)" rx="1.763157894736842" transform="rotate(45, 733.3333333333333, 250)"></rect><rect width="3.526315789473684" height="25" x="731.5701754385964" y="237.5" stroke="none" fill="hsla(83, 72%, 50%, 1.00)" rx="1.763157894736842" transform="rotate(45, 733.3333333333333, 250)"></rect><rect width="25" height="3.526315789473684" x="787.4999999999999" y="248.23684210526315" stroke="none" fill="hsla(83, 80%, 20%, 0.85)" rx="1.763157894736842" transform="rotate(45, 799.9999999999999, 250)"></rect><rect width="3.526315789473684" height="25" x="798.236842105263" y="237.5" stroke="none" fill="hsla(83, 80%, 20%, 0.85)" rx="1.763157894736842" transform="rotate(45, 799.9999999999999, 250)"></rect><rect width="25" height="3.526315789473684" x="-12.5" y="298.2368421052632" stroke="none" fill="hsla(83, 72%, 50%, 1.00)" rx="1.763157894736842" transform="rotate(45, 0, 300)"></rect><rect width="3.526315789473684" height="25" x="-1.763157894736842" y="287.5" stroke="none" fill="hsla(83, 72%, 50%, 1.00)" rx="1.763157894736842" transform="rotate(45, 0, 300)"></rect><rect width="25" height="3.526315789473684" x="54.16666666666667" y="298.2368421052632" stroke="none" fill="hsla(83, 80%, 20%, 0.85)" rx="1.763157894736842" transform="rotate(45, 66.66666666666667, 300)"></rect><rect width="3.526315789473684" height="25" x="64.90350877192984" y="287.5" stroke="none" fill="hsla(83, 80%, 20%, 0.85)" rx="1.763157894736842" transform="rotate(45, 66.66666666666667, 300)"></rect><rect width="25" height="3.526315789473684" x="120.83333333333334" y="298.2368421052632" stroke="none" fill="hsla(83, 72%, 50%, 1.00)" rx="1.763157894736842" transform="rotate(45, 133.33333333333334, 300)"></rect><rect width="3.526315789473684" height="25" x="131.5701754385965" y="287.5" stroke="none" fill="hsla(83, 72%, 50%, 1.00)" rx="1.763157894736842" transform="rotate(45, 133.33333333333334, 300)"></rect><rect width="25" height="3.526315789473684" x="187.5" y="298.2368421052632" stroke="none" fill="hsla(83, 80%, 20%, 0.85)" rx="1.763157894736842" transform="rotate(45, 200, 300)"></rect><rect width="3.526315789473684" height="25" x="198.23684210526315" y="287.5" stroke="none" fill="hsla(83, 80%, 20%, 0.85)" rx="1.763157894736842" transform="rotate(45, 200, 300)"></rect><rect width="25" height="3.526315789473684" x="254.16666666666669" y="298.2368421052632" stroke="none" fill="hsla(83, 72%, 50%, 1.00)" rx="1.763157894736842" transform="rotate(45, 266.6666666666667, 300)"></rect><rect width="3.526315789473684" height="25" x="264.90350877192986" y="287.5" stroke="none" fill="hsla(83, 72%, 50%, 1.00)" rx="1.763157894736842" transform="rotate(45, 266.6666666666667, 300)"></rect><rect width="25" height="3.526315789473684" x="320.83333333333337" y="298.2368421052632" stroke="none" fill="hsla(83, 80%, 20%, 0.85)" rx="1.763157894736842" transform="rotate(45, 333.33333333333337, 300)"></rect><rect width="3.526315789473684" height="25" x="331.57017543859655" y="287.5" stroke="none" fill="hsla(83, 80%, 20%, 0.85)" rx="1.763157894736842" transform="rotate(45, 333.33333333333337, 300)"></rect><rect width="25" height="3.526315789473684" x="387.50000000000006" y="298.2368421052632" stroke="none" fill="hsla(83, 72%, 50%, 1.00)" rx="1.763157894736842" transform="rotate(45, 400.00000000000006, 300)"></rect><rect width="3.526315789473684" height="25" x="398.23684210526324" y="287.5" stroke="none" fill="hsla(83, 72%, 50%, 1.00)" rx="1.763157894736842" transform="rotate(45, 400.00000000000006, 300)"></rect><rect width="25" height="3.526315789473684" x="454.16666666666674" y="298.2368421052632" stroke="none" fill="hsla(83, 80%, 20%, 0.85)" rx="1.763157894736842" transform="rotate(45, 466.66666666666674, 300)"></rect><rect width="3.526315789473684" height="25" x="464.9035087719299" y="287.5" stroke="none" fill="hsla(83, 80%, 20%, 0.85)" rx="1.763157894736842" transform="rotate(45, 466.66666666666674, 300)"></rect><rect width="25" height="3.526315789473684" x="520.8333333333334" y="298.2368421052632" stroke="none" fill="hsla(83, 72%, 50%, 1.00)" rx="1.763157894736842" transform="rotate(45, 533.3333333333334, 300)"></rect><rect width="3.526315789473684" height="25" x="531.5701754385965" y="287.5" stroke="none" fill="hsla(83, 72%, 50%, 1.00)" rx="1.763157894736842" transform="rotate(45, 533.3333333333334, 300)"></rect><rect width="25" height="3.526315789473684" x="587.5" y="298.2368421052632" stroke="none" fill="hsla(83, 80%, 20%, 0.85)" rx="1.763157894736842" transform="rotate(45, 600, 300)"></rect><rect width="3.526315789473684" height="25" x="598.2368421052631" y="287.5" stroke="none" fill="hsla(83, 80%, 20%, 0.85)" rx="1.763157894736842" transform="rotate(45, 600, 300)"></rect><rect width="25" height="3.526315789473684" x="654.1666666666666" y="298.2368421052632" stroke="none" fill="hsla(83, 72%, 50%, 1.00)" rx="1.763157894736842" transform="rotate(45, 666.6666666666666, 300)"></rect><rect width="3.526315789473684" height="25" x="664.9035087719298" y="287.5" stroke="none" fill="hsla(83, 72%, 50%, 1.00)" rx="1.763157894736842" transform="rotate(45, 666.6666666666666, 300)"></rect><rect width="25" height="3.526315789473684" x="720.8333333333333" y="298.2368421052632" stroke="none" fill="hsla(83, 80%, 20%, 0.85)" rx="1.763157894736842" transform="rotate(45, 733.3333333333333, 300)"></rect><rect width="3.526315789473684" height="25" x="731.5701754385964" y="287.5" stroke="none" fill="hsla(83, 80%, 20%, 0.85)" rx="1.763157894736842" transform="rotate(45, 733.3333333333333, 300)"></rect><rect width="25" height="3.526315789473684" x="787.4999999999999" y="298.2368421052632" stroke="none" fill="hsla(83, 72%, 50%, 1.00)" rx="1.763157894736842" transform="rotate(45, 799.9999999999999, 300)"></rect><rect width="3.526315789473684" height="25" x="798.236842105263" y="287.5" stroke="none" fill="hsla(83, 72%, 50%, 1.00)" rx="1.763157894736842" transform="rotate(45, 799.9999999999999, 300)"></rect><rect width="25" height="3.526315789473684" x="-12.5" y="348.2368421052632" stroke="none" fill="hsla(83, 80%, 20%, 0.85)" rx="1.763157894736842" transform="rotate(45, 0, 350)"></rect><rect width="3.526315789473684" height="25" x="-1.763157894736842" y="337.5" stroke="none" fill="hsla(83, 80%, 20%, 0.85)" rx="1.763157894736842" transform="rotate(45, 0, 350)"></rect><rect width="25" height="3.526315789473684" x="54.16666666666667" y="348.2368421052632" stroke="none" fill="hsla(83, 72%, 50%, 1.00)" rx="1.763157894736842" transform="rotate(45, 66.66666666666667, 350)"></rect><rect width="3.526315789473684" height="25" x="64.90350877192984" y="337.5" stroke="none" fill="hsla(83, 72%, 50%, 1.00)" rx="1.763157894736842" transform="rotate(45, 66.66666666666667, 350)"></rect><rect width="25" height="3.526315789473684" x="120.83333333333334" y="348.2368421052632" stroke="none" fill="hsla(83, 80%, 20%, 0.85)" rx="1.763157894736842" transform="rotate(45, 133.33333333333334, 350)"></rect><rect width="3.526315789473684" height="25" x="131.5701754385965" y="337.5" stroke="none" fill="hsla(83, 80%, 20%, 0.85)" rx="1.763157894736842" transform="rotate(45, 133.33333333333334, 350)"></rect><rect width="25" height="3.526315789473684" x="187.5" y="348.2368421052632" stroke="none" fill="hsla(83, 72%, 50%, 1.00)" rx="1.763157894736842" transform="rotate(45, 200, 350)"></rect><rect width="3.526315789473684" height="25" x="198.23684210526315" y="337.5" stroke="none" fill="hsla(83, 72%, 50%, 1.00)" rx="1.763157894736842" transform="rotate(45, 200, 350)"></rect><rect width="25" height="3.526315789473684" x="254.16666666666669" y="348.2368421052632" stroke="none" fill="hsla(83, 80%, 20%, 0.85)" rx="1.763157894736842" transform="rotate(45, 266.6666666666667, 350)"></rect><rect width="3.526315789473684" height="25" x="264.90350877192986" y="337.5" stroke="none" fill="hsla(83, 80%, 20%, 0.85)" rx="1.763157894736842" transform="rotate(45, 266.6666666666667, 350)"></rect><rect width="25" height="3.526315789473684" x="320.83333333333337" y="348.2368421052632" stroke="none" fill="hsla(83, 72%, 50%, 1.00)" rx="1.763157894736842" transform="rotate(45, 333.33333333333337, 350)"></rect><rect width="3.526315789473684" height="25" x="331.57017543859655" y="337.5" stroke="none" fill="hsla(83, 72%, 50%, 1.00)" rx="1.763157894736842" transform="rotate(45, 333.33333333333337, 350)"></rect><rect width="25" height="3.526315789473684" x="387.50000000000006" y="348.2368421052632" stroke="none" fill="hsla(83, 80%, 20%, 0.85)" rx="1.763157894736842" transform="rotate(45, 400.00000000000006, 350)"></rect><rect width="3.526315789473684" height="25" x="398.23684210526324" y="337.5" stroke="none" fill="hsla(83, 80%, 20%, 0.85)" rx="1.763157894736842" transform="rotate(45, 400.00000000000006, 350)"></rect><rect width="25" height="3.526315789473684" x="454.16666666666674" y="348.2368421052632" stroke="none" fill="hsla(83, 72%, 50%, 1.00)" rx="1.763157894736842" transform="rotate(45, 466.66666666666674, 350)"></rect><rect width="3.526315789473684" height="25" x="464.9035087719299" y="337.5" stroke="none" fill="hsla(83, 72%, 50%, 1.00)" rx="1.763157894736842" transform="rotate(45, 466.66666666666674, 350)"></rect><rect width="25" height="3.526315789473684" x="520.8333333333334" y="348.2368421052632" stroke="none" fill="hsla(83, 80%, 20%, 0.85)" rx="1.763157894736842" transform="rotate(45, 533.3333333333334, 350)"></rect><rect width="3.526315789473684" height="25" x="531.5701754385965" y="337.5" stroke="none" fill="hsla(83, 80%, 20%, 0.85)" rx="1.763157894736842" transform="rotate(45, 533.3333333333334, 350)"></rect><rect width="25" height="3.526315789473684" x="587.5" y="348.2368421052632" stroke="none" fill="hsla(83, 72%, 50%, 1.00)" rx="1.763157894736842" transform="rotate(45, 600, 350)"></rect><rect width="3.526315789473684" height="25" x="598.2368421052631" y="337.5" stroke="none" fill="hsla(83, 72%, 50%, 1.00)" rx="1.763157894736842" transform="rotate(45, 600, 350)"></rect><rect width="25" height="3.526315789473684" x="654.1666666666666" y="348.2368421052632" stroke="none" fill="hsla(83, 80%, 20%, 0.85)" rx="1.763157894736842" transform="rotate(45, 666.6666666666666, 350)"></rect><rect width="3.526315789473684" height="25" x="664.9035087719298" y="337.5" stroke="none" fill="hsla(83, 80%, 20%, 0.85)" rx="1.763157894736842" transform="rotate(45, 666.6666666666666, 350)"></rect><rect width="25" height="3.526315789473684" x="720.8333333333333" y="348.2368421052632" stroke="none" fill="hsla(83, 72%, 50%, 1.00)" rx="1.763157894736842" transform="rotate(45, 733.3333333333333, 350)"></rect><rect width="3.526315789473684" height="25" x="731.5701754385964" y="337.5" stroke="none" fill="hsla(83, 72%, 50%, 1.00)" rx="1.763157894736842" transform="rotate(45, 733.3333333333333, 350)"></rect><rect width="25" height="3.526315789473684" x="787.4999999999999" y="348.2368421052632" stroke="none" fill="hsla(83, 80%, 20%, 0.85)" rx="1.763157894736842" transform="rotate(45, 799.9999999999999, 350)"></rect><rect width="3.526315789473684" height="25" x="798.236842105263" y="337.5" stroke="none" fill="hsla(83, 80%, 20%, 0.85)" rx="1.763157894736842" transform="rotate(45, 799.9999999999999, 350)"></rect><rect width="25" height="3.526315789473684" x="-12.5" y="398.2368421052632" stroke="none" fill="hsla(83, 72%, 50%, 1.00)" rx="1.763157894736842" transform="rotate(45, 0, 400)"></rect><rect width="3.526315789473684" height="25" x="-1.763157894736842" y="387.5" stroke="none" fill="hsla(83, 72%, 50%, 1.00)" rx="1.763157894736842" transform="rotate(45, 0, 400)"></rect><rect width="25" height="3.526315789473684" x="54.16666666666667" y="398.2368421052632" stroke="none" fill="hsla(83, 80%, 20%, 0.85)" rx="1.763157894736842" transform="rotate(45, 66.66666666666667, 400)"></rect><rect width="3.526315789473684" height="25" x="64.90350877192984" y="387.5" stroke="none" fill="hsla(83, 80%, 20%, 0.85)" rx="1.763157894736842" transform="rotate(45, 66.66666666666667, 400)"></rect><rect width="25" height="3.526315789473684" x="120.83333333333334" y="398.2368421052632" stroke="none" fill="hsla(83, 72%, 50%, 1.00)" rx="1.763157894736842" transform="rotate(45, 133.33333333333334, 400)"></rect><rect width="3.526315789473684" height="25" x="131.5701754385965" y="387.5" stroke="none" fill="hsla(83, 72%, 50%, 1.00)" rx="1.763157894736842" transform="rotate(45, 133.33333333333334, 400)"></rect><rect width="25" height="3.526315789473684" x="187.5" y="398.2368421052632" stroke="none" fill="hsla(83, 80%, 20%, 0.85)" rx="1.763157894736842" transform="rotate(45, 200, 400)"></rect><rect width="3.526315789473684" height="25" x="198.23684210526315" y="387.5" stroke="none" fill="hsla(83, 80%, 20%, 0.85)" rx="1.763157894736842" transform="rotate(45, 200, 400)"></rect><rect width="25" height="3.526315789473684" x="254.16666666666669" y="398.2368421052632" stroke="none" fill="hsla(83, 72%, 50%, 1.00)" rx="1.763157894736842" transform="rotate(45, 266.6666666666667, 400)"></rect><rect width="3.526315789473684" height="25" x="264.90350877192986" y="387.5" stroke="none" fill="hsla(83, 72%, 50%, 1.00)" rx="1.763157894736842" transform="rotate(45, 266.6666666666667, 400)"></rect><rect width="25" height="3.526315789473684" x="320.83333333333337" y="398.2368421052632" stroke="none" fill="hsla(83, 80%, 20%, 0.85)" rx="1.763157894736842" transform="rotate(45, 333.33333333333337, 400)"></rect><rect width="3.526315789473684" height="25" x="331.57017543859655" y="387.5" stroke="none" fill="hsla(83, 80%, 20%, 0.85)" rx="1.763157894736842" transform="rotate(45, 333.33333333333337, 400)"></rect><rect width="25" height="3.526315789473684" x="387.50000000000006" y="398.2368421052632" stroke="none" fill="hsla(83, 72%, 50%, 1.00)" rx="1.763157894736842" transform="rotate(45, 400.00000000000006, 400)"></rect><rect width="3.526315789473684" height="25" x="398.23684210526324" y="387.5" stroke="none" fill="hsla(83, 72%, 50%, 1.00)" rx="1.763157894736842" transform="rotate(45, 400.00000000000006, 400)"></rect><rect width="25" height="3.526315789473684" x="454.16666666666674" y="398.2368421052632" stroke="none" fill="hsla(83, 80%, 20%, 0.85)" rx="1.763157894736842" transform="rotate(45, 466.66666666666674, 400)"></rect><rect width="3.526315789473684" height="25" x="464.9035087719299" y="387.5" stroke="none" fill="hsla(83, 80%, 20%, 0.85)" rx="1.763157894736842" transform="rotate(45, 466.66666666666674, 400)"></rect><rect width="25" height="3.526315789473684" x="520.8333333333334" y="398.2368421052632" stroke="none" fill="hsla(83, 72%, 50%, 1.00)" rx="1.763157894736842" transform="rotate(45, 533.3333333333334, 400)"></rect><rect width="3.526315789473684" height="25" x="531.5701754385965" y="387.5" stroke="none" fill="hsla(83, 72%, 50%, 1.00)" rx="1.763157894736842" transform="rotate(45, 533.3333333333334, 400)"></rect><rect width="25" height="3.526315789473684" x="587.5" y="398.2368421052632" stroke="none" fill="hsla(83, 80%, 20%, 0.85)" rx="1.763157894736842" transform="rotate(45, 600, 400)"></rect><rect width="3.526315789473684" height="25" x="598.2368421052631" y="387.5" stroke="none" fill="hsla(83, 80%, 20%, 0.85)" rx="1.763157894736842" transform="rotate(45, 600, 400)"></rect><rect width="25" height="3.526315789473684" x="654.1666666666666" y="398.2368421052632" stroke="none" fill="hsla(83, 72%, 50%, 1.00)" rx="1.763157894736842" transform="rotate(45, 666.6666666666666, 400)"></rect><rect width="3.526315789473684" height="25" x="664.9035087719298" y="387.5" stroke="none" fill="hsla(83, 72%, 50%, 1.00)" rx="1.763157894736842" transform="rotate(45, 666.6666666666666, 400)"></rect><rect width="25" height="3.526315789473684" x="720.8333333333333" y="398.2368421052632" stroke="none" fill="hsla(83, 80%, 20%, 0.85)" rx="1.763157894736842" transform="rotate(45, 733.3333333333333, 400)"></rect><rect width="3.526315789473684" height="25" x="731.5701754385964" y="387.5" stroke="none" fill="hsla(83, 80%, 20%, 0.85)" rx="1.763157894736842" transform="rotate(45, 733.3333333333333, 400)"></rect><rect width="25" height="3.526315789473684" x="787.4999999999999" y="398.2368421052632" stroke="none" fill="hsla(83, 72%, 50%, 1.00)" rx="1.763157894736842" transform="rotate(45, 799.9999999999999, 400)"></rect><rect width="3.526315789473684" height="25" x="798.236842105263" y="387.5" stroke="none" fill="hsla(83, 72%, 50%, 1.00)" rx="1.763157894736842" transform="rotate(45, 799.9999999999999, 400)"></rect><rect width="25" height="3.526315789473684" x="-12.5" y="448.2368421052632" stroke="none" fill="hsla(83, 80%, 20%, 0.85)" rx="1.763157894736842" transform="rotate(45, 0, 450)"></rect><rect width="3.526315789473684" height="25" x="-1.763157894736842" y="437.5" stroke="none" fill="hsla(83, 80%, 20%, 0.85)" rx="1.763157894736842" transform="rotate(45, 0, 450)"></rect><rect width="25" height="3.526315789473684" x="54.16666666666667" y="448.2368421052632" stroke="none" fill="hsla(83, 72%, 50%, 1.00)" rx="1.763157894736842" transform="rotate(45, 66.66666666666667, 450)"></rect><rect width="3.526315789473684" height="25" x="64.90350877192984" y="437.5" stroke="none" fill="hsla(83, 72%, 50%, 1.00)" rx="1.763157894736842" transform="rotate(45, 66.66666666666667, 450)"></rect><rect width="25" height="3.526315789473684" x="120.83333333333334" y="448.2368421052632" stroke="none" fill="hsla(83, 80%, 20%, 0.85)" rx="1.763157894736842" transform="rotate(45, 133.33333333333334, 450)"></rect><rect width="3.526315789473684" height="25" x="131.5701754385965" y="437.5" stroke="none" fill="hsla(83, 80%, 20%, 0.85)" rx="1.763157894736842" transform="rotate(45, 133.33333333333334, 450)"></rect><rect width="25" height="3.526315789473684" x="187.5" y="448.2368421052632" stroke="none" fill="hsla(83, 72%, 50%, 1.00)" rx="1.763157894736842" transform="rotate(45, 200, 450)"></rect><rect width="3.526315789473684" height="25" x="198.23684210526315" y="437.5" stroke="none" fill="hsla(83, 72%, 50%, 1.00)" rx="1.763157894736842" transform="rotate(45, 200, 450)"></rect><rect width="25" height="3.526315789473684" x="254.16666666666669" y="448.2368421052632" stroke="none" fill="hsla(83, 80%, 20%, 0.85)" rx="1.763157894736842" transform="rotate(45, 266.6666666666667, 450)"></rect><rect width="3.526315789473684" height="25" x="264.90350877192986" y="437.5" stroke="none" fill="hsla(83, 80%, 20%, 0.85)" rx="1.763157894736842" transform="rotate(45, 266.6666666666667, 450)"></rect><rect width="25" height="3.526315789473684" x="320.83333333333337" y="448.2368421052632" stroke="none" fill="hsla(83, 72%, 50%, 1.00)" rx="1.763157894736842" transform="rotate(45, 333.33333333333337, 450)"></rect><rect width="3.526315789473684" height="25" x="331.57017543859655" y="437.5" stroke="none" fill="hsla(83, 72%, 50%, 1.00)" rx="1.763157894736842" transform="rotate(45, 333.33333333333337, 450)"></rect><rect width="25" height="3.526315789473684" x="387.50000000000006" y="448.2368421052632" stroke="none" fill="hsla(83, 80%, 20%, 0.85)" rx="1.763157894736842" transform="rotate(45, 400.00000000000006, 450)"></rect><rect width="3.526315789473684" height="25" x="398.23684210526324" y="437.5" stroke="none" fill="hsla(83, 80%, 20%, 0.85)" rx="1.763157894736842" transform="rotate(45, 400.00000000000006, 450)"></rect><rect width="25" height="3.526315789473684" x="454.16666666666674" y="448.2368421052632" stroke="none" fill="hsla(83, 72%, 50%, 1.00)" rx="1.763157894736842" transform="rotate(45, 466.66666666666674, 450)"></rect><rect width="3.526315789473684" height="25" x="464.9035087719299" y="437.5" stroke="none" fill="hsla(83, 72%, 50%, 1.00)" rx="1.763157894736842" transform="rotate(45, 466.66666666666674, 450)"></rect><rect width="25" height="3.526315789473684" x="520.8333333333334" y="448.2368421052632" stroke="none" fill="hsla(83, 80%, 20%, 0.85)" rx="1.763157894736842" transform="rotate(45, 533.3333333333334, 450)"></rect><rect width="3.526315789473684" height="25" x="531.5701754385965" y="437.5" stroke="none" fill="hsla(83, 80%, 20%, 0.85)" rx="1.763157894736842" transform="rotate(45, 533.3333333333334, 450)"></rect><rect width="25" height="3.526315789473684" x="587.5" y="448.2368421052632" stroke="none" fill="hsla(83, 72%, 50%, 1.00)" rx="1.763157894736842" transform="rotate(45, 600, 450)"></rect><rect width="3.526315789473684" height="25" x="598.2368421052631" y="437.5" stroke="none" fill="hsla(83, 72%, 50%, 1.00)" rx="1.763157894736842" transform="rotate(45, 600, 450)"></rect><rect width="25" height="3.526315789473684" x="654.1666666666666" y="448.2368421052632" stroke="none" fill="hsla(83, 80%, 20%, 0.85)" rx="1.763157894736842" transform="rotate(45, 666.6666666666666, 450)"></rect><rect width="3.526315789473684" height="25" x="664.9035087719298" y="437.5" stroke="none" fill="hsla(83, 80%, 20%, 0.85)" rx="1.763157894736842" transform="rotate(45, 666.6666666666666, 450)"></rect><rect width="25" height="3.526315789473684" x="720.8333333333333" y="448.2368421052632" stroke="none" fill="hsla(83, 72%, 50%, 1.00)" rx="1.763157894736842" transform="rotate(45, 733.3333333333333, 450)"></rect><rect width="3.526315789473684" height="25" x="731.5701754385964" y="437.5" stroke="none" fill="hsla(83, 72%, 50%, 1.00)" rx="1.763157894736842" transform="rotate(45, 733.3333333333333, 450)"></rect><rect width="25" height="3.526315789473684" x="787.4999999999999" y="448.2368421052632" stroke="none" fill="hsla(83, 80%, 20%, 0.85)" rx="1.763157894736842" transform="rotate(45, 799.9999999999999, 450)"></rect><rect width="3.526315789473684" height="25" x="798.236842105263" y="437.5" stroke="none" fill="hsla(83, 80%, 20%, 0.85)" rx="1.763157894736842" transform="rotate(45, 799.9999999999999, 450)"></rect><rect width="25" height="3.526315789473684" x="-12.5" y="498.2368421052632" stroke="none" fill="hsla(83, 72%, 50%, 1.00)" rx="1.763157894736842" transform="rotate(45, 0, 500)"></rect><rect width="3.526315789473684" height="25" x="-1.763157894736842" y="487.5" stroke="none" fill="hsla(83, 72%, 50%, 1.00)" rx="1.763157894736842" transform="rotate(45, 0, 500)"></rect><rect width="25" height="3.526315789473684" x="54.16666666666667" y="498.2368421052632" stroke="none" fill="hsla(83, 80%, 20%, 0.85)" rx="1.763157894736842" transform="rotate(45, 66.66666666666667, 500)"></rect><rect width="3.526315789473684" height="25" x="64.90350877192984" y="487.5" stroke="none" fill="hsla(83, 80%, 20%, 0.85)" rx="1.763157894736842" transform="rotate(45, 66.66666666666667, 500)"></rect><rect width="25" height="3.526315789473684" x="120.83333333333334" y="498.2368421052632" stroke="none" fill="hsla(83, 72%, 50%, 1.00)" rx="1.763157894736842" transform="rotate(45, 133.33333333333334, 500)"></rect><rect width="3.526315789473684" height="25" x="131.5701754385965" y="487.5" stroke="none" fill="hsla(83, 72%, 50%, 1.00)" rx="1.763157894736842" transform="rotate(45, 133.33333333333334, 500)"></rect><rect width="25" height="3.526315789473684" x="187.5" y="498.2368421052632" stroke="none" fill="hsla(83, 80%, 20%, 0.85)" rx="1.763157894736842" transform="rotate(45, 200, 500)"></rect><rect width="3.526315789473684" height="25" x="198.23684210526315" y="487.5" stroke="none" fill="hsla(83, 80%, 20%, 0.85)" rx="1.763157894736842" transform="rotate(45, 200, 500)"></rect><rect width="25" height="3.526315789473684" x="254.16666666666669" y="498.2368421052632" stroke="none" fill="hsla(83, 72%, 50%, 1.00)" rx="1.763157894736842" transform="rotate(45, 266.6666666666667, 500)"></rect><rect width="3.526315789473684" height="25" x="264.90350877192986" y="487.5" stroke="none" fill="hsla(83, 72%, 50%, 1.00)" rx="1.763157894736842" transform="rotate(45, 266.6666666666667, 500)"></rect><rect width="25" height="3.526315789473684" x="320.83333333333337" y="498.2368421052632" stroke="none" fill="hsla(83, 80%, 20%, 0.85)" rx="1.763157894736842" transform="rotate(45, 333.33333333333337, 500)"></rect><rect width="3.526315789473684" height="25" x="331.57017543859655" y="487.5" stroke="none" fill="hsla(83, 80%, 20%, 0.85)" rx="1.763157894736842" transform="rotate(45, 333.33333333333337, 500)"></rect><rect width="25" height="3.526315789473684" x="387.50000000000006" y="498.2368421052632" stroke="none" fill="hsla(83, 72%, 50%, 1.00)" rx="1.763157894736842" transform="rotate(45, 400.00000000000006, 500)"></rect><rect width="3.526315789473684" height="25" x="398.23684210526324" y="487.5" stroke="none" fill="hsla(83, 72%, 50%, 1.00)" rx="1.763157894736842" transform="rotate(45, 400.00000000000006, 500)"></rect><rect width="25" height="3.526315789473684" x="454.16666666666674" y="498.2368421052632" stroke="none" fill="hsla(83, 80%, 20%, 0.85)" rx="1.763157894736842" transform="rotate(45, 466.66666666666674, 500)"></rect><rect width="3.526315789473684" height="25" x="464.9035087719299" y="487.5" stroke="none" fill="hsla(83, 80%, 20%, 0.85)" rx="1.763157894736842" transform="rotate(45, 466.66666666666674, 500)"></rect><rect width="25" height="3.526315789473684" x="520.8333333333334" y="498.2368421052632" stroke="none" fill="hsla(83, 72%, 50%, 1.00)" rx="1.763157894736842" transform="rotate(45, 533.3333333333334, 500)"></rect><rect width="3.526315789473684" height="25" x="531.5701754385965" y="487.5" stroke="none" fill="hsla(83, 72%, 50%, 1.00)" rx="1.763157894736842" transform="rotate(45, 533.3333333333334, 500)"></rect><rect width="25" height="3.526315789473684" x="587.5" y="498.2368421052632" stroke="none" fill="hsla(83, 80%, 20%, 0.85)" rx="1.763157894736842" transform="rotate(45, 600, 500)"></rect><rect width="3.526315789473684" height="25" x="598.2368421052631" y="487.5" stroke="none" fill="hsla(83, 80%, 20%, 0.85)" rx="1.763157894736842" transform="rotate(45, 600, 500)"></rect><rect width="25" height="3.526315789473684" x="654.1666666666666" y="498.2368421052632" stroke="none" fill="hsla(83, 72%, 50%, 1.00)" rx="1.763157894736842" transform="rotate(45, 666.6666666666666, 500)"></rect><rect width="3.526315789473684" height="25" x="664.9035087719298" y="487.5" stroke="none" fill="hsla(83, 72%, 50%, 1.00)" rx="1.763157894736842" transform="rotate(45, 666.6666666666666, 500)"></rect><rect width="25" height="3.526315789473684" x="720.8333333333333" y="498.2368421052632" stroke="none" fill="hsla(83, 80%, 20%, 0.85)" rx="1.763157894736842" transform="rotate(45, 733.3333333333333, 500)"></rect><rect width="3.526315789473684" height="25" x="731.5701754385964" y="487.5" stroke="none" fill="hsla(83, 80%, 20%, 0.85)" rx="1.763157894736842" transform="rotate(45, 733.3333333333333, 500)"></rect><rect width="25" height="3.526315789473684" x="787.4999999999999" y="498.2368421052632" stroke="none" fill="hsla(83, 72%, 50%, 1.00)" rx="1.763157894736842" transform="rotate(45, 799.9999999999999, 500)"></rect><rect width="3.526315789473684" height="25" x="798.236842105263" y="487.5" stroke="none" fill="hsla(83, 72%, 50%, 1.00)" rx="1.763157894736842" transform="rotate(45, 799.9999999999999, 500)"></rect><rect width="25" height="3.526315789473684" x="-12.5" y="548.2368421052631" stroke="none" fill="hsla(83, 80%, 20%, 0.85)" rx="1.763157894736842" transform="rotate(45, 0, 550)"></rect><rect width="3.526315789473684" height="25" x="-1.763157894736842" y="537.5" stroke="none" fill="hsla(83, 80%, 20%, 0.85)" rx="1.763157894736842" transform="rotate(45, 0, 550)"></rect><rect width="25" height="3.526315789473684" x="54.16666666666667" y="548.2368421052631" stroke="none" fill="hsla(83, 72%, 50%, 1.00)" rx="1.763157894736842" transform="rotate(45, 66.66666666666667, 550)"></rect><rect width="3.526315789473684" height="25" x="64.90350877192984" y="537.5" stroke="none" fill="hsla(83, 72%, 50%, 1.00)" rx="1.763157894736842" transform="rotate(45, 66.66666666666667, 550)"></rect><rect width="25" height="3.526315789473684" x="120.83333333333334" y="548.2368421052631" stroke="none" fill="hsla(83, 80%, 20%, 0.85)" rx="1.763157894736842" transform="rotate(45, 133.33333333333334, 550)"></rect><rect width="3.526315789473684" height="25" x="131.5701754385965" y="537.5" stroke="none" fill="hsla(83, 80%, 20%, 0.85)" rx="1.763157894736842" transform="rotate(45, 133.33333333333334, 550)"></rect><rect width="25" height="3.526315789473684" x="187.5" y="548.2368421052631" stroke="none" fill="hsla(83, 72%, 50%, 1.00)" rx="1.763157894736842" transform="rotate(45, 200, 550)"></rect><rect width="3.526315789473684" height="25" x="198.23684210526315" y="537.5" stroke="none" fill="hsla(83, 72%, 50%, 1.00)" rx="1.763157894736842" transform="rotate(45, 200, 550)"></rect><rect width="25" height="3.526315789473684" x="254.16666666666669" y="548.2368421052631" stroke="none" fill="hsla(83, 80%, 20%, 0.85)" rx="1.763157894736842" transform="rotate(45, 266.6666666666667, 550)"></rect><rect width="3.526315789473684" height="25" x="264.90350877192986" y="537.5" stroke="none" fill="hsla(83, 80%, 20%, 0.85)" rx="1.763157894736842" transform="rotate(45, 266.6666666666667, 550)"></rect><rect width="25" height="3.526315789473684" x="320.83333333333337" y="548.2368421052631" stroke="none" fill="hsla(83, 72%, 50%, 1.00)" rx="1.763157894736842" transform="rotate(45, 333.33333333333337, 550)"></rect><rect width="3.526315789473684" height="25" x="331.57017543859655" y="537.5" stroke="none" fill="hsla(83, 72%, 50%, 1.00)" rx="1.763157894736842" transform="rotate(45, 333.33333333333337, 550)"></rect><rect width="25" height="3.526315789473684" x="387.50000000000006" y="548.2368421052631" stroke="none" fill="hsla(83, 80%, 20%, 0.85)" rx="1.763157894736842" transform="rotate(45, 400.00000000000006, 550)"></rect><rect width="3.526315789473684" height="25" x="398.23684210526324" y="537.5" stroke="none" fill="hsla(83, 80%, 20%, 0.85)" rx="1.763157894736842" transform="rotate(45, 400.00000000000006, 550)"></rect><rect width="25" height="3.526315789473684" x="454.16666666666674" y="548.2368421052631" stroke="none" fill="hsla(83, 72%, 50%, 1.00)" rx="1.763157894736842" transform="rotate(45, 466.66666666666674, 550)"></rect><rect width="3.526315789473684" height="25" x="464.9035087719299" y="537.5" stroke="none" fill="hsla(83, 72%, 50%, 1.00)" rx="1.763157894736842" transform="rotate(45, 466.66666666666674, 550)"></rect><rect width="25" height="3.526315789473684" x="520.8333333333334" y="548.2368421052631" stroke="none" fill="hsla(83, 80%, 20%, 0.85)" rx="1.763157894736842" transform="rotate(45, 533.3333333333334, 550)"></rect><rect width="3.526315789473684" height="25" x="531.5701754385965" y="537.5" stroke="none" fill="hsla(83, 80%, 20%, 0.85)" rx="1.763157894736842" transform="rotate(45, 533.3333333333334, 550)"></rect><rect width="25" height="3.526315789473684" x="587.5" y="548.2368421052631" stroke="none" fill="hsla(83, 72%, 50%, 1.00)" rx="1.763157894736842" transform="rotate(45, 600, 550)"></rect><rect width="3.526315789473684" height="25" x="598.2368421052631" y="537.5" stroke="none" fill="hsla(83, 72%, 50%, 1.00)" rx="1.763157894736842" transform="rotate(45, 600, 550)"></rect><rect width="25" height="3.526315789473684" x="654.1666666666666" y="548.2368421052631" stroke="none" fill="hsla(83, 80%, 20%, 0.85)" rx="1.763157894736842" transform="rotate(45, 666.6666666666666, 550)"></rect><rect width="3.526315789473684" height="25" x="664.9035087719298" y="537.5" stroke="none" fill="hsla(83, 80%, 20%, 0.85)" rx="1.763157894736842" transform="rotate(45, 666.6666666666666, 550)"></rect><rect width="25" height="3.526315789473684" x="720.8333333333333" y="548.2368421052631" stroke="none" fill="hsla(83, 72%, 50%, 1.00)" rx="1.763157894736842" transform="rotate(45, 733.3333333333333, 550)"></rect><rect width="3.526315789473684" height="25" x="731.5701754385964" y="537.5" stroke="none" fill="hsla(83, 72%, 50%, 1.00)" rx="1.763157894736842" transform="rotate(45, 733.3333333333333, 550)"></rect><rect width="25" height="3.526315789473684" x="787.4999999999999" y="548.2368421052631" stroke="none" fill="hsla(83, 80%, 20%, 0.85)" rx="1.763157894736842" transform="rotate(45, 799.9999999999999, 550)"></rect><rect width="3.526315789473684" height="25" x="798.236842105263" y="537.5" stroke="none" fill="hsla(83, 80%, 20%, 0.85)" rx="1.763157894736842" transform="rotate(45, 799.9999999999999, 550)"></rect><rect width="25" height="3.526315789473684" x="-12.5" y="598.2368421052631" stroke="none" fill="hsla(83, 72%, 50%, 1.00)" rx="1.763157894736842" transform="rotate(45, 0, 600)"></rect><rect width="3.526315789473684" height="25" x="-1.763157894736842" y="587.5" stroke="none" fill="hsla(83, 72%, 50%, 1.00)" rx="1.763157894736842" transform="rotate(45, 0, 600)"></rect><rect width="25" height="3.526315789473684" x="54.16666666666667" y="598.2368421052631" stroke="none" fill="hsla(83, 80%, 20%, 0.85)" rx="1.763157894736842" transform="rotate(45, 66.66666666666667, 600)"></rect><rect width="3.526315789473684" height="25" x="64.90350877192984" y="587.5" stroke="none" fill="hsla(83, 80%, 20%, 0.85)" rx="1.763157894736842" transform="rotate(45, 66.66666666666667, 600)"></rect><rect width="25" height="3.526315789473684" x="120.83333333333334" y="598.2368421052631" stroke="none" fill="hsla(83, 72%, 50%, 1.00)" rx="1.763157894736842" transform="rotate(45, 133.33333333333334, 600)"></rect><rect width="3.526315789473684" height="25" x="131.5701754385965" y="587.5" stroke="none" fill="hsla(83, 72%, 50%, 1.00)" rx="1.763157894736842" transform="rotate(45, 133.33333333333334, 600)"></rect><rect width="25" height="3.526315789473684" x="187.5" y="598.2368421052631" stroke="none" fill="hsla(83, 80%, 20%, 0.85)" rx="1.763157894736842" transform="rotate(45, 200, 600)"></rect><rect width="3.526315789473684" height="25" x="198.23684210526315" y="587.5" stroke="none" fill="hsla(83, 80%, 20%, 0.85)" rx="1.763157894736842" transform="rotate(45, 200, 600)"></rect><rect width="25" height="3.526315789473684" x="254.16666666666669" y="598.2368421052631" stroke="none" fill="hsla(83, 72%, 50%, 1.00)" rx="1.763157894736842" transform="rotate(45, 266.6666666666667, 600)"></rect><rect width="3.526315789473684" height="25" x="264.90350877192986" y="587.5" stroke="none" fill="hsla(83, 72%, 50%, 1.00)" rx="1.763157894736842" transform="rotate(45, 266.6666666666667, 600)"></rect><rect width="25" height="3.526315789473684" x="320.83333333333337" y="598.2368421052631" stroke="none" fill="hsla(83, 80%, 20%, 0.85)" rx="1.763157894736842" transform="rotate(45, 333.33333333333337, 600)"></rect><rect width="3.526315789473684" height="25" x="331.57017543859655" y="587.5" stroke="none" fill="hsla(83, 80%, 20%, 0.85)" rx="1.763157894736842" transform="rotate(45, 333.33333333333337, 600)"></rect><rect width="25" height="3.526315789473684" x="387.50000000000006" y="598.2368421052631" stroke="none" fill="hsla(83, 72%, 50%, 1.00)" rx="1.763157894736842" transform="rotate(45, 400.00000000000006, 600)"></rect><rect width="3.526315789473684" height="25" x="398.23684210526324" y="587.5" stroke="none" fill="hsla(83, 72%, 50%, 1.00)" rx="1.763157894736842" transform="rotate(45, 400.00000000000006, 600)"></rect><rect width="25" height="3.526315789473684" x="454.16666666666674" y="598.2368421052631" stroke="none" fill="hsla(83, 80%, 20%, 0.85)" rx="1.763157894736842" transform="rotate(45, 466.66666666666674, 600)"></rect><rect width="3.526315789473684" height="25" x="464.9035087719299" y="587.5" stroke="none" fill="hsla(83, 80%, 20%, 0.85)" rx="1.763157894736842" transform="rotate(45, 466.66666666666674, 600)"></rect><rect width="25" height="3.526315789473684" x="520.8333333333334" y="598.2368421052631" stroke="none" fill="hsla(83, 72%, 50%, 1.00)" rx="1.763157894736842" transform="rotate(45, 533.3333333333334, 600)"></rect><rect width="3.526315789473684" height="25" x="531.5701754385965" y="587.5" stroke="none" fill="hsla(83, 72%, 50%, 1.00)" rx="1.763157894736842" transform="rotate(45, 533.3333333333334, 600)"></rect><rect width="25" height="3.526315789473684" x="587.5" y="598.2368421052631" stroke="none" fill="hsla(83, 80%, 20%, 0.85)" rx="1.763157894736842" transform="rotate(45, 600, 600)"></rect><rect width="3.526315789473684" height="25" x="598.2368421052631" y="587.5" stroke="none" fill="hsla(83, 80%, 20%, 0.85)" rx="1.763157894736842" transform="rotate(45, 600, 600)"></rect><rect width="25" height="3.526315789473684" x="654.1666666666666" y="598.2368421052631" stroke="none" fill="hsla(83, 72%, 50%, 1.00)" rx="1.763157894736842" transform="rotate(45, 666.6666666666666, 600)"></rect><rect width="3.526315789473684" height="25" x="664.9035087719298" y="587.5" stroke="none" fill="hsla(83, 72%, 50%, 1.00)" rx="1.763157894736842" transform="rotate(45, 666.6666666666666, 600)"></rect><rect width="25" height="3.526315789473684" x="720.8333333333333" y="598.2368421052631" stroke="none" fill="hsla(83, 80%, 20%, 0.85)" rx="1.763157894736842" transform="rotate(45, 733.3333333333333, 600)"></rect><rect width="3.526315789473684" height="25" x="731.5701754385964" y="587.5" stroke="none" fill="hsla(83, 80%, 20%, 0.85)" rx="1.763157894736842" transform="rotate(45, 733.3333333333333, 600)"></rect><rect width="25" height="3.526315789473684" x="787.4999999999999" y="598.2368421052631" stroke="none" fill="hsla(83, 72%, 50%, 1.00)" rx="1.763157894736842" transform="rotate(45, 799.9999999999999, 600)"></rect><rect width="3.526315789473684" height="25" x="798.236842105263" y="587.5" stroke="none" fill="hsla(83, 72%, 50%, 1.00)" rx="1.763157894736842" transform="rotate(45, 799.9999999999999, 600)"></rect><rect width="25" height="3.526315789473684" x="-12.5" y="648.2368421052631" stroke="none" fill="hsla(83, 80%, 20%, 0.85)" rx="1.763157894736842" transform="rotate(45, 0, 650)"></rect><rect width="3.526315789473684" height="25" x="-1.763157894736842" y="637.5" stroke="none" fill="hsla(83, 80%, 20%, 0.85)" rx="1.763157894736842" transform="rotate(45, 0, 650)"></rect><rect width="25" height="3.526315789473684" x="54.16666666666667" y="648.2368421052631" stroke="none" fill="hsla(83, 72%, 50%, 1.00)" rx="1.763157894736842" transform="rotate(45, 66.66666666666667, 650)"></rect><rect width="3.526315789473684" height="25" x="64.90350877192984" y="637.5" stroke="none" fill="hsla(83, 72%, 50%, 1.00)" rx="1.763157894736842" transform="rotate(45, 66.66666666666667, 650)"></rect><rect width="25" height="3.526315789473684" x="120.83333333333334" y="648.2368421052631" stroke="none" fill="hsla(83, 80%, 20%, 0.85)" rx="1.763157894736842" transform="rotate(45, 133.33333333333334, 650)"></rect><rect width="3.526315789473684" height="25" x="131.5701754385965" y="637.5" stroke="none" fill="hsla(83, 80%, 20%, 0.85)" rx="1.763157894736842" transform="rotate(45, 133.33333333333334, 650)"></rect><rect width="25" height="3.526315789473684" x="187.5" y="648.2368421052631" stroke="none" fill="hsla(83, 72%, 50%, 1.00)" rx="1.763157894736842" transform="rotate(45, 200, 650)"></rect><rect width="3.526315789473684" height="25" x="198.23684210526315" y="637.5" stroke="none" fill="hsla(83, 72%, 50%, 1.00)" rx="1.763157894736842" transform="rotate(45, 200, 650)"></rect><rect width="25" height="3.526315789473684" x="254.16666666666669" y="648.2368421052631" stroke="none" fill="hsla(83, 80%, 20%, 0.85)" rx="1.763157894736842" transform="rotate(45, 266.6666666666667, 650)"></rect><rect width="3.526315789473684" height="25" x="264.90350877192986" y="637.5" stroke="none" fill="hsla(83, 80%, 20%, 0.85)" rx="1.763157894736842" transform="rotate(45, 266.6666666666667, 650)"></rect><rect width="25" height="3.526315789473684" x="320.83333333333337" y="648.2368421052631" stroke="none" fill="hsla(83, 72%, 50%, 1.00)" rx="1.763157894736842" transform="rotate(45, 333.33333333333337, 650)"></rect><rect width="3.526315789473684" height="25" x="331.57017543859655" y="637.5" stroke="none" fill="hsla(83, 72%, 50%, 1.00)" rx="1.763157894736842" transform="rotate(45, 333.33333333333337, 650)"></rect><rect width="25" height="3.526315789473684" x="387.50000000000006" y="648.2368421052631" stroke="none" fill="hsla(83, 80%, 20%, 0.85)" rx="1.763157894736842" transform="rotate(45, 400.00000000000006, 650)"></rect><rect width="3.526315789473684" height="25" x="398.23684210526324" y="637.5" stroke="none" fill="hsla(83, 80%, 20%, 0.85)" rx="1.763157894736842" transform="rotate(45, 400.00000000000006, 650)"></rect><rect width="25" height="3.526315789473684" x="454.16666666666674" y="648.2368421052631" stroke="none" fill="hsla(83, 72%, 50%, 1.00)" rx="1.763157894736842" transform="rotate(45, 466.66666666666674, 650)"></rect><rect width="3.526315789473684" height="25" x="464.9035087719299" y="637.5" stroke="none" fill="hsla(83, 72%, 50%, 1.00)" rx="1.763157894736842" transform="rotate(45, 466.66666666666674, 650)"></rect><rect width="25" height="3.526315789473684" x="520.8333333333334" y="648.2368421052631" stroke="none" fill="hsla(83, 80%, 20%, 0.85)" rx="1.763157894736842" transform="rotate(45, 533.3333333333334, 650)"></rect><rect width="3.526315789473684" height="25" x="531.5701754385965" y="637.5" stroke="none" fill="hsla(83, 80%, 20%, 0.85)" rx="1.763157894736842" transform="rotate(45, 533.3333333333334, 650)"></rect><rect width="25" height="3.526315789473684" x="587.5" y="648.2368421052631" stroke="none" fill="hsla(83, 72%, 50%, 1.00)" rx="1.763157894736842" transform="rotate(45, 600, 650)"></rect><rect width="3.526315789473684" height="25" x="598.2368421052631" y="637.5" stroke="none" fill="hsla(83, 72%, 50%, 1.00)" rx="1.763157894736842" transform="rotate(45, 600, 650)"></rect><rect width="25" height="3.526315789473684" x="654.1666666666666" y="648.2368421052631" stroke="none" fill="hsla(83, 80%, 20%, 0.85)" rx="1.763157894736842" transform="rotate(45, 666.6666666666666, 650)"></rect><rect width="3.526315789473684" height="25" x="664.9035087719298" y="637.5" stroke="none" fill="hsla(83, 80%, 20%, 0.85)" rx="1.763157894736842" transform="rotate(45, 666.6666666666666, 650)"></rect><rect width="25" height="3.526315789473684" x="720.8333333333333" y="648.2368421052631" stroke="none" fill="hsla(83, 72%, 50%, 1.00)" rx="1.763157894736842" transform="rotate(45, 733.3333333333333, 650)"></rect><rect width="3.526315789473684" height="25" x="731.5701754385964" y="637.5" stroke="none" fill="hsla(83, 72%, 50%, 1.00)" rx="1.763157894736842" transform="rotate(45, 733.3333333333333, 650)"></rect><rect width="25" height="3.526315789473684" x="787.4999999999999" y="648.2368421052631" stroke="none" fill="hsla(83, 80%, 20%, 0.85)" rx="1.763157894736842" transform="rotate(45, 799.9999999999999, 650)"></rect><rect width="3.526315789473684" height="25" x="798.236842105263" y="637.5" stroke="none" fill="hsla(83, 80%, 20%, 0.85)" rx="1.763157894736842" transform="rotate(45, 799.9999999999999, 650)"></rect><rect width="25" height="3.526315789473684" x="-12.5" y="698.2368421052631" stroke="none" fill="hsla(83, 72%, 50%, 1.00)" rx="1.763157894736842" transform="rotate(45, 0, 700)"></rect><rect width="3.526315789473684" height="25" x="-1.763157894736842" y="687.5" stroke="none" fill="hsla(83, 72%, 50%, 1.00)" rx="1.763157894736842" transform="rotate(45, 0, 700)"></rect><rect width="25" height="3.526315789473684" x="54.16666666666667" y="698.2368421052631" stroke="none" fill="hsla(83, 80%, 20%, 0.85)" rx="1.763157894736842" transform="rotate(45, 66.66666666666667, 700)"></rect><rect width="3.526315789473684" height="25" x="64.90350877192984" y="687.5" stroke="none" fill="hsla(83, 80%, 20%, 0.85)" rx="1.763157894736842" transform="rotate(45, 66.66666666666667, 700)"></rect><rect width="25" height="3.526315789473684" x="120.83333333333334" y="698.2368421052631" stroke="none" fill="hsla(83, 72%, 50%, 1.00)" rx="1.763157894736842" transform="rotate(45, 133.33333333333334, 700)"></rect><rect width="3.526315789473684" height="25" x="131.5701754385965" y="687.5" stroke="none" fill="hsla(83, 72%, 50%, 1.00)" rx="1.763157894736842" transform="rotate(45, 133.33333333333334, 700)"></rect><rect width="25" height="3.526315789473684" x="187.5" y="698.2368421052631" stroke="none" fill="hsla(83, 80%, 20%, 0.85)" rx="1.763157894736842" transform="rotate(45, 200, 700)"></rect><rect width="3.526315789473684" height="25" x="198.23684210526315" y="687.5" stroke="none" fill="hsla(83, 80%, 20%, 0.85)" rx="1.763157894736842" transform="rotate(45, 200, 700)"></rect><rect width="25" height="3.526315789473684" x="254.16666666666669" y="698.2368421052631" stroke="none" fill="hsla(83, 72%, 50%, 1.00)" rx="1.763157894736842" transform="rotate(45, 266.6666666666667, 700)"></rect><rect width="3.526315789473684" height="25" x="264.90350877192986" y="687.5" stroke="none" fill="hsla(83, 72%, 50%, 1.00)" rx="1.763157894736842" transform="rotate(45, 266.6666666666667, 700)"></rect><rect width="25" height="3.526315789473684" x="320.83333333333337" y="698.2368421052631" stroke="none" fill="hsla(83, 80%, 20%, 0.85)" rx="1.763157894736842" transform="rotate(45, 333.33333333333337, 700)"></rect><rect width="3.526315789473684" height="25" x="331.57017543859655" y="687.5" stroke="none" fill="hsla(83, 80%, 20%, 0.85)" rx="1.763157894736842" transform="rotate(45, 333.33333333333337, 700)"></rect><rect width="25" height="3.526315789473684" x="387.50000000000006" y="698.2368421052631" stroke="none" fill="hsla(83, 72%, 50%, 1.00)" rx="1.763157894736842" transform="rotate(45, 400.00000000000006, 700)"></rect><rect width="3.526315789473684" height="25" x="398.23684210526324" y="687.5" stroke="none" fill="hsla(83, 72%, 50%, 1.00)" rx="1.763157894736842" transform="rotate(45, 400.00000000000006, 700)"></rect><rect width="25" height="3.526315789473684" x="454.16666666666674" y="698.2368421052631" stroke="none" fill="hsla(83, 80%, 20%, 0.85)" rx="1.763157894736842" transform="rotate(45, 466.66666666666674, 700)"></rect><rect width="3.526315789473684" height="25" x="464.9035087719299" y="687.5" stroke="none" fill="hsla(83, 80%, 20%, 0.85)" rx="1.763157894736842" transform="rotate(45, 466.66666666666674, 700)"></rect><rect width="25" height="3.526315789473684" x="520.8333333333334" y="698.2368421052631" stroke="none" fill="hsla(83, 72%, 50%, 1.00)" rx="1.763157894736842" transform="rotate(45, 533.3333333333334, 700)"></rect><rect width="3.526315789473684" height="25" x="531.5701754385965" y="687.5" stroke="none" fill="hsla(83, 72%, 50%, 1.00)" rx="1.763157894736842" transform="rotate(45, 533.3333333333334, 700)"></rect><rect width="25" height="3.526315789473684" x="587.5" y="698.2368421052631" stroke="none" fill="hsla(83, 80%, 20%, 0.85)" rx="1.763157894736842" transform="rotate(45, 600, 700)"></rect><rect width="3.526315789473684" height="25" x="598.2368421052631" y="687.5" stroke="none" fill="hsla(83, 80%, 20%, 0.85)" rx="1.763157894736842" transform="rotate(45, 600, 700)"></rect><rect width="25" height="3.526315789473684" x="654.1666666666666" y="698.2368421052631" stroke="none" fill="hsla(83, 72%, 50%, 1.00)" rx="1.763157894736842" transform="rotate(45, 666.6666666666666, 700)"></rect><rect width="3.526315789473684" height="25" x="664.9035087719298" y="687.5" stroke="none" fill="hsla(83, 72%, 50%, 1.00)" rx="1.763157894736842" transform="rotate(45, 666.6666666666666, 700)"></rect><rect width="25" height="3.526315789473684" x="720.8333333333333" y="698.2368421052631" stroke="none" fill="hsla(83, 80%, 20%, 0.85)" rx="1.763157894736842" transform="rotate(45, 733.3333333333333, 700)"></rect><rect width="3.526315789473684" height="25" x="731.5701754385964" y="687.5" stroke="none" fill="hsla(83, 80%, 20%, 0.85)" rx="1.763157894736842" transform="rotate(45, 733.3333333333333, 700)"></rect><rect width="25" height="3.526315789473684" x="787.4999999999999" y="698.2368421052631" stroke="none" fill="hsla(83, 72%, 50%, 1.00)" rx="1.763157894736842" transform="rotate(45, 799.9999999999999, 700)"></rect><rect width="3.526315789473684" height="25" x="798.236842105263" y="687.5" stroke="none" fill="hsla(83, 72%, 50%, 1.00)" rx="1.763157894736842" transform="rotate(45, 799.9999999999999, 700)"></rect><rect width="25" height="3.526315789473684" x="-12.5" y="748.2368421052631" stroke="none" fill="hsla(83, 80%, 20%, 0.85)" rx="1.763157894736842" transform="rotate(45, 0, 750)"></rect><rect width="3.526315789473684" height="25" x="-1.763157894736842" y="737.5" stroke="none" fill="hsla(83, 80%, 20%, 0.85)" rx="1.763157894736842" transform="rotate(45, 0, 750)"></rect><rect width="25" height="3.526315789473684" x="54.16666666666667" y="748.2368421052631" stroke="none" fill="hsla(83, 72%, 50%, 1.00)" rx="1.763157894736842" transform="rotate(45, 66.66666666666667, 750)"></rect><rect width="3.526315789473684" height="25" x="64.90350877192984" y="737.5" stroke="none" fill="hsla(83, 72%, 50%, 1.00)" rx="1.763157894736842" transform="rotate(45, 66.66666666666667, 750)"></rect><rect width="25" height="3.526315789473684" x="120.83333333333334" y="748.2368421052631" stroke="none" fill="hsla(83, 80%, 20%, 0.85)" rx="1.763157894736842" transform="rotate(45, 133.33333333333334, 750)"></rect><rect width="3.526315789473684" height="25" x="131.5701754385965" y="737.5" stroke="none" fill="hsla(83, 80%, 20%, 0.85)" rx="1.763157894736842" transform="rotate(45, 133.33333333333334, 750)"></rect><rect width="25" height="3.526315789473684" x="187.5" y="748.2368421052631" stroke="none" fill="hsla(83, 72%, 50%, 1.00)" rx="1.763157894736842" transform="rotate(45, 200, 750)"></rect><rect width="3.526315789473684" height="25" x="198.23684210526315" y="737.5" stroke="none" fill="hsla(83, 72%, 50%, 1.00)" rx="1.763157894736842" transform="rotate(45, 200, 750)"></rect><rect width="25" height="3.526315789473684" x="254.16666666666669" y="748.2368421052631" stroke="none" fill="hsla(83, 80%, 20%, 0.85)" rx="1.763157894736842" transform="rotate(45, 266.6666666666667, 750)"></rect><rect width="3.526315789473684" height="25" x="264.90350877192986" y="737.5" stroke="none" fill="hsla(83, 80%, 20%, 0.85)" rx="1.763157894736842" transform="rotate(45, 266.6666666666667, 750)"></rect><rect width="25" height="3.526315789473684" x="320.83333333333337" y="748.2368421052631" stroke="none" fill="hsla(83, 72%, 50%, 1.00)" rx="1.763157894736842" transform="rotate(45, 333.33333333333337, 750)"></rect><rect width="3.526315789473684" height="25" x="331.57017543859655" y="737.5" stroke="none" fill="hsla(83, 72%, 50%, 1.00)" rx="1.763157894736842" transform="rotate(45, 333.33333333333337, 750)"></rect><rect width="25" height="3.526315789473684" x="387.50000000000006" y="748.2368421052631" stroke="none" fill="hsla(83, 80%, 20%, 0.85)" rx="1.763157894736842" transform="rotate(45, 400.00000000000006, 750)"></rect><rect width="3.526315789473684" height="25" x="398.23684210526324" y="737.5" stroke="none" fill="hsla(83, 80%, 20%, 0.85)" rx="1.763157894736842" transform="rotate(45, 400.00000000000006, 750)"></rect><rect width="25" height="3.526315789473684" x="454.16666666666674" y="748.2368421052631" stroke="none" fill="hsla(83, 72%, 50%, 1.00)" rx="1.763157894736842" transform="rotate(45, 466.66666666666674, 750)"></rect><rect width="3.526315789473684" height="25" x="464.9035087719299" y="737.5" stroke="none" fill="hsla(83, 72%, 50%, 1.00)" rx="1.763157894736842" transform="rotate(45, 466.66666666666674, 750)"></rect><rect width="25" height="3.526315789473684" x="520.8333333333334" y="748.2368421052631" stroke="none" fill="hsla(83, 80%, 20%, 0.85)" rx="1.763157894736842" transform="rotate(45, 533.3333333333334, 750)"></rect><rect width="3.526315789473684" height="25" x="531.5701754385965" y="737.5" stroke="none" fill="hsla(83, 80%, 20%, 0.85)" rx="1.763157894736842" transform="rotate(45, 533.3333333333334, 750)"></rect><rect width="25" height="3.526315789473684" x="587.5" y="748.2368421052631" stroke="none" fill="hsla(83, 72%, 50%, 1.00)" rx="1.763157894736842" transform="rotate(45, 600, 750)"></rect><rect width="3.526315789473684" height="25" x="598.2368421052631" y="737.5" stroke="none" fill="hsla(83, 72%, 50%, 1.00)" rx="1.763157894736842" transform="rotate(45, 600, 750)"></rect><rect width="25" height="3.526315789473684" x="654.1666666666666" y="748.2368421052631" stroke="none" fill="hsla(83, 80%, 20%, 0.85)" rx="1.763157894736842" transform="rotate(45, 666.6666666666666, 750)"></rect><rect width="3.526315789473684" height="25" x="664.9035087719298" y="737.5" stroke="none" fill="hsla(83, 80%, 20%, 0.85)" rx="1.763157894736842" transform="rotate(45, 666.6666666666666, 750)"></rect><rect width="25" height="3.526315789473684" x="720.8333333333333" y="748.2368421052631" stroke="none" fill="hsla(83, 72%, 50%, 1.00)" rx="1.763157894736842" transform="rotate(45, 733.3333333333333, 750)"></rect><rect width="3.526315789473684" height="25" x="731.5701754385964" y="737.5" stroke="none" fill="hsla(83, 72%, 50%, 1.00)" rx="1.763157894736842" transform="rotate(45, 733.3333333333333, 750)"></rect><rect width="25" height="3.526315789473684" x="787.4999999999999" y="748.2368421052631" stroke="none" fill="hsla(83, 80%, 20%, 0.85)" rx="1.763157894736842" transform="rotate(45, 799.9999999999999, 750)"></rect><rect width="3.526315789473684" height="25" x="798.236842105263" y="737.5" stroke="none" fill="hsla(83, 80%, 20%, 0.85)" rx="1.763157894736842" transform="rotate(45, 799.9999999999999, 750)"></rect><rect width="25" height="3.526315789473684" x="-12.5" y="798.2368421052631" stroke="none" fill="hsla(83, 72%, 50%, 1.00)" rx="1.763157894736842" transform="rotate(45, 0, 800)"></rect><rect width="3.526315789473684" height="25" x="-1.763157894736842" y="787.5" stroke="none" fill="hsla(83, 72%, 50%, 1.00)" rx="1.763157894736842" transform="rotate(45, 0, 800)"></rect><rect width="25" height="3.526315789473684" x="54.16666666666667" y="798.2368421052631" stroke="none" fill="hsla(83, 80%, 20%, 0.85)" rx="1.763157894736842" transform="rotate(45, 66.66666666666667, 800)"></rect><rect width="3.526315789473684" height="25" x="64.90350877192984" y="787.5" stroke="none" fill="hsla(83, 80%, 20%, 0.85)" rx="1.763157894736842" transform="rotate(45, 66.66666666666667, 800)"></rect><rect width="25" height="3.526315789473684" x="120.83333333333334" y="798.2368421052631" stroke="none" fill="hsla(83, 72%, 50%, 1.00)" rx="1.763157894736842" transform="rotate(45, 133.33333333333334, 800)"></rect><rect width="3.526315789473684" height="25" x="131.5701754385965" y="787.5" stroke="none" fill="hsla(83, 72%, 50%, 1.00)" rx="1.763157894736842" transform="rotate(45, 133.33333333333334, 800)"></rect><rect width="25" height="3.526315789473684" x="187.5" y="798.2368421052631" stroke="none" fill="hsla(83, 80%, 20%, 0.85)" rx="1.763157894736842" transform="rotate(45, 200, 800)"></rect><rect width="3.526315789473684" height="25" x="198.23684210526315" y="787.5" stroke="none" fill="hsla(83, 80%, 20%, 0.85)" rx="1.763157894736842" transform="rotate(45, 200, 800)"></rect><rect width="25" height="3.526315789473684" x="254.16666666666669" y="798.2368421052631" stroke="none" fill="hsla(83, 72%, 50%, 1.00)" rx="1.763157894736842" transform="rotate(45, 266.6666666666667, 800)"></rect><rect width="3.526315789473684" height="25" x="264.90350877192986" y="787.5" stroke="none" fill="hsla(83, 72%, 50%, 1.00)" rx="1.763157894736842" transform="rotate(45, 266.6666666666667, 800)"></rect><rect width="25" height="3.526315789473684" x="320.83333333333337" y="798.2368421052631" stroke="none" fill="hsla(83, 80%, 20%, 0.85)" rx="1.763157894736842" transform="rotate(45, 333.33333333333337, 800)"></rect><rect width="3.526315789473684" height="25" x="331.57017543859655" y="787.5" stroke="none" fill="hsla(83, 80%, 20%, 0.85)" rx="1.763157894736842" transform="rotate(45, 333.33333333333337, 800)"></rect><rect width="25" height="3.526315789473684" x="387.50000000000006" y="798.2368421052631" stroke="none" fill="hsla(83, 72%, 50%, 1.00)" rx="1.763157894736842" transform="rotate(45, 400.00000000000006, 800)"></rect><rect width="3.526315789473684" height="25" x="398.23684210526324" y="787.5" stroke="none" fill="hsla(83, 72%, 50%, 1.00)" rx="1.763157894736842" transform="rotate(45, 400.00000000000006, 800)"></rect><rect width="25" height="3.526315789473684" x="454.16666666666674" y="798.2368421052631" stroke="none" fill="hsla(83, 80%, 20%, 0.85)" rx="1.763157894736842" transform="rotate(45, 466.66666666666674, 800)"></rect><rect width="3.526315789473684" height="25" x="464.9035087719299" y="787.5" stroke="none" fill="hsla(83, 80%, 20%, 0.85)" rx="1.763157894736842" transform="rotate(45, 466.66666666666674, 800)"></rect><rect width="25" height="3.526315789473684" x="520.8333333333334" y="798.2368421052631" stroke="none" fill="hsla(83, 72%, 50%, 1.00)" rx="1.763157894736842" transform="rotate(45, 533.3333333333334, 800)"></rect><rect width="3.526315789473684" height="25" x="531.5701754385965" y="787.5" stroke="none" fill="hsla(83, 72%, 50%, 1.00)" rx="1.763157894736842" transform="rotate(45, 533.3333333333334, 800)"></rect><rect width="25" height="3.526315789473684" x="587.5" y="798.2368421052631" stroke="none" fill="hsla(83, 80%, 20%, 0.85)" rx="1.763157894736842" transform="rotate(45, 600, 800)"></rect><rect width="3.526315789473684" height="25" x="598.2368421052631" y="787.5" stroke="none" fill="hsla(83, 80%, 20%, 0.85)" rx="1.763157894736842" transform="rotate(45, 600, 800)"></rect><rect width="25" height="3.526315789473684" x="654.1666666666666" y="798.2368421052631" stroke="none" fill="hsla(83, 72%, 50%, 1.00)" rx="1.763157894736842" transform="rotate(45, 666.6666666666666, 800)"></rect><rect width="3.526315789473684" height="25" x="664.9035087719298" y="787.5" stroke="none" fill="hsla(83, 72%, 50%, 1.00)" rx="1.763157894736842" transform="rotate(45, 666.6666666666666, 800)"></rect><rect width="25" height="3.526315789473684" x="720.8333333333333" y="798.2368421052631" stroke="none" fill="hsla(83, 80%, 20%, 0.85)" rx="1.763157894736842" transform="rotate(45, 733.3333333333333, 800)"></rect><rect width="3.526315789473684" height="25" x="731.5701754385964" y="787.5" stroke="none" fill="hsla(83, 80%, 20%, 0.85)" rx="1.763157894736842" transform="rotate(45, 733.3333333333333, 800)"></rect><rect width="25" height="3.526315789473684" x="787.4999999999999" y="798.2368421052631" stroke="none" fill="hsla(83, 72%, 50%, 1.00)" rx="1.763157894736842" transform="rotate(45, 799.9999999999999, 800)"></rect><rect width="3.526315789473684" height="25" x="798.236842105263" y="787.5" stroke="none" fill="hsla(83, 72%, 50%, 1.00)" rx="1.763157894736842" transform="rotate(45, 799.9999999999999, 800)"></rect></g></svg>